{"glyphs":{"0":{"ha":833,"x_min":61,"x_max":772,"o":"m 417 -17 q 576 17 508 -17 q 687 115 643 51 q 751 272 731 179 q 772 485 772 365 q 751 697 772 603 q 687 854 731 790 q 576 952 643 918 q 417 986 508 986 q 258 952 325 986 q 147 854 190 918 q 82 697 103 790 q 61 485 61 603 q 82 272 61 365 q 147 115 103 179 q 258 17 190 51 q 417 -17 325 -17 m 417 111 q 326 131 364 111 q 265 190 289 151 q 231 281 242 228 q 221 401 221 335 l 221 568 q 231 688 221 635 q 265 780 242 742 q 326 838 289 818 q 417 858 364 858 q 567 780 522 858 q 613 568 613 701 l 613 401 q 567 190 613 268 q 417 111 522 111 m 417 403 q 484 422 465 403 q 503 469 503 442 l 503 500 q 484 547 503 528 q 417 567 465 567 q 349 547 368 567 q 331 500 331 528 l 331 469 q 349 422 331 442 q 417 403 368 403 "},"1":{"ha":833,"x_min":63,"x_max":785,"o":"m 122 0 l 785 0 l 785 129 l 550 129 l 550 969 l 310 969 l 63 701 l 158 615 l 383 856 l 394 856 l 394 129 l 122 129 l 122 0 "},"2":{"ha":833,"x_min":75,"x_max":757,"o":"m 757 0 l 757 132 l 256 132 l 490 329 q 585 413 542 371 q 659 499 628 454 q 708 594 690 544 q 725 701 725 643 q 704 816 725 764 q 643 906 683 868 q 544 965 603 943 q 410 986 485 986 q 280 967 336 986 q 183 914 224 947 q 115 838 142 881 q 75 750 89 796 l 211 699 q 274 808 231 765 q 399 851 318 851 q 519 810 478 851 q 561 693 561 769 l 561 678 q 520 551 561 611 q 404 425 479 492 l 88 149 l 88 0 l 757 0 "},"3":{"ha":833,"x_min":53,"x_max":742,"o":"m 376 569 l 276 569 l 276 439 l 381 439 q 527 399 476 439 q 578 285 578 360 l 578 274 q 529 156 578 199 q 389 114 481 114 q 253 151 303 114 q 168 246 204 188 l 53 157 q 105 92 75 124 q 175 37 135 61 q 267 -2 215 13 q 388 -17 319 -17 q 533 3 468 -17 q 645 61 599 24 q 717 151 692 99 q 742 267 742 203 q 725 360 742 319 q 679 431 708 401 q 613 480 650 461 q 533 507 575 499 l 533 514 q 607 540 572 522 q 667 587 642 558 q 708 653 693 615 q 722 736 722 690 q 699 841 722 794 q 632 920 675 888 q 531 969 589 953 q 404 986 472 986 q 294 973 343 986 q 208 938 246 960 q 142 888 171 917 q 90 826 113 858 l 196 736 q 278 824 229 792 q 399 856 328 856 q 516 820 472 856 q 560 718 560 785 l 560 708 q 515 609 560 649 q 376 569 469 569 "},"4":{"ha":833,"x_min":42,"x_max":788,"o":"m 503 0 l 651 0 l 651 189 l 788 189 l 788 311 l 651 311 l 651 969 l 447 969 l 42 322 l 42 189 l 503 189 l 503 0 m 174 311 l 494 826 l 503 826 l 503 311 l 174 311 "},"5":{"ha":833,"x_min":83,"x_max":760,"o":"m 710 835 l 710 969 l 151 969 l 115 429 l 244 411 q 310 464 272 440 q 413 488 347 488 q 549 440 501 488 q 597 308 597 393 l 597 297 q 550 163 597 213 q 413 114 503 114 q 338 124 371 114 q 281 151 306 133 q 235 194 256 169 q 197 246 215 218 l 83 157 q 135 92 106 124 q 203 37 164 61 q 294 -2 243 13 q 410 -17 344 -17 q 558 8 493 -17 q 668 76 624 32 q 736 180 713 119 q 760 313 760 240 q 737 440 760 383 q 674 535 714 496 q 581 594 635 574 q 465 615 528 615 q 336 581 383 615 q 256 490 289 547 l 244 490 l 269 835 l 710 835 "},"6":{"ha":833,"x_min":74,"x_max":764,"o":"m 419 -17 q 561 8 497 -17 q 670 75 625 32 q 740 178 715 118 q 764 311 764 239 q 742 436 764 381 q 682 531 721 492 q 590 592 643 571 q 475 613 538 613 q 393 601 429 613 q 329 571 357 590 q 281 526 301 551 q 244 471 260 500 l 235 474 q 286 617 253 553 q 369 740 319 682 q 485 854 418 799 q 635 969 551 910 l 426 969 q 303 869 365 929 q 189 731 240 808 q 106 560 138 653 q 74 361 74 467 q 97 204 74 274 q 165 85 121 135 q 274 10 210 36 q 419 -17 338 -17 m 418 108 q 282 156 331 108 q 233 292 233 204 l 233 306 q 282 441 233 393 q 418 489 331 489 q 556 441 507 489 q 604 306 604 393 l 604 292 q 556 156 604 204 q 418 108 507 108 "},"7":{"ha":833,"x_min":82,"x_max":750,"o":"m 235 0 l 400 0 l 750 833 l 750 969 l 82 969 l 82 661 l 217 661 l 217 840 l 594 840 l 235 0 "},"8":{"ha":833,"x_min":65,"x_max":768,"o":"m 417 -17 q 568 5 503 -17 q 678 64 633 26 q 745 153 722 101 q 768 265 768 204 q 714 421 768 363 q 572 503 660 479 l 572 514 q 693 597 647 540 q 739 738 739 654 q 655 918 739 850 q 417 986 571 986 q 178 918 263 986 q 94 738 94 850 q 140 597 94 654 q 261 514 186 540 l 261 503 q 119 421 174 479 q 65 265 65 363 q 88 153 65 204 q 156 64 111 101 q 265 5 200 26 q 417 -17 331 -17 m 417 107 q 276 147 325 107 q 226 261 226 188 l 226 290 q 276 404 226 364 q 417 444 325 444 q 558 404 508 444 q 607 290 607 364 l 607 261 q 558 147 607 188 q 417 107 508 107 m 417 564 q 290 601 333 564 q 246 704 246 638 l 246 722 q 290 826 246 789 q 417 863 333 863 q 544 826 500 863 q 588 722 588 789 l 588 704 q 544 601 588 638 q 417 564 500 564 "},"9":{"ha":833,"x_min":69,"x_max":760,"o":"m 760 608 q 736 765 760 696 q 668 884 713 835 q 559 960 624 933 q 414 986 494 986 q 272 962 336 986 q 163 894 208 938 q 94 791 118 851 q 69 658 69 731 q 91 533 69 589 q 151 438 113 478 q 243 378 190 399 q 358 357 296 357 q 440 368 404 357 q 504 399 476 379 q 553 444 532 418 q 589 499 574 469 l 599 496 q 547 352 581 417 q 465 229 514 288 q 349 115 415 171 q 199 0 282 60 l 407 0 q 531 100 468 39 q 644 239 593 161 q 728 410 696 317 q 760 608 760 503 m 415 481 q 278 528 326 481 q 229 664 229 576 l 229 678 q 278 813 229 765 q 415 861 326 861 q 551 813 503 861 q 600 678 600 765 l 600 664 q 551 528 600 576 q 415 481 503 481 "},"\u0000":{"ha":0,"x_min":0,"x_max":0,"o":""},"\r":{"ha":833,"x_min":0,"x_max":0,"o":""}," ":{"ha":833,"x_min":0,"x_max":0,"o":""},"a":{"ha":833,"x_min":83,"x_max":776,"o":"m 683 0 l 776 0 l 776 119 l 686 119 l 686 479 q 608 668 686 603 q 394 733 531 733 q 208 691 281 733 q 106 590 136 649 l 196 517 q 268 588 225 561 q 381 615 311 615 q 535 469 535 615 l 535 414 l 397 414 q 160 359 238 414 q 83 200 83 304 q 149 41 83 99 q 324 -17 214 -17 q 463 19 408 -17 q 539 121 518 56 l 546 121 q 585 33 553 67 q 683 0 618 0 m 367 94 q 271 119 306 94 q 236 192 236 143 l 236 219 q 400 318 236 318 l 535 318 l 535 214 q 488 128 535 161 q 367 94 440 94 "},"b":{"ha":833,"x_min":110,"x_max":763,"o":"m 110 1028 l 110 0 l 261 0 l 261 122 l 269 122 q 354 20 301 57 q 486 -17 407 -17 q 688 78 613 -17 q 763 358 763 172 q 688 639 763 544 q 486 733 613 733 q 354 697 407 733 q 269 594 301 660 l 261 594 l 261 1028 l 110 1028 m 424 107 q 361 115 390 107 q 310 140 332 124 q 274 181 288 157 q 261 239 261 206 l 261 478 q 274 535 261 511 q 310 576 288 560 q 361 601 332 593 q 424 610 390 610 q 556 557 510 610 q 603 417 603 504 l 603 300 q 556 160 603 213 q 424 107 510 107 "},"c":{"ha":833,"x_min":103,"x_max":732,"o":"m 443 -17 q 626 31 556 -17 q 732 154 697 79 l 621 222 q 553 139 596 169 q 444 108 511 108 q 308 161 356 108 q 261 299 261 214 l 261 418 q 308 556 261 504 q 442 608 356 608 q 544 579 504 608 q 603 500 583 550 l 721 564 q 620 686 688 639 q 442 733 553 733 q 299 707 363 733 q 192 632 236 681 q 126 514 149 583 q 103 358 103 444 q 126 203 103 272 q 192 85 149 133 q 299 10 236 36 q 443 -17 363 -17 "},"d":{"ha":833,"x_min":71,"x_max":724,"o":"m 572 122 l 572 0 l 724 0 l 724 1028 l 572 1028 l 572 594 l 564 594 q 479 697 532 660 q 347 733 426 733 q 146 639 221 733 q 71 358 71 544 q 146 78 71 172 q 347 -17 221 -17 q 479 20 426 -17 q 564 122 532 57 l 572 122 m 410 107 q 277 160 324 107 q 231 300 231 213 l 231 417 q 277 557 231 504 q 410 610 324 610 q 472 601 443 610 q 524 576 501 593 q 559 535 546 560 q 572 478 572 511 l 572 239 q 559 181 572 206 q 524 140 546 157 q 472 115 501 124 q 410 107 443 107 "},"e":{"ha":833,"x_min":83,"x_max":750,"o":"m 432 -17 q 617 26 543 -17 q 728 132 692 69 l 633 215 q 553 135 603 165 q 435 106 504 106 q 289 159 342 106 q 236 297 236 213 l 236 321 l 750 321 l 750 378 q 727 522 750 457 q 661 635 704 588 q 557 708 618 682 q 421 733 496 733 q 282 707 344 733 q 176 631 219 681 q 108 513 132 582 q 83 357 83 443 q 107 202 83 271 q 175 85 131 133 q 285 10 219 36 q 432 -17 350 -17 m 421 618 q 548 567 500 618 q 596 432 596 517 l 596 418 l 236 418 l 236 428 q 250 504 236 469 q 288 565 264 539 q 347 604 313 590 q 421 618 381 618 "},"f":{"ha":833,"x_min":94,"x_max":763,"o":"m 108 122 l 108 0 l 731 0 l 731 122 l 489 122 l 489 594 l 763 594 l 763 717 l 489 717 l 489 906 l 763 906 l 763 1028 l 521 1028 q 382 977 426 1028 q 338 846 338 926 l 338 717 l 94 717 l 94 594 l 338 594 l 338 122 l 108 122 "},"g":{"ha":833,"x_min":82,"x_max":792,"o":"m 792 -78 q 728 66 792 11 q 519 121 664 121 l 358 121 q 279 129 311 121 q 247 171 247 138 q 272 217 247 200 q 322 240 297 233 q 411 232 364 232 q 531 249 478 232 q 623 299 585 267 q 682 378 661 332 q 703 482 703 425 q 678 597 703 547 q 606 678 653 646 l 606 711 l 772 711 l 772 831 l 642 831 q 569 803 593 831 q 546 733 546 775 l 546 710 q 411 733 486 733 q 291 715 344 733 q 199 665 238 697 q 140 585 161 632 q 119 482 119 539 q 156 349 119 404 q 257 263 192 293 l 257 256 q 164 215 200 242 q 128 135 128 188 q 149 69 128 94 q 207 31 171 44 l 207 17 q 115 -31 147 1 q 82 -122 82 -64 q 99 -194 82 -162 q 156 -249 117 -226 q 259 -283 196 -271 q 415 -294 322 -294 q 699 -242 606 -294 q 792 -78 792 -189 m 650 -87 q 605 -162 650 -136 q 474 -187 560 -187 l 361 -187 q 248 -158 282 -187 q 214 -89 214 -129 q 267 -8 214 -33 l 515 -8 q 621 -30 592 -8 q 650 -87 650 -51 m 411 336 q 303 371 338 336 q 268 464 268 406 l 268 501 q 303 594 268 560 q 411 629 338 629 q 519 594 485 629 q 554 501 554 560 l 554 464 q 519 371 554 406 q 411 336 485 336 "},"h":{"ha":833,"x_min":117,"x_max":724,"o":"m 117 1028 l 117 0 l 268 0 l 268 486 q 281 540 268 517 q 317 579 294 564 q 367 602 339 594 q 424 610 394 610 q 572 439 572 610 l 572 0 l 724 0 l 724 461 q 657 663 724 592 q 482 733 590 733 q 404 722 438 733 q 346 692 371 711 q 303 648 321 674 q 275 594 286 622 l 268 594 l 268 1028 l 117 1028 "},"i":{"ha":833,"x_min":140,"x_max":765,"o":"m 461 847 q 541 871 518 847 q 564 929 564 894 l 564 958 q 541 1017 564 993 q 460 1040 518 1040 q 380 1017 403 1040 q 357 958 357 993 l 357 929 q 380 871 357 894 q 461 847 403 847 m 140 122 l 140 0 l 765 0 l 765 122 l 536 122 l 536 717 l 140 717 l 140 594 l 385 594 l 385 122 l 140 122 "},"j":{"ha":833,"x_min":128,"x_max":632,"o":"m 136 -156 l 136 -278 l 419 -278 q 559 -227 514 -278 q 604 -96 604 -176 l 604 717 l 128 717 l 128 594 l 453 594 l 453 -156 l 136 -156 m 529 847 q 609 871 586 847 q 632 929 632 894 l 632 958 q 609 1017 632 993 q 528 1040 586 1040 q 448 1017 471 1040 q 425 958 425 993 l 425 929 q 448 871 425 894 q 529 847 471 847 "},"k":{"ha":833,"x_min":122,"x_max":806,"o":"m 122 1028 l 122 0 l 274 0 l 274 256 l 374 349 l 624 0 l 806 0 l 483 435 l 774 717 l 594 717 l 393 522 l 281 407 l 274 407 l 274 1028 l 122 1028 "},"l":{"ha":833,"x_min":104,"x_max":731,"o":"m 104 122 l 104 0 l 731 0 l 731 122 l 493 122 l 493 1028 l 104 1028 l 104 906 l 342 906 l 342 122 l 104 122 "},"m":{"ha":833,"x_min":61,"x_max":771,"o":"m 61 0 l 190 0 l 190 519 q 215 592 190 568 q 276 617 239 617 q 334 588 317 617 q 351 485 351 560 l 351 0 l 481 0 l 481 519 q 505 592 481 568 q 565 617 529 617 q 624 588 606 617 q 642 485 642 560 l 642 0 l 771 0 l 771 504 q 738 675 771 617 q 622 733 706 733 q 522 699 557 733 q 468 617 488 665 l 463 617 q 423 702 454 671 q 335 733 392 733 q 245 701 276 733 q 197 624 214 669 l 190 624 l 190 717 l 61 717 l 61 0 "},"n":{"ha":833,"x_min":117,"x_max":724,"o":"m 117 0 l 268 0 l 268 486 q 281 540 268 517 q 317 579 294 564 q 367 602 339 594 q 424 610 394 610 q 572 439 572 610 l 572 0 l 724 0 l 724 461 q 657 663 724 592 q 482 733 590 733 q 404 722 438 733 q 346 692 371 711 q 303 648 321 674 q 275 594 286 622 l 268 594 l 268 717 l 117 717 l 117 0 "},"o":{"ha":833,"x_min":76,"x_max":757,"o":"m 417 -17 q 559 10 496 -17 q 666 85 622 36 q 733 203 710 133 q 757 358 757 272 q 733 514 757 444 q 666 632 710 583 q 559 707 622 681 q 417 733 496 733 q 274 707 338 733 q 167 632 211 681 q 100 514 124 583 q 76 358 76 444 q 100 203 76 272 q 167 85 124 133 q 274 10 211 36 q 417 -17 338 -17 m 417 103 q 284 153 333 103 q 235 304 235 204 l 235 413 q 284 563 235 513 q 417 614 333 614 q 549 563 500 614 q 599 413 599 513 l 599 304 q 549 153 599 204 q 417 103 500 103 "},"p":{"ha":833,"x_min":110,"x_max":763,"o":"m 110 717 l 110 -278 l 261 -278 l 261 122 l 269 122 q 354 20 301 57 q 486 -17 407 -17 q 688 78 613 -17 q 763 358 763 172 q 688 639 763 544 q 486 733 613 733 q 354 697 407 733 q 269 594 301 660 l 261 594 l 261 717 l 110 717 m 424 107 q 361 115 390 107 q 310 140 332 124 q 274 181 288 157 q 261 239 261 206 l 261 478 q 274 535 261 511 q 310 576 288 560 q 361 601 332 593 q 424 610 390 610 q 556 557 510 610 q 603 417 603 504 l 603 300 q 556 160 603 213 q 424 107 510 107 "},"q":{"ha":833,"x_min":71,"x_max":724,"o":"m 572 122 l 572 -278 l 724 -278 l 724 717 l 572 717 l 572 594 l 564 594 q 479 697 532 660 q 347 733 426 733 q 146 639 221 733 q 71 358 71 544 q 146 78 71 172 q 347 -17 221 -17 q 479 20 426 -17 q 564 122 532 57 l 572 122 m 410 107 q 277 160 324 107 q 231 300 231 213 l 231 417 q 277 557 231 504 q 410 610 324 610 q 472 601 443 610 q 524 576 501 593 q 559 535 546 560 q 572 478 572 511 l 572 239 q 559 181 572 206 q 524 140 546 157 q 472 115 501 124 q 410 107 443 107 "},"r":{"ha":833,"x_min":106,"x_max":778,"o":"m 106 122 l 106 0 l 707 0 l 707 122 l 447 122 l 447 390 q 500 523 447 474 q 636 572 553 572 l 778 572 l 778 717 l 692 717 q 597 701 638 717 q 529 659 557 685 q 483 599 501 633 q 456 526 465 564 l 447 526 l 447 717 l 106 717 l 106 594 l 296 594 l 296 122 l 106 122 "},"s":{"ha":833,"x_min":82,"x_max":733,"o":"m 418 -17 q 649 45 565 -17 q 733 215 733 107 q 712 307 733 271 q 656 366 690 343 q 580 400 622 389 q 494 418 538 411 l 381 436 q 303 459 336 442 q 271 522 271 476 q 422 618 271 618 q 558 591 507 618 q 638 532 610 564 l 722 621 q 601 703 674 674 q 428 733 528 733 q 206 676 290 733 q 122 510 122 619 q 144 418 122 454 q 199 359 165 382 q 276 324 233 336 q 361 306 319 311 l 475 288 q 517 279 497 285 q 553 264 538 274 q 576 239 568 254 q 585 201 585 224 q 540 124 585 149 q 421 99 494 99 q 281 126 340 99 q 175 204 222 153 l 82 121 q 217 21 133 58 q 418 -17 301 -17 "},"t":{"ha":833,"x_min":56,"x_max":733,"o":"m 460 0 l 733 0 l 733 122 l 428 122 l 428 594 l 733 594 l 733 717 l 428 717 l 428 969 l 286 969 l 286 790 q 269 733 286 749 q 213 717 253 717 l 56 717 l 56 594 l 276 594 l 276 182 q 321 51 276 101 q 460 0 365 0 "},"u":{"ha":833,"x_min":110,"x_max":717,"o":"m 565 122 l 565 0 l 717 0 l 717 717 l 565 717 l 565 231 q 552 176 565 199 q 517 138 539 153 q 467 115 494 122 q 410 107 439 107 q 261 278 261 107 l 261 717 l 110 717 l 110 256 q 176 54 110 125 q 351 -17 243 -17 q 429 -6 396 -17 q 488 24 463 6 q 530 69 513 43 q 558 122 547 94 l 565 122 "},"v":{"ha":833,"x_min":67,"x_max":767,"o":"m 324 0 l 510 0 l 767 717 l 615 717 l 517 414 l 424 126 l 415 126 l 322 414 l 224 717 l 67 717 l 324 0 "},"w":{"ha":833,"x_min":28,"x_max":806,"o":"m 28 717 l 128 0 l 314 0 l 411 556 l 424 556 l 519 0 l 706 0 l 806 717 l 682 717 l 611 114 l 599 114 l 493 717 l 346 717 l 239 114 l 226 114 l 157 717 l 28 717 "},"x":{"ha":833,"x_min":63,"x_max":772,"o":"m 63 0 l 228 0 l 333 154 l 406 260 l 414 260 l 488 154 l 594 0 l 772 0 l 503 369 l 760 717 l 596 717 l 501 581 l 428 472 l 419 472 l 344 581 l 250 717 l 74 717 l 329 364 l 63 0 "},"y":{"ha":833,"x_min":54,"x_max":779,"o":"m 626 717 l 513 417 l 424 171 l 415 171 l 326 417 l 213 717 l 54 717 l 343 10 l 278 -156 l 108 -156 l 108 -278 l 229 -278 q 359 -243 314 -278 q 432 -139 404 -208 l 779 717 l 626 717 "},"z":{"ha":833,"x_min":107,"x_max":726,"o":"m 107 0 l 726 0 l 726 122 l 276 122 l 713 583 l 713 717 l 122 717 l 122 594 l 543 594 l 107 133 l 107 0 "},"A":{"ha":833,"x_min":28,"x_max":807,"o":"m 642 0 l 807 0 l 524 969 l 311 969 l 28 0 l 186 0 l 260 258 l 568 258 l 642 0 m 419 813 l 539 388 l 289 388 l 408 813 l 419 813 "},"B":{"ha":833,"x_min":115,"x_max":761,"o":"m 115 969 l 115 0 l 488 0 q 599 20 549 0 q 686 77 650 40 q 742 164 722 114 q 761 274 761 214 q 710 428 761 374 q 574 503 658 483 l 574 510 q 686 581 644 531 q 728 715 728 631 q 655 901 728 833 q 450 969 582 969 l 115 969 m 440 119 l 268 119 l 268 439 l 440 439 q 560 407 518 439 q 601 304 601 375 l 601 254 q 560 151 601 183 q 440 119 518 119 m 418 553 l 268 553 l 268 850 l 418 850 q 530 822 492 850 q 568 726 568 793 l 568 676 q 530 581 568 610 q 418 553 492 553 "},"C":{"ha":833,"x_min":81,"x_max":763,"o":"m 444 -17 q 567 2 515 -17 q 657 53 619 21 q 720 130 694 86 q 763 224 746 174 l 622 271 q 597 208 611 238 q 563 158 583 179 q 513 125 542 138 q 443 113 485 113 q 293 191 340 113 q 246 403 246 269 l 246 567 q 293 778 246 700 q 443 857 340 857 q 513 844 485 857 q 563 811 542 832 q 597 761 583 790 q 622 699 611 732 l 763 746 q 720 840 746 796 q 657 916 694 883 q 567 967 619 949 q 444 986 515 986 q 170 856 260 986 q 81 485 81 725 q 170 114 81 244 q 444 -17 260 -17 "},"D":{"ha":833,"x_min":114,"x_max":768,"o":"m 114 969 l 114 0 l 403 0 q 678 124 589 0 q 768 485 768 247 q 678 846 768 722 q 403 969 589 969 l 114 969 m 393 128 l 268 128 l 268 842 l 393 842 q 552 770 500 842 q 604 565 604 699 l 604 404 q 552 199 604 271 q 393 128 500 128 "},"E":{"ha":833,"x_min":119,"x_max":726,"o":"m 119 0 l 726 0 l 726 131 l 275 131 l 275 426 l 710 426 l 710 557 l 275 557 l 275 839 l 726 839 l 726 969 l 119 969 l 119 0 "},"F":{"ha":833,"x_min":119,"x_max":743,"o":"m 119 0 l 275 0 l 275 426 l 700 426 l 700 557 l 275 557 l 275 839 l 743 839 l 743 969 l 119 969 l 119 0 "},"G":{"ha":833,"x_min":65,"x_max":739,"o":"m 597 133 l 597 0 l 739 0 l 739 496 l 410 496 l 410 379 l 597 379 l 597 292 q 552 162 597 213 q 422 111 507 111 q 333 133 369 111 q 273 195 296 156 q 240 290 250 235 q 231 413 231 346 l 231 567 q 276 778 231 700 q 422 857 321 857 q 491 844 463 857 q 540 810 519 832 q 574 759 560 788 q 599 699 588 731 l 739 746 q 699 838 724 794 q 636 915 674 882 q 545 967 599 947 q 421 986 492 986 q 153 856 240 986 q 65 478 65 725 q 142 113 65 242 q 369 -17 218 -17 q 453 -4 417 -17 q 515 29 489 8 q 558 77 540 50 q 588 133 575 104 l 597 133 "},"H":{"ha":833,"x_min":100,"x_max":733,"o":"m 578 426 l 578 0 l 733 0 l 733 969 l 578 969 l 578 557 l 256 557 l 256 969 l 100 969 l 100 0 l 256 0 l 256 426 l 578 426 "},"I":{"ha":833,"x_min":111,"x_max":722,"o":"m 111 0 l 722 0 l 722 118 l 494 118 l 494 851 l 722 851 l 722 969 l 111 969 l 111 851 l 339 851 l 339 118 l 111 118 l 111 0 "},"J":{"ha":833,"x_min":82,"x_max":685,"o":"m 685 969 l 192 969 l 192 839 l 529 839 l 529 281 q 491 155 529 196 q 385 114 453 114 q 276 154 311 114 q 229 254 242 194 l 82 224 q 180 47 104 111 q 383 -17 256 -17 q 507 3 451 -17 q 602 58 563 22 q 663 146 642 94 q 685 260 685 197 l 685 969 "},"K":{"ha":833,"x_min":108,"x_max":818,"o":"m 381 446 l 640 0 l 818 0 l 486 561 l 806 969 l 626 969 l 389 667 l 271 506 l 264 506 l 264 969 l 108 969 l 108 0 l 264 0 l 264 300 l 381 446 "},"L":{"ha":833,"x_min":150,"x_max":747,"o":"m 150 0 l 747 0 l 747 131 l 306 131 l 306 969 l 150 969 l 150 0 "},"M":{"ha":833,"x_min":78,"x_max":756,"o":"m 618 464 l 618 0 l 756 0 l 756 969 l 576 969 l 426 585 l 417 585 l 268 969 l 78 969 l 78 0 l 215 0 l 215 464 l 211 756 l 222 756 l 417 257 l 611 756 l 622 756 l 618 464 "},"N":{"ha":833,"x_min":100,"x_max":733,"o":"m 249 746 l 533 0 l 733 0 l 733 969 l 597 969 l 597 224 l 585 224 l 300 969 l 100 969 l 100 0 l 236 0 l 236 746 l 249 746 "},"O":{"ha":833,"x_min":61,"x_max":772,"o":"m 417 -17 q 576 17 508 -17 q 687 115 643 51 q 751 272 731 179 q 772 485 772 365 q 751 697 772 603 q 687 854 731 790 q 576 952 643 918 q 417 986 508 986 q 258 952 325 986 q 147 854 190 918 q 82 697 103 790 q 61 485 61 603 q 82 272 61 365 q 147 115 103 179 q 258 17 190 51 q 417 -17 325 -17 m 417 113 q 269 191 313 113 q 226 403 226 269 l 226 567 q 269 778 226 700 q 417 857 313 857 q 564 778 521 857 q 607 567 607 700 l 607 404 q 564 191 607 269 q 417 113 521 113 "},"P":{"ha":833,"x_min":117,"x_max":764,"o":"m 117 0 l 272 0 l 272 386 l 479 386 q 691 464 618 386 q 764 678 764 542 q 691 892 764 814 q 479 969 618 969 l 117 969 l 117 0 m 272 515 l 272 840 l 456 840 q 600 708 600 840 l 600 649 q 456 515 600 515 l 272 515 "},"Q":{"ha":833,"x_min":61,"x_max":772,"o":"m 703 -243 l 703 -126 l 486 -126 l 486 -11 q 703 142 633 13 q 772 485 772 271 q 751 697 772 603 q 687 854 731 790 q 576 952 643 918 q 417 986 508 986 q 258 952 325 986 q 147 854 190 918 q 82 697 103 790 q 61 485 61 603 q 78 292 61 378 q 130 142 94 206 q 219 40 165 79 q 347 -11 274 1 l 347 -64 q 389 -194 347 -144 q 525 -243 431 -243 l 703 -243 m 417 113 q 269 191 313 113 q 226 403 226 269 l 226 567 q 269 778 226 700 q 417 857 313 857 q 564 778 521 857 q 607 567 607 700 l 607 404 q 564 191 607 269 q 417 113 521 113 "},"R":{"ha":833,"x_min":117,"x_max":778,"o":"m 271 0 l 271 392 l 400 392 l 606 0 l 778 0 l 554 406 q 710 494 656 422 q 764 678 764 567 q 691 892 764 814 q 479 969 618 969 l 117 969 l 117 0 l 271 0 m 457 517 l 271 517 l 271 840 l 457 840 q 601 708 601 840 l 601 649 q 457 517 601 517 "},"S":{"ha":833,"x_min":54,"x_max":761,"o":"m 408 -17 q 559 5 493 -17 q 670 65 625 26 q 738 160 715 104 q 761 282 761 215 q 701 456 761 385 q 511 551 642 528 l 408 569 q 283 619 318 585 q 247 713 247 653 q 292 820 247 783 q 424 857 338 857 q 559 827 504 857 q 654 749 614 797 l 751 846 q 620 949 701 913 q 424 986 539 986 q 179 915 268 986 q 90 706 90 843 q 103 613 90 657 q 146 534 117 569 q 222 473 175 499 q 339 436 269 447 l 444 419 q 568 370 532 404 q 604 274 604 336 q 555 154 604 196 q 414 113 506 113 q 272 144 335 113 q 154 242 210 175 l 54 146 q 196 28 110 72 q 408 -17 282 -17 "},"T":{"ha":833,"x_min":35,"x_max":799,"o":"m 494 839 l 799 839 l 799 969 l 35 969 l 35 839 l 339 839 l 339 0 l 494 0 l 494 839 "},"U":{"ha":833,"x_min":96,"x_max":738,"o":"m 251 969 l 96 969 l 96 401 q 108 219 96 297 q 154 88 119 140 q 252 10 189 36 q 417 -17 315 -17 q 581 10 518 -17 q 679 88 644 36 q 726 219 714 140 q 738 401 738 297 l 738 969 l 582 969 l 582 374 q 578 265 582 314 q 558 183 575 217 q 508 131 542 149 q 417 113 475 113 q 325 131 358 113 q 275 183 292 149 q 255 265 258 217 q 251 374 251 314 l 251 969 "},"V":{"ha":833,"x_min":35,"x_max":799,"o":"m 308 0 l 525 0 l 799 969 l 638 969 l 508 481 l 424 151 l 415 151 l 331 481 l 203 969 l 35 969 l 308 0 "},"W":{"ha":833,"x_min":35,"x_max":799,"o":"m 104 0 l 313 0 l 411 561 l 422 561 l 521 0 l 729 0 l 799 969 l 668 969 l 632 406 l 617 157 l 606 157 l 496 735 l 342 735 l 232 157 l 221 157 l 206 406 l 171 969 l 35 969 l 104 0 "},"X":{"ha":833,"x_min":26,"x_max":808,"o":"m 808 0 l 514 497 l 794 969 l 629 969 l 526 796 l 426 617 l 419 617 l 319 796 l 221 969 l 44 969 l 324 497 l 26 0 l 192 0 l 306 192 l 411 375 l 419 375 l 522 192 l 632 0 l 808 0 "},"Y":{"ha":833,"x_min":17,"x_max":817,"o":"m 339 0 l 494 0 l 494 365 l 817 969 l 647 969 l 524 728 l 422 521 l 414 521 l 314 728 l 190 969 l 17 969 l 339 365 l 339 0 "},"Z":{"ha":833,"x_min":67,"x_max":767,"o":"m 767 0 l 767 131 l 238 131 l 747 832 l 747 969 l 86 969 l 86 839 l 576 839 l 67 138 l 67 0 l 767 0 "},"&":{"ha":833,"x_min":28,"x_max":810,"o":"m 296 -17 q 444 26 386 -17 q 517 139 501 68 l 525 139 l 642 0 l 810 0 l 636 208 q 670 316 660 267 q 689 424 681 365 l 790 424 l 790 542 l 572 542 q 568 417 571 483 q 556 299 565 350 l 549 299 l 461 414 l 356 544 q 306 609 326 582 q 274 658 286 636 q 256 700 261 681 q 250 740 250 719 l 250 750 q 283 834 250 801 q 368 867 315 867 q 451 840 417 867 q 503 769 486 813 l 615 828 q 583 885 604 857 q 531 936 563 914 q 460 972 500 958 q 371 986 419 986 q 269 969 317 986 q 186 919 221 951 q 131 844 151 888 q 111 747 111 800 q 135 638 111 689 q 201 532 160 586 q 67 408 106 481 q 28 257 28 336 q 46 151 28 200 q 98 64 64 101 q 182 5 132 26 q 296 -17 232 -17 m 335 107 q 219 147 263 107 q 175 258 175 188 l 175 271 q 194 367 175 322 q 267 450 214 413 l 482 185 q 420 126 458 144 q 335 107 382 107 "},"@":{"ha":833,"x_min":72,"x_max":746,"o":"m 626 -156 l 626 -49 l 465 -49 q 335 -22 388 -49 q 253 54 283 6 q 210 170 222 103 q 197 318 197 238 l 197 497 q 211 674 197 601 q 253 793 225 747 q 324 859 281 839 q 424 879 367 879 q 626 643 626 879 l 626 608 l 618 608 q 571 678 603 650 q 482 706 539 706 q 351 634 400 706 q 303 408 303 563 q 351 183 303 254 q 482 111 400 111 q 571 138 539 111 q 618 208 603 165 l 626 208 l 626 126 l 746 126 l 746 643 q 727 778 746 715 q 668 888 708 842 q 566 960 628 933 q 418 986 504 986 q 270 958 335 986 q 162 863 206 929 q 95 688 118 796 q 72 419 72 579 q 92 167 72 275 q 159 -13 113 58 q 281 -120 206 -85 q 465 -156 356 -156 l 626 -156 m 529 208 q 454 242 481 208 q 428 364 428 276 l 428 453 q 454 574 428 540 q 529 608 481 608 q 600 583 574 608 q 626 511 626 558 l 626 306 q 600 233 626 258 q 529 208 574 208 "},"-":{"ha":833,"x_min":207,"x_max":626,"o":"m 207 347 l 626 347 l 626 499 l 207 499 l 207 347 "},"­":{"ha":833,"x_min":207,"x_max":626,"o":"m 207 347 l 626 347 l 626 499 l 207 499 l 207 347 "},"–":{"ha":833,"x_min":83,"x_max":750,"o":"m 83 357 l 750 357 l 750 488 l 83 488 l 83 357 "},"—":{"ha":833,"x_min":0,"x_max":833,"o":"m 0 357 l 833 357 l 833 488 l 0 488 l 0 357 "},"_":{"ha":833,"x_min":83,"x_max":750,"o":"m 83 -249 l 750 -249 l 750 -118 l 83 -118 l 83 -249 "},".":{"ha":833,"x_min":296,"x_max":538,"o":"m 417 -14 q 510 14 483 -14 q 538 82 538 42 l 538 118 q 510 186 538 158 q 417 214 483 214 q 323 186 350 214 q 296 118 296 158 l 296 82 q 323 14 296 42 q 417 -14 350 -14 "},"…":{"ha":833,"x_min":53,"x_max":781,"o":"m 146 -7 q 217 14 194 -7 q 239 65 239 35 l 239 115 q 217 167 239 146 q 146 188 194 188 q 74 167 96 188 q 53 115 53 146 l 53 65 q 74 14 53 35 q 146 -7 96 -7 m 417 -7 q 488 14 465 -7 q 510 65 510 35 l 510 115 q 488 167 510 146 q 417 188 465 188 q 346 167 368 188 q 324 115 324 146 l 324 65 q 346 14 324 35 q 417 -7 368 -7 m 688 -7 q 758 14 736 -7 q 781 65 781 35 l 781 115 q 758 167 781 146 q 688 188 736 188 q 617 167 639 188 q 594 115 594 146 l 594 65 q 617 14 594 35 q 688 -7 639 -7 "},":":{"ha":833,"x_min":296,"x_max":538,"o":"m 417 -14 q 510 14 483 -14 q 538 82 538 42 l 538 118 q 510 186 538 158 q 417 214 483 214 q 323 186 350 214 q 296 118 296 158 l 296 82 q 323 14 296 42 q 417 -14 350 -14 m 417 503 q 510 531 483 503 q 538 599 538 558 l 538 635 q 510 703 538 675 q 417 731 483 731 q 323 703 350 731 q 296 635 296 675 l 296 599 q 323 531 296 558 q 417 503 350 503 "},",":{"ha":833,"x_min":264,"x_max":554,"o":"m 339 211 l 264 -201 l 382 -201 l 554 211 l 339 211 "},";":{"ha":833,"x_min":264,"x_max":554,"o":"m 339 211 l 264 -201 l 382 -201 l 554 211 l 339 211 m 417 503 q 510 531 483 503 q 538 599 538 558 l 538 635 q 510 703 538 675 q 417 731 483 731 q 323 703 350 731 q 296 635 296 675 l 296 599 q 323 531 296 558 q 417 503 350 503 "},"'":{"ha":833,"x_min":347,"x_max":486,"o":"m 347 614 l 486 614 l 486 1028 l 347 1028 l 347 614 "},"\"":{"ha":833,"x_min":211,"x_max":624,"o":"m 211 614 l 350 614 l 350 1028 l 211 1028 l 211 614 m 485 614 l 624 614 l 624 1028 l 485 1028 l 485 614 "},"‘":{"ha":833,"x_min":251,"x_max":542,"o":"m 425 1028 l 251 614 l 467 614 l 542 1028 l 425 1028 "},"’":{"ha":833,"x_min":292,"x_max":582,"o":"m 367 1028 l 292 614 l 408 614 l 582 1028 l 367 1028 "},"“":{"ha":833,"x_min":86,"x_max":718,"o":"m 260 1028 l 86 614 l 301 614 l 376 1028 l 260 1028 m 601 1028 l 428 614 l 643 614 l 718 1028 l 601 1028 "},"”":{"ha":833,"x_min":126,"x_max":758,"o":"m 201 1028 l 126 614 l 243 614 l 417 1028 l 201 1028 m 543 1028 l 468 614 l 585 614 l 758 1028 l 543 1028 "},"‚":{"ha":833,"x_min":264,"x_max":554,"o":"m 339 211 l 264 -201 l 382 -201 l 554 211 l 339 211 "},"„":{"ha":833,"x_min":115,"x_max":747,"o":"m 190 211 l 115 -201 l 233 -201 l 406 211 l 190 211 m 532 211 l 457 -201 l 575 -201 l 747 211 l 532 211 "},"‹":{"ha":833,"x_min":238,"x_max":567,"o":"m 521 65 l 567 167 l 372 375 l 567 583 l 521 685 l 238 446 l 238 304 l 521 65 "},"›":{"ha":833,"x_min":267,"x_max":596,"o":"m 267 167 l 313 65 l 596 304 l 596 446 l 313 685 l 267 583 l 461 375 l 267 167 "},"«":{"ha":833,"x_min":94,"x_max":751,"o":"m 378 65 l 424 167 l 229 375 l 424 583 l 378 685 l 94 446 l 94 304 l 378 65 m 706 65 l 751 167 l 557 375 l 751 583 l 706 685 l 422 446 l 422 304 l 706 65 "},"»":{"ha":833,"x_min":83,"x_max":740,"o":"m 83 167 l 129 65 l 413 304 l 413 446 l 129 685 l 83 583 l 278 375 l 83 167 m 411 167 l 457 65 l 740 304 l 740 446 l 457 685 l 411 583 l 606 375 l 411 167 "},"¡":{"ha":833,"x_min":300,"x_max":533,"o":"m 333 -253 l 500 -253 l 500 29 l 443 388 l 390 388 l 333 29 l 333 -253 m 417 511 q 507 538 481 511 q 533 604 533 564 l 533 638 q 507 704 533 678 q 417 731 481 731 q 326 704 353 731 q 300 638 300 678 l 300 604 q 326 538 300 564 q 417 511 353 511 "},"!":{"ha":833,"x_min":300,"x_max":533,"o":"m 390 329 l 443 329 l 500 688 l 500 969 l 333 969 l 333 688 l 390 329 m 417 -14 q 507 13 481 -14 q 533 79 533 39 l 533 113 q 507 179 533 153 q 417 206 481 206 q 326 179 353 206 q 300 113 300 153 l 300 79 q 326 13 300 39 q 417 -14 353 -14 "},"¿":{"ha":833,"x_min":115,"x_max":736,"o":"m 421 -269 q 542 -251 489 -269 q 634 -201 596 -232 q 698 -131 672 -171 q 736 -46 724 -90 l 604 7 q 543 -97 588 -56 q 426 -137 499 -137 q 317 -104 358 -137 q 276 -1 276 -71 l 276 18 q 342 147 276 106 q 519 192 407 188 l 519 407 l 374 407 l 374 285 q 278 254 325 276 q 196 197 232 232 q 138 114 160 163 q 115 3 115 65 q 137 -109 115 -58 q 199 -195 158 -160 q 295 -250 239 -231 q 421 -269 351 -269 m 443 511 q 533 538 507 511 q 560 604 560 564 l 560 638 q 533 704 560 678 q 443 731 507 731 q 353 704 379 731 q 326 638 326 678 l 326 604 q 353 538 326 564 q 443 511 379 511 "},"?":{"ha":833,"x_min":97,"x_max":718,"o":"m 314 310 l 460 310 l 460 432 q 555 463 508 440 q 638 519 601 485 q 696 603 674 554 q 718 714 718 651 q 697 826 718 775 q 635 912 675 876 q 538 967 594 947 q 413 986 482 986 q 290 967 343 986 q 199 918 238 949 q 135 847 161 888 q 97 763 110 806 l 229 710 q 290 813 246 772 q 407 854 335 854 q 516 821 475 854 q 557 718 557 788 l 557 699 q 492 570 557 611 q 314 525 426 529 l 314 310 m 390 -14 q 481 13 454 -14 q 507 79 507 39 l 507 113 q 481 179 507 153 q 390 206 454 206 q 300 179 326 206 q 274 113 274 153 l 274 79 q 300 13 274 39 q 390 -14 326 -14 "},"(":{"ha":833,"x_min":267,"x_max":707,"o":"m 267 432 q 290 237 267 331 q 352 63 313 143 q 444 -83 392 -18 q 556 -192 497 -149 l 707 -192 q 589 -87 644 -147 q 492 44 533 -28 q 425 198 450 117 q 400 368 400 279 l 400 496 q 425 666 400 585 q 492 819 450 747 q 589 951 533 892 q 707 1056 644 1011 l 556 1056 q 444 947 497 1011 q 352 801 392 882 q 290 627 313 721 q 267 432 267 533 "},")":{"ha":833,"x_min":126,"x_max":567,"o":"m 567 432 q 544 627 567 533 q 481 801 521 721 q 389 947 442 882 q 278 1056 336 1011 l 126 1056 q 244 951 189 1011 q 342 819 300 892 q 408 666 383 747 q 433 496 433 585 l 433 368 q 408 198 433 279 q 342 44 383 117 q 244 -87 300 -28 q 126 -192 189 -147 l 278 -192 q 389 -83 336 -149 q 481 63 442 -18 q 544 237 521 143 q 567 432 567 331 "},"[":{"ha":833,"x_min":288,"x_max":703,"o":"m 288 -192 l 703 -192 l 703 -83 l 413 -83 l 413 947 l 703 947 l 703 1056 l 288 1056 l 288 -192 "},"]":{"ha":833,"x_min":131,"x_max":546,"o":"m 546 1056 l 131 1056 l 131 947 l 421 947 l 421 -83 l 131 -83 l 131 -192 l 546 -192 l 546 1056 "},"{":{"ha":833,"x_min":139,"x_max":694,"o":"m 450 -192 l 694 -192 l 694 -83 l 433 -83 l 433 6 q 438 53 433 33 q 449 90 442 74 q 467 121 457 107 q 489 149 478 135 q 533 211 513 178 q 554 289 554 244 q 513 383 554 347 q 397 428 472 418 l 397 436 q 513 481 472 446 q 554 575 554 517 q 533 653 554 619 q 489 715 513 686 q 467 743 478 729 q 449 774 457 757 q 438 810 442 790 q 433 858 433 831 l 433 947 l 694 947 l 694 1056 l 450 1056 q 342 1019 376 1056 q 308 926 308 982 l 308 850 q 316 786 308 814 q 335 738 324 758 q 360 699 346 717 q 386 667 374 682 q 419 619 410 639 q 428 576 428 599 q 254 486 428 486 l 139 486 l 139 378 l 254 378 q 428 288 428 378 q 419 245 428 265 q 386 197 410 225 q 360 165 374 182 q 334 127 346 149 q 315 78 322 106 q 308 14 308 50 l 308 -62 q 342 -155 308 -118 q 450 -192 376 -192 "},"}":{"ha":833,"x_min":139,"x_max":694,"o":"m 383 1056 l 139 1056 l 139 947 l 400 947 l 400 858 q 383 773 400 803 q 344 715 367 743 q 300 653 321 686 q 279 575 279 619 q 320 481 279 517 q 436 436 361 446 l 436 428 q 320 383 361 418 q 279 289 279 347 q 300 211 279 244 q 344 149 321 178 q 383 91 367 121 q 400 6 400 61 l 400 -83 l 139 -83 l 139 -192 l 383 -192 q 491 -155 457 -192 q 525 -62 525 -118 l 525 14 q 518 77 525 50 q 499 126 511 104 q 474 164 488 147 q 447 197 460 181 q 415 245 424 225 q 406 288 406 265 q 579 378 406 378 l 694 378 l 694 486 l 579 486 q 406 576 406 486 q 415 619 406 599 q 447 667 424 639 q 474 699 460 682 q 499 738 488 717 q 517 786 510 758 q 525 850 525 814 l 525 926 q 491 1019 525 982 q 383 1056 457 1056 "},"/":{"ha":833,"x_min":115,"x_max":718,"o":"m 115 -192 l 250 -192 l 718 1056 l 583 1056 l 115 -192 "},"\\":{"ha":833,"x_min":115,"x_max":718,"o":"m 583 -192 l 718 -192 l 250 1056 l 115 1056 l 583 -192 "},"⁄":{"ha":833,"x_min":15,"x_max":818,"o":"m 700 969 l 471 553 l 589 553 l 818 969 l 700 969 m 244 417 l 15 0 l 133 0 l 363 417 l 244 417 "},"%":{"ha":833,"x_min":15,"x_max":818,"o":"m 232 483 q 385 548 328 483 q 443 735 443 613 q 385 922 443 857 q 232 986 328 986 q 78 922 136 986 q 21 735 21 857 q 78 548 21 613 q 232 483 136 483 m 232 578 q 161 610 186 578 q 136 701 136 643 l 136 768 q 161 859 136 826 q 232 892 186 892 q 303 859 278 892 q 328 768 328 826 l 328 701 q 303 610 328 643 q 232 578 278 578 m 693 969 l 476 553 l 600 553 l 818 969 l 693 969 m 233 417 l 15 0 l 140 0 l 357 417 l 233 417 m 601 -17 q 755 48 697 -17 q 813 235 813 113 q 755 422 813 357 q 601 486 697 486 q 448 422 506 486 q 390 235 390 357 q 448 48 390 113 q 601 -17 506 -17 m 601 78 q 531 110 556 78 q 506 201 506 143 l 506 268 q 531 359 506 326 q 601 392 556 392 q 672 359 647 392 q 697 268 697 326 l 697 201 q 672 110 697 143 q 601 78 647 78 "},"‰":{"ha":833,"x_min":0,"x_max":833,"o":"m 199 556 q 345 611 293 556 q 397 771 397 667 q 345 931 397 875 q 199 986 293 986 q 52 931 104 986 q 0 771 0 875 q 52 611 0 667 q 199 556 104 556 m 199 642 q 135 670 157 642 q 113 742 113 699 l 113 800 q 135 872 113 843 q 199 900 157 900 q 263 872 240 900 q 285 800 285 843 l 285 742 q 263 670 285 699 q 199 642 240 642 m 83 464 l 111 385 l 743 610 l 715 689 l 83 464 m 347 -17 q 428 1 392 -17 q 488 50 464 18 l 496 50 q 556 1 519 18 q 638 -17 593 -17 q 781 39 729 -17 q 833 199 833 94 q 781 358 833 301 q 638 414 729 414 q 557 397 593 414 q 497 347 521 379 l 489 347 q 428 397 465 379 q 347 414 392 414 q 203 358 256 414 q 151 199 151 303 q 203 40 151 96 q 347 -17 256 -17 m 350 69 q 286 98 308 69 q 264 169 264 126 l 264 228 q 286 299 264 271 q 350 328 308 328 q 414 299 392 328 q 436 228 436 271 l 436 169 q 414 98 436 126 q 350 69 392 69 m 635 69 q 571 98 593 69 q 549 169 549 126 l 549 228 q 571 299 549 271 q 635 328 593 328 q 699 299 676 328 q 721 228 721 271 l 721 169 q 699 98 721 126 q 635 69 676 69 "},"|":{"ha":833,"x_min":351,"x_max":482,"o":"m 351 -192 l 482 -192 l 482 1056 l 351 1056 l 351 -192 "},"¦":{"ha":833,"x_min":351,"x_max":482,"o":"m 351 557 l 482 557 l 482 1056 l 351 1056 l 351 557 m 351 -192 l 482 -192 l 482 307 l 351 307 l 351 -192 "},"§":{"ha":833,"x_min":103,"x_max":738,"o":"m 690 4 q 665 109 690 61 q 583 192 639 157 l 583 206 q 699 286 660 236 q 738 400 738 336 q 688 524 738 468 q 521 613 638 581 l 424 640 q 322 685 357 658 q 288 758 288 713 q 328 840 288 810 q 440 869 369 869 q 537 852 493 869 q 615 803 581 835 l 696 899 q 575 967 642 947 q 442 986 508 986 q 323 969 376 986 q 231 923 269 953 q 171 850 192 893 q 150 754 150 807 q 176 649 150 697 q 257 567 201 601 l 257 553 q 142 472 182 522 q 103 358 103 422 q 153 234 103 290 q 319 146 203 178 l 417 118 q 518 73 483 100 q 553 0 553 46 q 512 -81 553 -51 q 400 -111 471 -111 q 303 -94 347 -111 q 225 -44 260 -76 l 144 -140 q 265 -208 199 -189 q 399 -228 332 -228 q 517 -212 464 -228 q 610 -165 571 -196 q 669 -92 649 -135 q 690 4 690 -49 m 601 358 q 581 283 601 317 q 525 221 561 249 q 503 229 514 225 q 479 236 492 233 l 383 261 q 272 317 304 283 q 239 400 239 350 q 259 476 239 442 q 315 538 279 510 q 338 529 326 533 q 361 522 349 525 l 457 497 q 569 442 536 475 q 601 358 601 408 "},"¶":{"ha":833,"x_min":49,"x_max":728,"o":"m 361 342 l 361 -207 l 489 -207 l 489 850 l 600 850 l 600 -207 l 728 -207 l 728 969 l 361 969 q 240 946 296 969 q 140 881 183 922 q 73 781 97 839 q 49 656 49 724 q 73 530 49 588 q 140 431 97 472 q 240 365 183 389 q 361 342 296 342 "},"©":{"ha":833,"x_min":0,"x_max":833,"o":"m 417 25 q 580 57 504 25 q 712 149 656 89 q 801 293 768 208 q 833 485 833 378 q 801 676 833 590 q 712 821 768 761 q 580 913 656 881 q 417 944 504 944 q 253 913 329 944 q 122 821 178 881 q 33 676 65 761 q 0 485 0 590 q 33 293 0 378 q 122 149 65 208 q 253 57 178 89 q 417 25 329 25 m 417 101 q 285 128 346 101 q 181 201 225 154 q 113 310 138 247 q 88 443 88 372 l 88 526 q 113 660 88 597 q 181 769 138 722 q 285 842 225 815 q 417 868 346 868 q 548 842 488 868 q 652 769 608 815 q 721 660 696 722 q 746 526 746 597 l 746 443 q 721 310 746 372 q 652 201 696 247 q 548 128 608 154 q 417 101 488 101 m 426 226 q 553 263 506 226 q 625 351 601 299 l 535 401 q 494 349 518 369 q 429 328 469 328 q 351 359 378 328 q 324 440 324 390 l 324 528 q 351 610 324 579 q 428 642 379 642 q 487 622 464 642 q 525 569 510 603 l 617 618 q 547 708 593 674 q 426 743 501 743 q 258 673 321 743 q 194 485 194 603 q 256 297 194 367 q 426 226 318 226 "},"®":{"ha":833,"x_min":163,"x_max":671,"o":"m 417 481 q 516 500 469 481 q 597 553 563 519 q 651 633 631 586 q 671 733 671 679 q 651 834 671 788 q 597 914 631 881 q 516 967 563 947 q 417 986 469 986 q 317 967 364 986 q 236 914 271 947 q 182 834 201 881 q 163 733 163 788 q 182 633 163 679 q 236 553 201 586 q 317 500 271 519 q 417 481 364 481 m 417 538 q 342 551 376 538 q 283 588 308 564 q 244 644 258 611 q 229 719 229 678 l 229 747 q 244 822 229 789 q 283 879 258 856 q 342 916 308 903 q 417 929 376 929 q 491 916 457 929 q 550 879 525 903 q 590 822 575 856 q 604 747 604 789 l 604 719 q 590 644 604 678 q 550 588 575 611 q 491 551 525 564 q 417 538 457 538 m 379 606 l 379 693 l 415 693 l 465 606 l 536 606 l 476 704 q 513 733 500 714 q 526 779 526 751 q 504 840 526 817 q 438 863 482 863 l 315 863 l 315 606 l 379 606 m 422 740 l 379 740 l 379 813 l 422 813 q 458 782 458 813 l 458 771 q 422 740 458 740 "},"™":{"ha":833,"x_min":21,"x_max":758,"o":"m 131 576 l 222 576 l 222 897 l 332 897 l 332 969 l 21 969 l 21 897 l 131 897 l 131 576 m 378 576 l 458 576 l 458 735 l 453 856 l 458 856 l 568 646 l 678 856 l 683 856 l 678 735 l 678 576 l 758 576 l 758 969 l 660 969 l 574 799 l 568 799 l 483 969 l 378 969 l 378 576 "},"ª":{"ha":833,"x_min":185,"x_max":658,"o":"m 596 486 l 658 486 l 658 575 l 604 575 l 604 804 q 551 940 604 893 q 403 986 497 986 q 272 957 322 986 q 200 889 222 928 l 267 832 q 315 881 285 861 q 393 900 346 900 q 493 799 493 900 l 493 767 l 400 767 q 240 730 296 767 q 185 618 185 693 q 226 513 185 551 q 342 475 267 475 q 442 501 404 475 q 496 565 481 526 l 501 565 q 528 507 504 528 q 596 486 551 486 m 400 696 l 493 696 l 493 639 q 458 577 493 599 q 375 556 424 556 q 317 570 338 556 q 296 617 296 585 l 296 633 q 323 681 296 665 q 400 696 350 696 "},"º":{"ha":833,"x_min":182,"x_max":651,"o":"m 417 475 q 589 543 526 475 q 651 731 651 611 q 589 918 651 850 q 417 986 526 986 q 244 918 307 986 q 182 731 182 850 q 244 543 182 611 q 417 475 307 475 m 417 563 q 330 597 360 563 q 300 690 300 632 l 300 771 q 330 864 300 829 q 417 899 360 899 q 503 864 474 899 q 533 771 533 829 l 533 690 q 503 597 533 632 q 417 563 474 563 "},"°":{"ha":833,"x_min":169,"x_max":664,"o":"m 417 492 q 513 510 468 492 q 592 563 558 529 q 644 641 625 596 q 664 739 664 686 q 644 837 664 792 q 592 915 625 882 q 513 967 558 949 q 417 986 468 986 q 319 967 364 986 q 240 915 274 949 q 188 837 207 882 q 169 739 169 792 q 188 641 169 686 q 240 563 207 596 q 319 510 274 529 q 417 492 364 492 m 417 599 q 321 639 357 599 q 285 739 285 679 q 321 839 285 799 q 417 879 357 879 q 513 839 476 879 q 549 739 549 799 q 513 639 549 679 q 417 599 476 599 "},"*":{"ha":833,"x_min":53,"x_max":781,"o":"m 253 67 l 417 292 l 581 67 l 688 140 l 521 365 l 781 453 l 742 572 l 483 485 l 483 763 l 350 763 l 350 485 l 92 572 l 53 453 l 313 365 l 146 140 l 253 67 "},"†":{"ha":833,"x_min":92,"x_max":742,"o":"m 351 -278 l 482 -278 l 482 603 l 742 603 l 742 717 l 482 717 l 482 1028 l 351 1028 l 351 717 l 92 717 l 92 603 l 351 603 l 351 -278 "},"‡":{"ha":833,"x_min":92,"x_max":742,"o":"m 351 -278 l 482 -278 l 482 33 l 742 33 l 742 147 l 482 147 l 482 603 l 742 603 l 742 717 l 482 717 l 482 1028 l 351 1028 l 351 717 l 92 717 l 92 603 l 351 603 l 351 147 l 92 147 l 92 33 l 351 33 l 351 -278 "},"#":{"ha":833,"x_min":18,"x_max":815,"o":"m 188 288 l 138 0 l 264 0 l 435 969 l 308 969 l 257 682 l 69 682 l 69 565 l 236 565 l 208 404 l 18 404 l 18 288 l 188 288 m 569 969 l 399 0 l 525 0 l 576 288 l 764 288 l 764 404 l 597 404 l 625 565 l 815 565 l 815 682 l 646 682 l 696 969 l 569 969 "},"^":{"ha":833,"x_min":51,"x_max":782,"o":"m 660 371 l 782 426 l 499 969 l 335 969 l 51 426 l 167 371 l 408 835 l 418 835 l 660 371 "},"~":{"ha":833,"x_min":63,"x_max":771,"o":"m 567 313 q 699 363 647 313 q 771 492 751 413 l 660 535 q 619 465 642 490 q 558 439 596 439 q 495 453 528 439 q 426 486 463 468 q 347 521 385 507 q 267 535 310 535 q 134 485 186 535 q 63 356 82 435 l 174 313 q 215 383 192 357 q 275 408 238 408 q 338 394 306 408 q 407 361 371 379 q 486 326 449 340 q 567 313 524 313 "},"+":{"ha":833,"x_min":86,"x_max":747,"o":"m 349 86 l 485 86 l 485 363 l 747 363 l 747 486 l 485 486 l 485 763 l 349 763 l 349 486 l 86 486 l 86 363 l 349 363 l 349 86 "},"−":{"ha":833,"x_min":86,"x_max":747,"o":"m 86 363 l 747 363 l 747 486 l 86 486 l 86 363 "},"±":{"ha":833,"x_min":86,"x_max":747,"o":"m 349 228 l 485 228 l 485 486 l 747 486 l 747 610 l 485 610 l 485 868 l 349 868 l 349 610 l 86 610 l 86 486 l 349 486 l 349 228 m 86 0 l 747 0 l 747 124 l 86 124 l 86 0 "},"×":{"ha":833,"x_min":111,"x_max":722,"o":"m 417 335 l 632 118 l 722 208 l 506 424 l 722 639 l 632 729 l 417 513 l 201 729 l 111 639 l 328 424 l 111 208 l 201 118 l 417 335 "},"÷":{"ha":833,"x_min":86,"x_max":747,"o":"m 86 363 l 747 363 l 747 486 l 86 486 l 86 363 m 417 58 q 495 81 472 58 q 518 138 518 104 l 518 169 q 495 226 518 203 q 417 249 472 249 q 338 226 361 249 q 315 169 315 203 l 315 138 q 338 81 315 104 q 417 58 361 58 m 417 600 q 495 623 472 600 q 518 679 518 646 l 518 711 q 495 767 518 744 q 417 790 472 790 q 338 767 361 790 q 315 711 315 744 l 315 679 q 338 623 315 646 q 417 600 361 600 "},"=":{"ha":833,"x_min":86,"x_max":747,"o":"m 86 510 l 747 510 l 747 633 l 86 633 l 86 510 m 86 215 l 747 215 l 747 339 l 86 339 l 86 215 "},"≈":{"ha":833,"x_min":63,"x_max":771,"o":"m 567 460 q 699 510 647 460 q 771 639 751 560 l 660 682 q 619 612 642 638 q 558 586 596 586 q 495 601 528 586 q 426 633 463 615 q 347 668 385 654 q 267 682 310 682 q 134 632 186 682 q 63 503 82 582 l 174 460 q 215 530 192 504 q 275 556 238 556 q 338 541 306 556 q 407 508 371 526 q 486 474 449 488 q 567 460 524 460 m 567 167 q 699 217 647 167 q 771 346 751 267 l 660 389 q 619 319 642 344 q 558 293 596 293 q 495 308 528 293 q 426 340 463 322 q 347 375 385 361 q 267 389 310 389 q 134 339 186 389 q 63 210 82 289 l 174 167 q 215 237 192 211 q 275 263 238 263 q 338 248 306 263 q 407 215 371 233 q 486 181 449 194 q 567 167 524 167 "},"≠":{"ha":833,"x_min":86,"x_max":747,"o":"m 164 79 l 294 79 l 369 215 l 747 215 l 747 339 l 433 339 l 526 510 l 747 510 l 747 633 l 594 633 l 669 769 l 539 769 l 464 633 l 86 633 l 86 510 l 400 510 l 307 339 l 86 339 l 86 215 l 239 215 l 164 79 "},"<":{"ha":833,"x_min":118,"x_max":715,"o":"m 118 351 l 715 17 l 715 165 l 256 418 l 256 429 l 715 683 l 715 831 l 118 496 l 118 351 "},">":{"ha":833,"x_min":118,"x_max":715,"o":"m 118 164 l 118 17 l 715 351 l 715 496 l 118 831 l 118 682 l 578 429 l 578 418 l 118 164 "},"≤":{"ha":833,"x_min":118,"x_max":715,"o":"m 118 0 l 715 0 l 715 122 l 118 122 l 118 0 m 715 688 l 715 825 l 118 579 l 118 426 l 715 181 l 715 319 l 261 499 l 261 508 l 715 688 "},"≥":{"ha":833,"x_min":118,"x_max":715,"o":"m 118 318 l 118 181 l 715 426 l 715 579 l 118 825 l 118 686 l 572 507 l 572 497 l 118 318 m 118 122 l 118 0 l 715 0 l 715 122 l 118 122 "},"·":{"ha":833,"x_min":296,"x_max":538,"o":"m 417 308 q 510 336 483 308 q 538 404 538 364 l 538 440 q 510 508 538 481 q 417 536 483 536 q 323 508 350 536 q 296 440 296 481 l 296 404 q 323 336 296 364 q 417 308 350 308 "},"•":{"ha":833,"x_min":229,"x_max":604,"o":"m 417 240 q 562 286 519 240 q 604 401 604 332 l 604 443 q 594 507 604 478 q 563 558 585 536 q 504 592 540 579 q 417 604 468 604 q 329 592 365 604 q 271 558 293 579 q 239 507 249 536 q 229 443 229 478 l 229 401 q 272 286 229 332 q 417 240 314 240 "},"◊":{"ha":833,"x_min":50,"x_max":783,"o":"m 353 0 l 481 0 l 783 485 l 481 969 l 353 969 l 50 485 l 353 0 m 421 132 l 413 132 l 194 485 l 413 838 l 421 838 l 639 485 l 421 132 "},"¬":{"ha":833,"x_min":86,"x_max":725,"o":"m 599 94 l 725 94 l 725 486 l 86 486 l 86 363 l 599 363 l 599 94 "},"√":{"ha":833,"x_min":28,"x_max":808,"o":"m 328 0 l 524 0 l 808 969 l 674 969 l 531 469 l 432 115 l 424 115 l 331 469 l 261 717 l 28 717 l 28 593 l 157 593 l 328 0 "},"∫":{"ha":833,"x_min":44,"x_max":753,"o":"m 44 -156 l 44 -278 l 290 -278 q 429 -227 385 -278 q 474 -96 474 -176 l 474 906 l 753 906 l 753 1028 l 507 1028 q 368 977 413 1028 q 324 846 324 926 l 324 -156 l 44 -156 "},"∞":{"ha":833,"x_min":15,"x_max":818,"o":"m 221 175 q 327 219 281 175 q 389 357 374 264 l 394 357 q 477 218 425 261 q 601 175 529 175 q 761 240 704 175 q 818 424 818 306 q 765 607 818 542 q 613 672 711 672 q 506 628 553 672 q 444 490 460 583 l 439 490 q 356 629 408 586 q 232 672 304 672 q 72 607 129 672 q 15 424 15 542 q 69 240 15 306 q 221 175 122 175 m 235 285 q 169 314 194 285 q 144 397 144 343 l 144 450 q 169 533 144 504 q 235 563 194 563 q 314 522 282 563 q 367 418 346 482 q 315 322 347 358 q 235 285 282 285 m 599 285 q 519 325 551 285 q 467 429 488 365 q 519 526 486 489 q 599 563 551 563 q 664 533 639 563 q 689 450 689 504 l 689 397 q 664 314 689 343 q 599 285 639 285 "},"℮":{"ha":833,"x_min":36,"x_max":797,"o":"m 225 138 l 225 485 l 797 485 q 770 685 797 593 q 693 843 743 776 q 573 948 643 910 q 417 986 503 986 q 260 948 331 986 q 140 843 190 910 q 63 685 90 776 q 36 485 36 593 q 63 285 36 376 q 140 126 90 193 q 260 22 190 60 q 417 -17 331 -17 q 535 1 482 -17 q 629 49 588 19 q 703 120 671 79 q 760 207 735 161 l 697 242 q 587 106 653 160 q 417 53 521 53 q 304 78 354 53 q 225 138 254 103 m 608 547 l 225 547 l 225 839 q 306 897 257 875 q 417 919 354 919 q 528 897 479 919 q 608 839 576 875 l 608 547 "},"ℓ":{"ha":833,"x_min":75,"x_max":735,"o":"m 453 -17 q 553 -1 508 -17 q 631 44 597 15 q 691 110 665 72 q 735 194 717 149 l 618 258 q 581 193 599 221 q 544 147 563 165 q 503 121 525 129 q 456 113 482 113 q 378 144 407 113 q 350 253 350 176 l 350 311 q 481 432 425 374 q 575 549 538 490 q 632 669 613 608 q 651 799 651 731 q 595 981 651 917 q 432 1044 539 1044 q 341 1029 382 1044 q 269 981 300 1014 q 222 894 239 947 q 206 765 206 840 l 206 383 q 143 341 178 364 q 75 299 108 318 l 139 194 q 174 217 154 204 q 210 240 194 229 l 210 221 q 275 48 210 113 q 453 -17 340 -17 m 435 914 q 490 889 468 914 q 511 803 511 864 l 511 783 q 469 620 511 697 q 350 468 426 543 l 350 774 q 374 883 350 853 q 435 914 399 914 "},"№":{"ha":833,"x_min":44,"x_max":822,"o":"m 667 468 q 822 725 822 468 q 784 918 822 856 q 667 981 746 981 q 549 918 588 981 q 511 725 511 856 q 667 468 511 468 m 44 0 l 151 0 l 151 839 l 163 839 l 203 476 l 260 0 l 464 0 l 464 969 l 357 969 l 357 131 l 346 131 l 306 493 l 249 969 l 44 969 l 44 0 m 667 557 q 619 587 631 557 q 608 672 608 617 l 608 776 q 619 862 608 832 q 667 892 631 892 q 714 862 703 892 q 725 776 725 832 l 725 672 q 714 587 725 617 q 667 557 703 557 m 518 338 l 815 338 l 815 429 l 518 429 l 518 338 "},"∂":{"ha":833,"x_min":78,"x_max":757,"o":"m 757 379 q 723 599 757 504 q 637 764 689 693 q 522 885 585 835 q 401 969 460 935 l 169 969 q 440 793 326 890 q 599 571 554 696 l 590 567 q 502 663 556 625 q 365 700 449 700 q 249 675 301 700 q 158 604 196 650 q 99 493 119 558 q 78 347 78 428 q 101 197 78 264 q 169 82 125 129 q 276 9 213 35 q 421 -17 340 -17 q 559 7 497 -17 q 665 80 621 31 q 733 203 708 129 q 757 379 757 278 m 417 103 q 284 151 333 103 q 235 296 235 200 l 235 386 q 284 531 235 482 q 417 579 333 579 q 549 531 500 579 q 599 386 599 482 l 599 296 q 549 151 599 200 q 417 103 500 103 "},"¢":{"ha":833,"x_min":103,"x_max":732,"o":"m 375 -158 l 492 -158 l 492 -14 q 642 42 583 -3 q 732 154 701 88 l 625 219 q 569 146 604 175 q 486 107 535 117 l 486 608 q 561 571 531 599 q 607 503 592 543 l 721 564 q 635 675 692 631 q 492 731 579 719 l 492 875 l 375 875 l 375 728 q 174 609 244 707 q 103 358 103 511 q 174 108 103 206 q 375 -11 244 10 l 375 -158 m 254 299 l 254 418 q 287 539 254 489 q 382 606 319 589 l 382 111 q 287 178 319 128 q 254 299 254 228 "},"€":{"ha":833,"x_min":83,"x_max":768,"o":"m 456 -17 q 574 0 524 -17 q 660 44 624 17 q 723 106 697 71 q 768 178 749 142 l 647 247 q 578 148 619 186 q 460 110 536 110 q 317 165 368 110 q 250 318 265 221 l 563 318 l 563 426 l 243 426 l 243 543 l 563 543 l 563 651 l 250 651 q 317 804 265 749 q 460 860 368 860 q 578 822 536 860 q 647 722 619 783 l 768 792 q 723 863 749 828 q 660 926 697 899 q 574 969 624 953 q 456 986 524 986 q 178 856 272 986 q 83 485 83 726 q 178 113 83 243 q 456 -17 272 -17 "},"ƒ":{"ha":833,"x_min":-65,"x_max":851,"o":"m -44 -156 l -65 -278 l 190 -278 q 332 -232 285 -278 q 393 -106 379 -186 l 492 486 l 742 486 l 761 608 l 513 608 l 551 847 l 831 847 l 851 969 l 596 969 q 454 924 501 969 q 393 797 407 878 l 361 608 l 117 608 l 97 486 l 342 486 l 235 -156 l -44 -156 "},"£":{"ha":833,"x_min":68,"x_max":769,"o":"m 100 0 l 756 0 l 756 139 l 254 139 l 254 149 q 294 178 274 160 q 330 222 314 197 q 356 279 346 247 q 367 351 367 311 q 366 369 367 361 q 364 388 365 378 l 592 388 l 592 507 l 328 507 q 300 588 313 547 q 288 678 288 629 q 335 810 288 768 q 461 851 382 851 q 578 822 532 851 q 661 743 625 793 l 769 833 q 646 945 721 904 q 463 986 571 986 q 325 965 386 986 q 220 906 264 944 q 153 813 176 867 q 129 696 129 760 q 143 597 129 642 q 174 507 157 551 l 68 507 l 68 388 l 210 388 q 214 340 214 364 q 186 233 214 278 q 100 164 158 188 l 100 0 "},"$":{"ha":833,"x_min":60,"x_max":776,"o":"m 372 -15 l 372 -157 l 489 -157 l 489 -11 q 702 82 628 6 q 776 278 776 158 q 763 372 776 328 q 717 452 749 417 q 638 513 686 488 q 519 550 589 538 l 482 556 l 482 850 q 584 817 540 843 q 661 747 628 790 l 763 839 q 647 938 714 901 q 489 983 581 974 l 489 1126 l 372 1126 l 372 983 q 165 899 239 969 q 92 711 92 829 q 106 617 92 661 q 150 538 119 574 q 229 476 181 501 q 347 439 278 451 l 379 433 l 379 115 q 260 153 313 122 q 160 242 207 185 l 60 146 q 185 36 108 79 q 372 -15 261 -7 m 239 715 q 379 853 239 836 l 379 575 q 272 624 304 592 q 239 715 239 657 m 629 271 q 592 167 629 206 q 482 117 554 128 l 482 414 q 595 366 561 399 q 629 271 629 333 "},"¥":{"ha":833,"x_min":18,"x_max":815,"o":"m 93 121 l 93 0 l 740 0 l 740 121 l 490 121 l 490 335 l 740 335 l 740 456 l 567 456 l 815 969 l 654 969 l 424 456 l 414 456 l 183 969 l 18 969 l 267 456 l 93 456 l 93 335 l 343 335 l 343 121 l 93 121 "},"฿":{"ha":833,"x_min":108,"x_max":765,"o":"m 471 -157 l 471 0 l 492 0 q 603 20 553 0 q 689 77 653 40 q 745 164 725 114 q 765 274 765 214 q 715 424 765 371 q 585 500 665 478 l 585 506 q 701 578 658 528 q 743 715 743 628 q 724 819 743 772 q 670 900 706 867 q 585 951 635 933 q 474 969 535 969 l 471 969 l 471 1126 l 356 1126 l 356 969 l 108 969 l 108 0 l 356 0 l 356 -157 l 471 -157 m 361 551 l 253 551 l 253 851 l 361 851 l 361 551 m 465 554 l 465 849 q 592 726 592 842 l 592 676 q 465 554 592 561 m 361 118 l 253 118 l 253 440 l 361 440 l 361 118 m 465 118 l 465 440 q 613 308 613 436 l 613 250 q 465 118 613 122 "},"₡":{"ha":833,"x_min":81,"x_max":765,"o":"m 425 -15 l 413 -157 l 503 -157 l 515 -11 q 672 63 613 4 q 765 203 731 121 l 644 258 q 598 173 625 210 q 524 121 571 136 l 589 808 q 644 711 622 772 l 765 767 q 700 878 739 829 q 603 954 661 926 l 618 1126 l 528 1126 l 515 981 q 438 986 488 986 l 450 1126 l 360 1126 l 346 975 q 146 817 211 942 q 81 485 81 692 q 125 201 81 315 q 261 32 169 86 l 244 -157 l 335 -157 l 349 -4 q 421 -15 382 -15 l 425 -15 m 444 865 q 476 863 461 865 q 506 858 490 861 l 436 106 l 428 106 q 391 110 408 106 q 358 122 374 115 l 425 864 q 435 865 432 865 q 444 865 439 865 m 231 403 l 231 567 q 256 733 231 664 q 336 838 281 803 l 278 192 q 242 284 253 231 q 231 403 231 338 "},"₤":{"ha":833,"x_min":71,"x_max":769,"o":"m 756 0 l 756 139 l 254 139 l 254 149 q 313 201 285 167 q 356 285 342 235 l 582 285 l 582 389 l 364 389 q 351 443 360 417 q 333 494 343 469 l 582 494 l 582 600 l 297 600 q 290 637 293 618 q 288 678 288 656 q 335 810 288 768 q 461 851 382 851 q 578 822 532 851 q 661 743 625 793 l 769 833 q 646 945 721 904 q 463 986 571 986 q 325 965 386 986 q 220 906 264 944 q 153 813 176 867 q 129 696 129 760 q 133 646 129 669 q 142 600 136 622 l 71 600 l 71 494 l 179 494 q 197 443 189 469 q 210 389 206 417 l 71 389 l 71 285 l 204 285 q 169 213 194 244 q 100 164 144 182 l 100 0 l 756 0 "},"₦":{"ha":833,"x_min":35,"x_max":799,"o":"m 403 339 l 510 0 l 719 0 l 719 332 l 799 332 l 799 439 l 719 439 l 719 531 l 799 531 l 799 638 l 719 638 l 719 969 l 599 969 l 599 631 l 431 631 l 324 969 l 114 969 l 114 638 l 35 638 l 35 531 l 114 531 l 114 439 l 35 439 l 35 332 l 114 332 l 114 0 l 235 0 l 235 339 l 403 339 m 374 431 l 235 431 l 235 831 l 246 831 l 374 431 m 588 139 l 460 539 l 599 539 l 599 139 l 588 139 "},"₨":{"ha":833,"x_min":61,"x_max":821,"o":"m 61 0 l 194 0 l 194 447 l 238 447 l 347 150 q 440 20 379 57 q 590 -17 501 -17 q 763 35 708 -17 q 818 172 818 88 q 810 229 818 204 q 790 276 803 254 q 758 319 776 299 q 717 363 739 340 l 696 383 q 648 440 663 418 q 633 490 633 461 q 696 553 633 553 q 737 545 718 553 q 774 525 756 538 l 821 619 q 756 651 790 642 q 686 661 721 661 q 553 613 601 661 q 504 488 504 565 q 531 388 504 431 q 601 300 557 344 l 626 276 q 653 249 642 261 q 673 224 665 236 q 685 200 681 213 q 689 171 689 188 q 601 94 689 94 q 522 122 551 94 q 472 201 492 149 l 367 475 q 466 565 435 503 q 497 713 497 628 q 438 902 497 835 q 253 969 378 969 l 61 969 l 61 0 m 249 560 l 194 560 l 194 853 l 249 853 q 334 824 307 853 q 361 738 361 796 l 361 675 q 334 588 361 617 q 249 560 307 560 "},"₩":{"ha":833,"x_min":25,"x_max":808,"o":"m 111 357 l 124 0 l 333 0 l 403 585 l 431 585 l 500 0 l 710 0 l 722 357 l 808 357 l 808 463 l 725 463 l 729 576 l 808 576 l 808 682 l 732 682 l 742 969 l 611 969 l 608 674 l 228 674 l 226 969 l 92 969 l 101 682 l 25 682 l 25 576 l 104 576 l 108 463 l 25 463 l 25 357 l 111 357 m 257 114 l 229 114 l 225 585 l 315 585 l 257 114 m 607 114 l 579 114 l 521 585 l 613 585 l 607 114 "},"₪":{"ha":833,"x_min":68,"x_max":771,"o":"m 265 754 l 265 0 l 510 0 q 615 17 567 0 q 697 68 663 33 q 751 154 732 103 q 771 275 771 206 l 771 969 l 650 969 l 650 263 q 638 188 650 218 q 603 140 625 158 q 555 113 582 121 q 499 104 528 104 l 382 104 l 382 754 l 265 754 m 68 0 l 189 0 l 189 865 l 308 865 q 365 857 338 865 q 412 830 392 849 q 444 781 432 811 q 457 707 457 750 l 457 215 l 574 215 l 574 694 q 554 815 574 764 q 501 901 535 867 q 419 953 467 936 q 314 969 371 969 l 68 969 l 68 0 "},"₫":{"ha":833,"x_min":108,"x_max":779,"o":"m 553 315 l 553 208 l 694 208 l 694 839 l 779 839 l 779 950 l 694 950 l 694 1028 l 553 1028 l 553 950 l 356 950 l 356 839 l 553 839 l 553 650 l 546 650 q 472 736 518 703 q 350 769 425 769 q 174 697 240 769 q 108 482 108 625 q 174 267 108 339 q 350 196 240 196 q 472 229 425 196 q 546 315 518 263 l 553 315 m 410 308 q 296 347 335 308 q 257 450 257 386 l 257 515 q 296 618 257 579 q 410 657 335 657 q 513 625 472 657 q 553 546 553 593 l 553 419 q 513 340 553 372 q 410 308 472 308 m 114 0 l 733 0 l 733 117 l 114 117 l 114 0 "},"₭":{"ha":833,"x_min":33,"x_max":803,"o":"m 276 0 l 276 436 l 344 436 l 624 0 l 803 0 l 517 436 l 764 436 l 764 561 l 506 561 l 781 969 l 611 969 l 343 561 l 276 561 l 276 969 l 121 969 l 121 561 l 33 561 l 33 436 l 121 436 l 121 0 l 276 0 "},"₮":{"ha":833,"x_min":35,"x_max":799,"o":"m 493 279 l 681 364 l 681 478 l 493 393 l 493 515 l 681 600 l 681 714 l 493 629 l 493 843 l 799 843 l 799 969 l 35 969 l 35 843 l 340 843 l 340 560 l 153 475 l 153 361 l 340 446 l 340 324 l 153 239 l 153 125 l 340 210 l 340 0 l 493 0 l 493 279 "},"₱":{"ha":833,"x_min":38,"x_max":800,"o":"m 260 0 l 260 257 l 446 257 q 621 308 556 257 q 711 460 686 360 l 800 460 l 800 567 l 726 567 l 726 660 l 800 660 l 800 767 l 711 767 q 621 918 686 867 q 446 969 556 969 l 111 969 l 111 767 l 38 767 l 38 660 l 111 660 l 111 567 l 38 567 l 38 460 l 111 460 l 111 0 l 260 0 m 260 763 l 260 860 l 431 860 q 526 835 493 860 q 571 763 560 811 l 260 763 m 576 563 l 260 563 l 260 664 l 576 664 l 576 563 m 431 367 l 260 367 l 260 464 l 571 464 q 526 391 560 415 q 431 367 493 367 "},"₲":{"ha":833,"x_min":65,"x_max":739,"o":"m 285 7 l 257 -157 l 375 -157 l 399 -15 q 413 -17 406 -17 q 426 -17 419 -17 q 563 10 504 -17 q 660 82 621 36 q 719 192 700 128 q 739 333 739 256 l 739 496 l 474 496 l 529 835 q 582 782 563 814 q 615 711 601 750 l 736 760 q 669 883 711 829 q 557 964 628 936 l 583 1126 l 464 1126 l 442 985 q 431 986 435 986 q 421 986 426 986 q 153 855 240 986 q 65 485 65 724 q 119 173 65 294 q 285 7 174 51 m 429 864 l 310 140 q 219 403 219 210 l 219 567 q 267 785 219 706 q 418 864 315 864 l 429 864 m 431 106 q 411 107 417 106 l 456 382 l 601 382 l 601 311 q 559 163 601 219 q 431 106 517 106 "},"₴":{"ha":833,"x_min":38,"x_max":796,"o":"m 425 -17 q 597 19 518 -17 q 728 118 675 54 l 643 211 q 537 130 588 153 q 433 107 486 107 q 318 145 358 107 q 278 254 278 183 q 301 339 278 306 l 796 339 l 796 439 l 408 439 l 408 444 l 611 564 l 796 564 l 796 664 l 674 664 q 689 749 689 699 q 669 844 689 800 q 615 919 650 888 q 528 968 579 950 q 413 986 476 986 q 261 957 332 986 q 136 868 190 928 l 222 776 q 403 863 299 863 q 508 829 471 863 q 546 729 546 796 q 529 664 546 690 l 38 664 l 38 564 l 425 564 l 425 558 l 222 439 l 38 439 l 38 339 l 153 339 q 139 297 144 319 q 133 244 133 274 q 153 142 133 189 q 210 59 172 94 q 301 3 247 24 q 425 -17 356 -17 "},"₵":{"ha":833,"x_min":81,"x_max":763,"o":"m 293 13 l 265 -157 l 382 -157 l 406 -14 q 424 -16 415 -15 q 444 -17 433 -17 q 567 2 515 -17 q 657 53 619 21 q 720 130 694 86 q 763 224 746 174 l 631 268 q 605 205 619 235 q 569 153 590 175 q 517 117 547 131 q 444 104 486 104 q 431 104 438 104 q 417 107 424 104 l 538 843 q 597 789 575 824 q 635 714 619 754 l 758 760 q 688 885 733 828 q 564 968 643 942 l 590 1126 l 472 1126 l 450 986 l 443 986 q 170 856 260 986 q 81 485 81 726 q 133 179 81 299 q 293 13 185 60 m 436 865 l 319 147 q 256 249 276 183 q 235 403 235 315 l 235 567 q 285 783 235 708 q 436 865 335 858 "},"₸":{"ha":833,"x_min":63,"x_max":771,"o":"m 63 853 l 771 853 l 771 969 l 63 969 l 63 853 m 494 621 l 771 621 l 771 738 l 63 738 l 63 621 l 339 621 l 339 0 l 494 0 l 494 621 "},"₹":{"ha":833,"x_min":72,"x_max":775,"o":"m 531 0 l 717 0 l 411 397 q 547 481 497 421 q 603 628 596 540 l 775 628 l 775 738 l 592 738 q 552 808 578 783 q 499 843 526 833 l 499 850 l 775 850 l 775 969 l 72 969 l 72 850 l 281 850 q 395 822 349 850 q 449 738 442 794 l 72 738 l 72 628 l 451 628 q 401 528 449 558 q 281 497 354 497 l 72 497 l 72 378 l 244 378 l 531 0 "},"₺":{"ha":833,"x_min":68,"x_max":783,"o":"m 189 315 l 189 0 l 421 0 q 581 33 513 0 q 694 123 650 65 q 761 258 739 181 q 783 424 783 335 l 635 424 q 576 203 635 276 q 406 131 517 131 l 338 131 l 338 385 l 578 496 l 578 613 l 338 500 l 338 613 l 578 724 l 578 840 l 338 729 l 338 969 l 189 969 l 189 660 l 68 604 l 68 488 l 189 543 l 189 432 l 68 375 l 68 260 l 189 315 "},"₽":{"ha":833,"x_min":56,"x_max":776,"o":"m 313 174 l 615 174 l 615 293 l 313 293 l 313 397 l 492 397 q 703 472 631 397 q 776 682 776 547 q 703 892 776 815 q 492 969 631 969 l 157 969 l 157 517 l 56 517 l 56 397 l 157 397 l 157 293 l 56 293 l 56 174 l 157 174 l 157 0 l 313 0 l 313 174 m 313 517 l 313 846 l 469 846 q 615 715 615 846 l 615 647 q 469 517 615 517 l 313 517 "},"₿":{"ha":833,"x_min":115,"x_max":761,"o":"m 439 0 l 439 -157 l 539 -157 l 539 4 q 630 35 589 13 q 700 93 671 58 q 745 174 729 128 q 761 274 761 219 q 711 427 761 374 q 574 503 661 481 l 574 510 q 688 583 647 533 q 728 715 728 632 q 678 874 728 811 q 539 960 629 938 l 539 1126 l 439 1126 l 439 969 l 349 969 l 349 1126 l 249 1126 l 249 969 l 115 969 l 115 0 l 249 0 l 249 -157 l 349 -157 l 349 0 l 439 0 m 268 551 l 268 853 l 418 853 q 530 823 492 853 q 568 726 568 793 l 568 678 q 530 581 568 611 q 418 551 492 551 l 268 551 m 268 117 l 268 440 l 442 440 q 560 408 519 440 q 601 304 601 375 l 601 253 q 560 149 601 182 q 442 117 519 117 l 268 117 "},"ﬁ":{"ha":833,"x_min":49,"x_max":744,"o":"m 131 594 l 131 0 l 282 0 l 282 594 l 565 594 l 565 0 l 717 0 l 717 717 l 282 717 l 282 906 l 461 906 l 461 1028 l 314 1028 q 175 977 219 1028 q 131 846 131 926 l 131 717 l 49 717 l 49 594 l 131 594 m 642 847 q 722 871 699 847 q 744 929 744 894 l 744 958 q 722 1017 744 993 q 642 1040 699 1040 q 562 1017 585 1040 q 539 958 539 993 l 539 929 q 562 871 539 894 q 642 847 585 847 "},"ﬂ":{"ha":833,"x_min":49,"x_max":717,"o":"m 131 594 l 131 0 l 282 0 l 282 594 l 471 594 l 471 717 l 282 717 l 282 906 l 471 906 l 471 1028 l 314 1028 q 175 977 219 1028 q 131 846 131 926 l 131 717 l 49 717 l 49 594 l 131 594 m 565 1028 l 565 0 l 717 0 l 717 1028 l 565 1028 "},"á":{"ha":833,"x_min":83,"x_max":776,"o":"m 683 0 l 776 0 l 776 119 l 686 119 l 686 479 q 608 668 686 603 q 394 733 531 733 q 208 691 281 733 q 106 590 136 649 l 196 517 q 268 588 225 561 q 381 615 311 615 q 535 469 535 615 l 535 414 l 397 414 q 160 359 238 414 q 83 200 83 304 q 149 41 83 99 q 324 -17 214 -17 q 463 19 408 -17 q 539 121 518 56 l 546 121 q 585 33 553 67 q 683 0 618 0 m 367 94 q 271 119 306 94 q 236 192 236 143 l 236 219 q 400 318 236 318 l 535 318 l 535 214 q 488 128 535 161 q 367 94 440 94 m 415 804 l 579 1035 l 449 1099 l 322 849 l 415 804 "},"ă":{"ha":833,"x_min":83,"x_max":776,"o":"m 683 0 l 776 0 l 776 119 l 686 119 l 686 479 q 608 668 686 603 q 394 733 531 733 q 208 691 281 733 q 106 590 136 649 l 196 517 q 268 588 225 561 q 381 615 311 615 q 535 469 535 615 l 535 414 l 397 414 q 160 359 238 414 q 83 200 83 304 q 149 41 83 99 q 324 -17 214 -17 q 463 19 408 -17 q 539 121 518 56 l 546 121 q 585 33 553 67 q 683 0 618 0 m 367 94 q 271 119 306 94 q 236 192 236 143 l 236 219 q 400 318 236 318 l 535 318 l 535 214 q 488 128 535 161 q 367 94 440 94 m 400 813 q 499 834 458 813 q 568 888 540 856 q 614 960 596 921 q 643 1032 632 999 l 553 1075 l 524 1029 q 467 951 492 978 q 400 924 443 924 q 362 931 378 924 q 333 951 346 938 q 306 984 319 964 q 276 1029 293 1004 l 247 1075 l 157 1032 q 185 960 168 999 q 231 888 203 921 q 301 834 260 856 q 400 813 342 813 "},"â":{"ha":833,"x_min":83,"x_max":776,"o":"m 683 0 l 776 0 l 776 119 l 686 119 l 686 479 q 608 668 686 603 q 394 733 531 733 q 208 691 281 733 q 106 590 136 649 l 196 517 q 268 588 225 561 q 381 615 311 615 q 535 469 535 615 l 535 414 l 397 414 q 160 359 238 414 q 83 200 83 304 q 149 41 83 99 q 324 -17 214 -17 q 463 19 408 -17 q 539 121 518 56 l 546 121 q 585 33 553 67 q 683 0 618 0 m 367 94 q 271 119 306 94 q 236 192 236 143 l 236 219 q 400 318 236 318 l 535 318 l 535 214 q 488 128 535 161 q 367 94 440 94 m 476 1075 l 324 1075 l 157 867 l 233 808 l 399 969 l 563 808 l 643 867 l 476 1075 "},"ä":{"ha":833,"x_min":83,"x_max":776,"o":"m 683 0 l 776 0 l 776 119 l 686 119 l 686 479 q 608 668 686 603 q 394 733 531 733 q 208 691 281 733 q 106 590 136 649 l 196 517 q 268 588 225 561 q 381 615 311 615 q 535 469 535 615 l 535 414 l 397 414 q 160 359 238 414 q 83 200 83 304 q 149 41 83 99 q 324 -17 214 -17 q 463 19 408 -17 q 539 121 518 56 l 546 121 q 585 33 553 67 q 683 0 618 0 m 367 94 q 271 119 306 94 q 236 192 236 143 l 236 219 q 400 318 236 318 l 535 318 l 535 214 q 488 128 535 161 q 367 94 440 94 m 261 843 q 333 864 313 843 q 354 917 354 885 l 354 943 q 333 996 354 975 q 261 1017 313 1017 q 189 996 210 1017 q 168 943 168 975 l 168 917 q 189 864 168 885 q 261 843 210 843 m 539 843 q 611 864 590 843 q 632 917 632 885 l 632 943 q 611 996 632 975 q 539 1017 590 1017 q 467 996 488 1017 q 446 943 446 975 l 446 917 q 467 864 446 885 q 539 843 488 843 "},"ạ":{"ha":833,"x_min":83,"x_max":776,"o":"m 683 0 l 776 0 l 776 119 l 686 119 l 686 479 q 608 668 686 603 q 394 733 531 733 q 208 691 281 733 q 106 590 136 649 l 196 517 q 268 588 225 561 q 381 615 311 615 q 535 469 535 615 l 535 414 l 397 414 q 160 359 238 414 q 83 200 83 304 q 149 41 83 99 q 324 -17 214 -17 q 463 19 408 -17 q 539 121 518 56 l 546 121 q 585 33 553 67 q 683 0 618 0 m 367 94 q 271 119 306 94 q 236 192 236 143 l 236 219 q 400 318 236 318 l 535 318 l 535 214 q 488 128 535 161 q 367 94 440 94 m 397 -257 q 469 -236 449 -257 q 490 -183 490 -215 l 490 -157 q 469 -104 490 -125 q 397 -83 449 -83 q 325 -104 346 -83 q 304 -157 304 -125 l 304 -183 q 325 -236 304 -215 q 397 -257 346 -257 "},"à":{"ha":833,"x_min":83,"x_max":776,"o":"m 683 0 l 776 0 l 776 119 l 686 119 l 686 479 q 608 668 686 603 q 394 733 531 733 q 208 691 281 733 q 106 590 136 649 l 196 517 q 268 588 225 561 q 381 615 311 615 q 535 469 535 615 l 535 414 l 397 414 q 160 359 238 414 q 83 200 83 304 q 149 41 83 99 q 324 -17 214 -17 q 463 19 408 -17 q 539 121 518 56 l 546 121 q 585 33 553 67 q 683 0 618 0 m 367 94 q 271 119 306 94 q 236 192 236 143 l 236 219 q 400 318 236 318 l 535 318 l 535 214 q 488 128 535 161 q 367 94 440 94 m 221 1035 l 385 804 l 478 849 l 351 1099 l 221 1035 "},"ả":{"ha":833,"x_min":83,"x_max":776,"o":"m 683 0 l 776 0 l 776 119 l 686 119 l 686 479 q 608 668 686 603 q 394 733 531 733 q 208 691 281 733 q 106 590 136 649 l 196 517 q 268 588 225 561 q 381 615 311 615 q 535 469 535 615 l 535 414 l 397 414 q 160 359 238 414 q 83 200 83 304 q 149 41 83 99 q 324 -17 214 -17 q 463 19 408 -17 q 539 121 518 56 l 546 121 q 585 33 553 67 q 683 0 618 0 m 367 94 q 271 119 306 94 q 236 192 236 143 l 236 219 q 400 318 236 318 l 535 318 l 535 214 q 488 128 535 161 q 367 94 440 94 m 260 1079 l 260 968 l 426 968 l 356 831 l 436 792 l 472 836 q 524 917 504 876 q 544 992 544 957 q 519 1053 544 1028 q 431 1079 494 1079 l 260 1079 "},"ā":{"ha":833,"x_min":83,"x_max":776,"o":"m 683 0 l 776 0 l 776 119 l 686 119 l 686 479 q 608 668 686 603 q 394 733 531 733 q 208 691 281 733 q 106 590 136 649 l 196 517 q 268 588 225 561 q 381 615 311 615 q 535 469 535 615 l 535 414 l 397 414 q 160 359 238 414 q 83 200 83 304 q 149 41 83 99 q 324 -17 214 -17 q 463 19 408 -17 q 539 121 518 56 l 546 121 q 585 33 553 67 q 683 0 618 0 m 367 94 q 271 119 306 94 q 236 192 236 143 l 236 219 q 400 318 236 318 l 535 318 l 535 214 q 488 128 535 161 q 367 94 440 94 m 199 986 l 199 872 l 601 872 l 601 986 l 199 986 "},"ą":{"ha":833,"x_min":83,"x_max":813,"o":"m 776 0 l 776 119 l 686 119 l 686 479 q 608 668 686 603 q 394 733 531 733 q 208 691 281 733 q 106 590 136 649 l 196 517 q 268 588 225 561 q 381 615 311 615 q 535 469 535 615 l 535 414 l 397 414 q 160 359 238 414 q 83 200 83 304 q 149 41 83 99 q 324 -17 214 -17 q 463 19 408 -17 q 539 121 518 56 l 546 121 q 582 36 551 68 q 667 0 613 4 l 668 -4 q 547 -83 589 -42 q 506 -176 506 -124 q 518 -228 506 -207 q 553 -264 531 -250 q 603 -284 575 -278 q 665 -290 632 -290 q 760 -273 724 -290 q 813 -228 797 -256 l 749 -165 q 717 -192 735 -182 q 675 -203 699 -203 q 636 -192 653 -203 q 619 -153 619 -181 q 624 -129 619 -142 q 645 -99 629 -117 q 692 -57 661 -81 q 776 0 724 -33 m 400 318 l 535 318 l 535 214 q 488 128 535 161 q 367 94 440 94 q 271 119 306 94 q 236 192 236 143 l 236 219 q 400 318 236 318 "},"å":{"ha":833,"x_min":83,"x_max":776,"o":"m 683 0 l 776 0 l 776 119 l 686 119 l 686 479 q 608 668 686 603 q 394 733 531 733 q 208 691 281 733 q 106 590 136 649 l 196 517 q 268 588 225 561 q 381 615 311 615 q 535 469 535 615 l 535 414 l 397 414 q 160 359 238 414 q 83 200 83 304 q 149 41 83 99 q 324 -17 214 -17 q 463 19 408 -17 q 539 121 518 56 l 546 121 q 585 33 553 67 q 683 0 618 0 m 367 94 q 271 119 306 94 q 236 192 236 143 l 236 219 q 400 318 236 318 l 535 318 l 535 214 q 488 128 535 161 q 367 94 440 94 m 400 785 q 471 798 438 785 q 528 834 504 811 q 565 890 551 857 q 579 960 579 922 q 565 1031 579 999 q 528 1086 551 1063 q 471 1123 504 1110 q 400 1136 438 1136 q 329 1123 363 1136 q 272 1086 296 1110 q 235 1031 249 1063 q 221 960 221 999 q 235 890 221 922 q 272 834 249 857 q 329 798 296 811 q 400 785 363 785 m 400 868 q 324 942 324 868 l 324 979 q 400 1053 324 1053 q 476 979 476 1053 l 476 942 q 400 868 476 868 "},"ǻ":{"ha":833,"x_min":83,"x_max":776,"o":"m 683 0 l 776 0 l 776 119 l 686 119 l 686 479 q 608 668 686 603 q 394 733 531 733 q 208 691 281 733 q 106 590 136 649 l 196 517 q 268 588 225 561 q 381 615 311 615 q 535 469 535 615 l 535 414 l 397 414 q 160 359 238 414 q 83 200 83 304 q 149 41 83 99 q 324 -17 214 -17 q 463 19 408 -17 q 539 121 518 56 l 546 121 q 585 33 553 67 q 683 0 618 0 m 367 94 q 271 119 306 94 q 236 192 236 143 l 236 219 q 400 318 236 318 l 535 318 l 535 214 q 488 128 535 161 q 367 94 440 94 m 404 1126 l 568 1265 l 476 1342 l 340 1181 l 404 1126 m 400 779 q 471 791 438 779 q 529 824 504 803 q 568 876 554 846 q 582 942 582 906 q 568 1009 582 979 q 529 1060 554 1039 q 471 1094 504 1082 q 400 1106 438 1106 q 329 1094 363 1106 q 271 1060 296 1082 q 232 1009 246 1039 q 218 942 218 979 q 232 876 218 906 q 271 824 246 846 q 329 791 296 803 q 400 779 363 779 m 400 860 q 342 877 363 860 q 321 931 321 894 l 321 954 q 342 1008 321 990 q 400 1025 363 1025 q 458 1008 438 1025 q 479 954 479 990 l 479 931 q 458 877 479 894 q 400 860 438 860 "},"ã":{"ha":833,"x_min":83,"x_max":776,"o":"m 683 0 l 776 0 l 776 119 l 686 119 l 686 479 q 608 668 686 603 q 394 733 531 733 q 208 691 281 733 q 106 590 136 649 l 196 517 q 268 588 225 561 q 381 615 311 615 q 535 469 535 615 l 535 414 l 397 414 q 160 359 238 414 q 83 200 83 304 q 149 41 83 99 q 324 -17 214 -17 q 463 19 408 -17 q 539 121 518 56 l 546 121 q 585 33 553 67 q 683 0 618 0 m 367 94 q 271 119 306 94 q 236 192 236 143 l 236 219 q 400 318 236 318 l 535 318 l 535 214 q 488 128 535 161 q 367 94 440 94 m 503 839 q 590 863 554 839 q 646 918 625 886 l 589 990 q 550 963 568 972 q 508 954 532 954 q 462 963 486 954 q 406 986 438 971 q 357 1008 382 997 q 297 1018 332 1018 q 210 994 246 1018 q 154 939 175 971 l 211 867 q 250 894 232 885 q 292 903 268 903 q 338 894 314 903 q 394 871 363 886 q 443 849 418 860 q 503 839 468 839 "},"ắ":{"ha":833,"x_min":83,"x_max":776,"o":"m 683 0 l 776 0 l 776 119 l 686 119 l 686 479 q 608 668 686 603 q 394 733 531 733 q 208 691 281 733 q 106 590 136 649 l 196 517 q 268 588 225 561 q 381 615 311 615 q 535 469 535 615 l 535 414 l 397 414 q 160 359 238 414 q 83 200 83 304 q 149 41 83 99 q 324 -17 214 -17 q 463 19 408 -17 q 539 121 518 56 l 546 121 q 585 33 553 67 q 683 0 618 0 m 367 94 q 271 119 306 94 q 236 192 236 143 l 236 219 q 400 318 236 318 l 535 318 l 535 214 q 488 128 535 161 q 367 94 440 94 m 397 800 q 497 818 456 800 q 569 865 539 836 q 617 928 599 893 q 649 999 636 964 l 567 1044 l 538 1003 q 472 930 501 950 q 397 910 442 910 q 323 930 353 910 q 257 1003 293 950 l 228 1044 l 146 999 q 177 928 158 964 q 226 865 196 893 q 297 818 256 836 q 397 800 339 800 m 414 993 l 578 1224 l 454 1285 l 328 1033 l 414 993 "},"ặ":{"ha":833,"x_min":83,"x_max":776,"o":"m 683 0 l 776 0 l 776 119 l 686 119 l 686 479 q 608 668 686 603 q 394 733 531 733 q 208 691 281 733 q 106 590 136 649 l 196 517 q 268 588 225 561 q 381 615 311 615 q 535 469 535 615 l 535 414 l 397 414 q 160 359 238 414 q 83 200 83 304 q 149 41 83 99 q 324 -17 214 -17 q 463 19 408 -17 q 539 121 518 56 l 546 121 q 585 33 553 67 q 683 0 618 0 m 367 94 q 271 119 306 94 q 236 192 236 143 l 236 219 q 400 318 236 318 l 535 318 l 535 214 q 488 128 535 161 q 367 94 440 94 m 400 813 q 499 834 458 813 q 568 888 540 856 q 614 960 596 921 q 643 1032 632 999 l 553 1075 l 524 1029 q 467 951 492 978 q 400 924 443 924 q 362 931 378 924 q 333 951 346 938 q 306 984 319 964 q 276 1029 293 1004 l 247 1075 l 157 1032 q 185 960 168 999 q 231 888 203 921 q 301 834 260 856 q 400 813 342 813 m 397 -257 q 469 -236 449 -257 q 490 -183 490 -215 l 490 -157 q 469 -104 490 -125 q 397 -83 449 -83 q 325 -104 346 -83 q 304 -157 304 -125 l 304 -183 q 325 -236 304 -215 q 397 -257 346 -257 "},"ằ":{"ha":833,"x_min":83,"x_max":776,"o":"m 683 0 l 776 0 l 776 119 l 686 119 l 686 479 q 608 668 686 603 q 394 733 531 733 q 208 691 281 733 q 106 590 136 649 l 196 517 q 268 588 225 561 q 381 615 311 615 q 535 469 535 615 l 535 414 l 397 414 q 160 359 238 414 q 83 200 83 304 q 149 41 83 99 q 324 -17 214 -17 q 463 19 408 -17 q 539 121 518 56 l 546 121 q 585 33 553 67 q 683 0 618 0 m 367 94 q 271 119 306 94 q 236 192 236 143 l 236 219 q 400 318 236 318 l 535 318 l 535 214 q 488 128 535 161 q 367 94 440 94 m 397 800 q 497 818 456 800 q 569 865 539 836 q 617 928 599 893 q 649 999 636 964 l 567 1044 l 538 1003 q 472 930 501 950 q 397 910 442 910 q 323 930 353 910 q 257 1003 293 950 l 228 1044 l 146 999 q 177 928 158 964 q 226 865 196 893 q 297 818 256 836 q 397 800 339 800 m 217 1224 l 381 993 l 467 1033 l 340 1285 l 217 1224 "},"ẳ":{"ha":833,"x_min":83,"x_max":776,"o":"m 683 0 l 776 0 l 776 119 l 686 119 l 686 479 q 608 668 686 603 q 394 733 531 733 q 208 691 281 733 q 106 590 136 649 l 196 517 q 268 588 225 561 q 381 615 311 615 q 535 469 535 615 l 535 414 l 397 414 q 160 359 238 414 q 83 200 83 304 q 149 41 83 99 q 324 -17 214 -17 q 463 19 408 -17 q 539 121 518 56 l 546 121 q 585 33 553 67 q 683 0 618 0 m 367 94 q 271 119 306 94 q 236 192 236 143 l 236 219 q 400 318 236 318 l 535 318 l 535 214 q 488 128 535 161 q 367 94 440 94 m 397 800 q 497 818 456 800 q 569 865 539 836 q 617 928 599 893 q 649 999 636 964 l 567 1044 l 538 1003 q 472 930 501 950 q 397 910 442 910 q 323 930 353 910 q 257 1003 293 950 l 228 1044 l 146 999 q 177 928 158 964 q 226 865 196 893 q 297 818 256 836 q 397 800 339 800 m 253 1267 l 253 1158 l 407 1158 l 335 1018 l 411 981 l 446 1024 q 501 1106 479 1065 q 522 1181 522 1146 q 497 1241 522 1215 q 408 1267 472 1267 l 253 1267 "},"ẵ":{"ha":833,"x_min":83,"x_max":776,"o":"m 683 0 l 776 0 l 776 119 l 686 119 l 686 479 q 608 668 686 603 q 394 733 531 733 q 208 691 281 733 q 106 590 136 649 l 196 517 q 268 588 225 561 q 381 615 311 615 q 535 469 535 615 l 535 414 l 397 414 q 160 359 238 414 q 83 200 83 304 q 149 41 83 99 q 324 -17 214 -17 q 463 19 408 -17 q 539 121 518 56 l 546 121 q 585 33 553 67 q 683 0 618 0 m 367 94 q 271 119 306 94 q 236 192 236 143 l 236 219 q 400 318 236 318 l 535 318 l 535 214 q 488 128 535 161 q 367 94 440 94 m 397 800 q 497 818 456 800 q 569 865 539 836 q 617 928 599 893 q 649 999 636 964 l 567 1044 l 538 1003 q 472 930 501 950 q 397 910 442 910 q 323 930 353 910 q 257 1003 293 950 l 228 1044 l 146 999 q 177 928 158 964 q 226 865 196 893 q 297 818 256 836 q 397 800 339 800 m 499 1074 q 585 1098 550 1074 q 642 1154 621 1122 l 588 1219 q 549 1192 567 1201 q 507 1183 531 1183 q 460 1192 485 1183 q 404 1215 436 1200 q 356 1238 381 1226 q 296 1249 331 1249 q 209 1224 244 1249 q 153 1168 174 1200 l 207 1103 q 246 1130 228 1121 q 288 1139 264 1139 q 334 1131 310 1139 q 390 1107 358 1122 q 439 1085 414 1096 q 499 1074 464 1074 "},"ấ":{"ha":833,"x_min":83,"x_max":786,"o":"m 683 0 l 776 0 l 776 119 l 686 119 l 686 479 q 608 668 686 603 q 394 733 531 733 q 208 691 281 733 q 106 590 136 649 l 196 517 q 268 588 225 561 q 381 615 311 615 q 535 469 535 615 l 535 414 l 397 414 q 160 359 238 414 q 83 200 83 304 q 149 41 83 99 q 324 -17 214 -17 q 463 19 408 -17 q 539 121 518 56 l 546 121 q 585 33 553 67 q 683 0 618 0 m 367 94 q 271 119 306 94 q 236 192 236 143 l 236 219 q 400 318 236 318 l 535 318 l 535 214 q 488 128 535 161 q 367 94 440 94 m 622 996 l 786 1226 l 663 1288 l 536 1038 l 622 996 m 465 1058 l 329 1058 l 157 857 l 229 796 l 396 951 l 563 796 l 638 857 l 465 1058 "},"ậ":{"ha":833,"x_min":83,"x_max":776,"o":"m 683 0 l 776 0 l 776 119 l 686 119 l 686 479 q 608 668 686 603 q 394 733 531 733 q 208 691 281 733 q 106 590 136 649 l 196 517 q 268 588 225 561 q 381 615 311 615 q 535 469 535 615 l 535 414 l 397 414 q 160 359 238 414 q 83 200 83 304 q 149 41 83 99 q 324 -17 214 -17 q 463 19 408 -17 q 539 121 518 56 l 546 121 q 585 33 553 67 q 683 0 618 0 m 367 94 q 271 119 306 94 q 236 192 236 143 l 236 219 q 400 318 236 318 l 535 318 l 535 214 q 488 128 535 161 q 367 94 440 94 m 476 1075 l 324 1075 l 157 867 l 233 808 l 399 969 l 563 808 l 643 867 l 476 1075 m 397 -257 q 469 -236 449 -257 q 490 -183 490 -215 l 490 -157 q 469 -104 490 -125 q 397 -83 449 -83 q 325 -104 346 -83 q 304 -157 304 -125 l 304 -183 q 325 -236 304 -215 q 397 -257 346 -257 "},"ầ":{"ha":833,"x_min":8,"x_max":776,"o":"m 683 0 l 776 0 l 776 119 l 686 119 l 686 479 q 608 668 686 603 q 394 733 531 733 q 208 691 281 733 q 106 590 136 649 l 196 517 q 268 588 225 561 q 381 615 311 615 q 535 469 535 615 l 535 414 l 397 414 q 160 359 238 414 q 83 200 83 304 q 149 41 83 99 q 324 -17 214 -17 q 463 19 408 -17 q 539 121 518 56 l 546 121 q 585 33 553 67 q 683 0 618 0 m 367 94 q 271 119 306 94 q 236 192 236 143 l 236 219 q 400 318 236 318 l 535 318 l 535 214 q 488 128 535 161 q 367 94 440 94 m 8 1226 l 172 996 l 258 1038 l 132 1288 l 8 1226 m 465 1058 l 329 1058 l 157 857 l 229 796 l 396 951 l 563 796 l 638 857 l 465 1058 "},"ẩ":{"ha":833,"x_min":83,"x_max":776,"o":"m 683 0 l 776 0 l 776 119 l 686 119 l 686 479 q 608 668 686 603 q 394 733 531 733 q 208 691 281 733 q 106 590 136 649 l 196 517 q 268 588 225 561 q 381 615 311 615 q 535 469 535 615 l 535 414 l 397 414 q 160 359 238 414 q 83 200 83 304 q 149 41 83 99 q 324 -17 214 -17 q 463 19 408 -17 q 539 121 518 56 l 546 121 q 585 33 553 67 q 683 0 618 0 m 367 94 q 271 119 306 94 q 236 192 236 143 l 236 219 q 400 318 236 318 l 535 318 l 535 214 q 488 128 535 161 q 367 94 440 94 m 463 1271 l 463 1163 l 626 1163 l 554 1022 l 631 983 l 665 1026 q 720 1108 699 1068 q 742 1183 742 1149 q 717 1245 742 1219 q 628 1271 692 1271 l 463 1271 m 465 1058 l 329 1058 l 157 857 l 229 796 l 396 951 l 563 796 l 638 857 l 465 1058 "},"ẫ":{"ha":833,"x_min":83,"x_max":776,"o":"m 683 0 l 776 0 l 776 119 l 686 119 l 686 479 q 608 668 686 603 q 394 733 531 733 q 208 691 281 733 q 106 590 136 649 l 196 517 q 268 588 225 561 q 381 615 311 615 q 535 469 535 615 l 535 414 l 397 414 q 160 359 238 414 q 83 200 83 304 q 149 41 83 99 q 324 -17 214 -17 q 463 19 408 -17 q 539 121 518 56 l 546 121 q 585 33 553 67 q 683 0 618 0 m 367 94 q 271 119 306 94 q 236 192 236 143 l 236 219 q 400 318 236 318 l 535 318 l 535 214 q 488 128 535 161 q 367 94 440 94 m 296 1263 q 209 1238 244 1263 q 153 1182 174 1214 l 207 1117 q 246 1144 228 1135 q 288 1153 264 1153 q 334 1144 310 1153 q 390 1121 358 1136 q 439 1099 414 1110 q 499 1088 464 1088 q 585 1112 550 1088 q 642 1168 621 1136 l 588 1233 q 549 1206 567 1215 q 507 1197 531 1197 q 460 1206 485 1197 q 404 1229 436 1214 q 356 1251 381 1240 q 296 1263 331 1263 m 465 1043 l 329 1043 l 157 857 l 229 796 l 396 940 l 563 796 l 638 857 l 465 1043 "},"æ":{"ha":833,"x_min":10,"x_max":810,"o":"m 193 -17 q 306 22 260 -17 q 367 143 351 60 l 372 143 q 455 24 400 64 q 581 -17 510 -17 q 663 -1 626 -17 q 726 40 699 14 q 771 98 753 65 q 800 167 789 131 l 696 204 q 655 126 681 160 q 582 92 629 92 q 493 148 524 92 q 463 296 463 204 l 463 325 l 810 325 l 810 408 q 751 649 810 564 q 585 733 693 733 q 487 709 531 733 q 415 628 443 685 l 410 628 q 343 706 386 679 q 238 733 300 733 q 101 689 154 733 q 25 574 49 644 l 122 528 q 164 603 139 575 q 235 631 189 631 q 309 598 283 631 q 335 492 335 565 l 335 415 l 260 415 q 74 360 138 415 q 10 193 10 304 q 63 37 10 90 q 193 -17 115 -17 m 224 86 q 158 114 178 86 q 138 190 138 142 l 138 214 q 173 299 138 272 q 275 325 208 325 l 335 325 l 335 229 q 308 126 335 167 q 224 86 282 86 m 578 633 q 663 591 633 633 q 692 469 692 549 l 692 415 l 463 415 l 463 469 q 492 591 463 549 q 578 633 521 633 "},"ǽ":{"ha":833,"x_min":10,"x_max":810,"o":"m 432 804 l 596 1035 l 465 1099 l 339 849 l 432 804 m 193 -17 q 306 22 260 -17 q 367 143 351 60 l 372 143 q 455 24 400 64 q 581 -17 510 -17 q 663 -1 626 -17 q 726 40 699 14 q 771 98 753 65 q 800 167 789 131 l 696 204 q 655 126 681 160 q 582 92 629 92 q 493 148 524 92 q 463 296 463 204 l 463 325 l 810 325 l 810 408 q 751 649 810 564 q 585 733 693 733 q 487 709 531 733 q 415 628 443 685 l 410 628 q 343 706 386 679 q 238 733 300 733 q 101 689 154 733 q 25 574 49 644 l 122 528 q 164 603 139 575 q 235 631 189 631 q 309 598 283 631 q 335 492 335 565 l 335 415 l 260 415 q 74 360 138 415 q 10 193 10 304 q 63 37 10 90 q 193 -17 115 -17 m 224 86 q 158 114 178 86 q 138 190 138 142 l 138 214 q 173 299 138 272 q 275 325 208 325 l 335 325 l 335 229 q 308 126 335 167 q 224 86 282 86 m 578 633 q 663 591 633 633 q 692 469 692 549 l 692 415 l 463 415 l 463 469 q 492 591 463 549 q 578 633 521 633 "},"ć":{"ha":833,"x_min":103,"x_max":732,"o":"m 450 797 l 614 1028 l 483 1092 l 357 842 l 450 797 m 443 -17 q 626 31 556 -17 q 732 154 697 79 l 621 222 q 553 139 596 169 q 444 108 511 108 q 308 161 356 108 q 261 299 261 214 l 261 418 q 308 556 261 504 q 442 608 356 608 q 544 579 504 608 q 603 500 583 550 l 721 564 q 620 686 688 639 q 442 733 553 733 q 299 707 363 733 q 192 632 236 681 q 126 514 149 583 q 103 358 103 444 q 126 203 103 272 q 192 85 149 133 q 299 10 236 36 q 443 -17 363 -17 "},"č":{"ha":833,"x_min":103,"x_max":732,"o":"m 358 819 l 511 819 l 678 1028 l 603 1086 l 438 925 l 272 1086 l 192 1028 l 358 819 m 443 -17 q 626 31 556 -17 q 732 154 697 79 l 621 222 q 553 139 596 169 q 444 108 511 108 q 308 161 356 108 q 261 299 261 214 l 261 418 q 308 556 261 504 q 442 608 356 608 q 544 579 504 608 q 603 500 583 550 l 721 564 q 620 686 688 639 q 442 733 553 733 q 299 707 363 733 q 192 632 236 681 q 126 514 149 583 q 103 358 103 444 q 126 203 103 272 q 192 85 149 133 q 299 10 236 36 q 443 -17 363 -17 "},"ç":{"ha":833,"x_min":103,"x_max":732,"o":"m 442 733 q 299 707 363 733 q 192 632 236 681 q 126 514 149 583 q 103 358 103 444 q 175 107 103 206 q 378 -11 247 8 l 358 -106 l 393 -110 q 473 -133 454 -117 q 492 -165 492 -149 q 474 -196 492 -186 q 431 -206 457 -206 q 377 -194 399 -206 q 343 -167 356 -182 l 286 -232 q 338 -271 301 -251 q 438 -290 375 -290 q 501 -283 471 -290 q 553 -262 531 -276 q 590 -225 576 -247 q 604 -171 604 -203 q 576 -99 604 -122 q 507 -76 547 -76 q 477 -79 492 -76 q 447 -86 463 -82 l 442 -81 l 456 -17 q 631 33 564 -14 q 732 154 699 79 l 621 222 q 553 139 596 169 q 444 108 511 108 q 308 161 356 108 q 261 299 261 214 l 261 418 q 308 556 261 504 q 442 608 356 608 q 544 579 504 608 q 603 500 583 550 l 721 564 q 620 686 688 639 q 442 733 553 733 "},"ĉ":{"ha":833,"x_min":103,"x_max":732,"o":"m 511 1075 l 358 1075 l 192 867 l 268 808 l 433 969 l 597 808 l 678 867 l 511 1075 m 443 -17 q 626 31 556 -17 q 732 154 697 79 l 621 222 q 553 139 596 169 q 444 108 511 108 q 308 161 356 108 q 261 299 261 214 l 261 418 q 308 556 261 504 q 442 608 356 608 q 544 579 504 608 q 603 500 583 550 l 721 564 q 620 686 688 639 q 442 733 553 733 q 299 707 363 733 q 192 632 236 681 q 126 514 149 583 q 103 358 103 444 q 126 203 103 272 q 192 85 149 133 q 299 10 236 36 q 443 -17 363 -17 "},"ċ":{"ha":833,"x_min":103,"x_max":732,"o":"m 443 -17 q 626 31 556 -17 q 732 154 697 79 l 621 222 q 553 139 596 169 q 444 108 511 108 q 308 161 356 108 q 261 299 261 214 l 261 418 q 308 556 261 504 q 442 608 356 608 q 544 579 504 608 q 603 500 583 550 l 721 564 q 620 686 688 639 q 442 733 553 733 q 299 707 363 733 q 192 632 236 681 q 126 514 149 583 q 103 358 103 444 q 126 203 103 272 q 192 85 149 133 q 299 10 236 36 q 443 -17 363 -17 m 435 832 q 515 856 492 832 q 538 914 538 879 l 538 944 q 515 1003 538 979 q 435 1026 492 1026 q 355 1003 378 1026 q 332 944 332 979 l 332 914 q 355 856 332 879 q 435 832 378 832 "},"ď":{"ha":833,"x_min":51,"x_max":893,"o":"m 299 -17 q 415 19 369 -17 q 489 122 461 56 l 497 122 l 497 0 l 644 0 l 644 1028 l 497 1028 l 497 594 l 489 594 q 415 697 461 661 q 299 733 369 733 q 117 638 182 733 q 51 358 51 543 q 117 78 51 174 q 299 -17 182 -17 m 354 104 q 244 151 282 104 q 207 289 207 199 l 207 428 q 244 565 207 518 q 354 613 282 613 q 455 579 413 613 q 497 479 497 546 l 497 238 q 455 138 497 171 q 354 104 413 104 m 735 1028 l 729 753 l 822 753 l 893 1028 l 735 1028 "},"đ":{"ha":833,"x_min":71,"x_max":807,"o":"m 572 122 l 572 0 l 724 0 l 724 828 l 807 828 l 807 942 l 724 942 l 724 1028 l 572 1028 l 572 942 l 367 942 l 367 828 l 572 828 l 572 594 l 564 594 q 479 697 532 660 q 347 733 426 733 q 146 639 221 733 q 71 358 71 544 q 146 78 71 172 q 347 -17 221 -17 q 479 20 426 -17 q 564 122 532 57 l 572 122 m 410 107 q 277 160 324 107 q 231 300 231 213 l 231 417 q 277 558 231 506 q 410 610 324 610 q 472 601 443 610 q 524 576 501 593 q 559 535 546 560 q 572 478 572 511 l 572 239 q 559 181 572 206 q 524 140 546 157 q 472 115 501 124 q 410 107 443 107 "},"ð":{"ha":833,"x_min":76,"x_max":757,"o":"m 651 975 l 592 1046 l 467 964 q 420 999 443 983 q 376 1028 397 1014 l 143 1028 q 253 964 201 997 q 353 892 306 931 l 232 813 l 292 742 l 425 829 q 528 709 483 774 q 600 568 572 644 l 592 564 q 504 660 558 622 q 367 697 450 697 q 249 672 301 697 q 157 601 196 647 q 97 491 118 556 q 76 346 76 426 q 100 195 76 263 q 167 81 124 128 q 275 9 211 35 q 421 -17 339 -17 q 560 7 497 -17 q 666 79 622 31 q 733 202 710 128 q 757 376 757 276 q 740 540 757 464 q 692 682 722 617 q 622 801 661 747 q 538 900 582 856 l 651 975 m 418 103 q 285 151 335 103 q 235 296 235 200 l 235 383 q 284 528 235 479 q 417 576 333 576 q 550 528 500 576 q 600 383 600 479 l 600 296 q 551 151 600 200 q 418 103 501 103 "},"é":{"ha":833,"x_min":83,"x_max":750,"o":"m 433 804 l 597 1035 l 467 1099 l 340 849 l 433 804 m 432 -17 q 617 26 543 -17 q 728 132 692 69 l 633 215 q 553 135 603 165 q 435 106 504 106 q 289 159 342 106 q 236 297 236 213 l 236 321 l 750 321 l 750 378 q 727 522 750 457 q 661 635 704 588 q 557 708 618 682 q 421 733 496 733 q 282 707 344 733 q 176 631 219 681 q 108 513 132 582 q 83 357 83 443 q 107 202 83 271 q 175 85 131 133 q 285 10 219 36 q 432 -17 350 -17 m 421 618 q 548 567 500 618 q 596 432 596 517 l 596 418 l 236 418 l 236 428 q 250 504 236 469 q 288 565 264 539 q 347 604 313 590 q 421 618 381 618 "},"ĕ":{"ha":833,"x_min":83,"x_max":750,"o":"m 432 -17 q 617 26 543 -17 q 728 132 692 69 l 633 215 q 553 135 603 165 q 435 106 504 106 q 289 159 342 106 q 236 297 236 213 l 236 321 l 750 321 l 750 378 q 727 522 750 457 q 661 635 704 588 q 557 708 618 682 q 421 733 496 733 q 282 707 344 733 q 176 631 219 681 q 108 513 132 582 q 83 357 83 443 q 107 202 83 271 q 175 85 131 133 q 285 10 219 36 q 432 -17 350 -17 m 421 618 q 548 567 500 618 q 596 432 596 517 l 596 418 l 236 418 l 236 428 q 250 504 236 469 q 288 565 264 539 q 347 604 313 590 q 421 618 381 618 m 418 813 q 517 834 476 813 q 586 888 558 856 q 632 960 614 921 q 661 1032 650 999 l 571 1075 l 542 1029 q 485 951 510 978 q 418 924 461 924 q 380 931 396 924 q 351 951 364 938 q 324 984 338 964 q 294 1029 311 1004 l 265 1075 l 175 1032 q 203 960 186 999 q 249 888 221 921 q 319 834 278 856 q 418 813 360 813 "},"ě":{"ha":833,"x_min":83,"x_max":750,"o":"m 342 819 l 494 819 l 661 1028 l 586 1086 l 421 925 l 256 1086 l 175 1028 l 342 819 m 432 -17 q 617 26 543 -17 q 728 132 692 69 l 633 215 q 553 135 603 165 q 435 106 504 106 q 289 159 342 106 q 236 297 236 213 l 236 321 l 750 321 l 750 378 q 727 522 750 457 q 661 635 704 588 q 557 708 618 682 q 421 733 496 733 q 282 707 344 733 q 176 631 219 681 q 108 513 132 582 q 83 357 83 443 q 107 202 83 271 q 175 85 131 133 q 285 10 219 36 q 432 -17 350 -17 m 421 618 q 548 567 500 618 q 596 432 596 517 l 596 418 l 236 418 l 236 428 q 250 504 236 469 q 288 565 264 539 q 347 604 313 590 q 421 618 381 618 "},"ê":{"ha":833,"x_min":83,"x_max":750,"o":"m 494 1075 l 342 1075 l 175 867 l 251 808 l 417 969 l 581 808 l 661 867 l 494 1075 m 432 -17 q 617 26 543 -17 q 728 132 692 69 l 633 215 q 553 135 603 165 q 435 106 504 106 q 289 159 342 106 q 236 297 236 213 l 236 321 l 750 321 l 750 378 q 727 522 750 457 q 661 635 704 588 q 557 708 618 682 q 421 733 496 733 q 282 707 344 733 q 176 631 219 681 q 108 513 132 582 q 83 357 83 443 q 107 202 83 271 q 175 85 131 133 q 285 10 219 36 q 432 -17 350 -17 m 421 618 q 548 567 500 618 q 596 432 596 517 l 596 418 l 236 418 l 236 428 q 250 504 236 469 q 288 565 264 539 q 347 604 313 590 q 421 618 381 618 "},"ë":{"ha":833,"x_min":83,"x_max":750,"o":"m 279 843 q 351 864 331 843 q 372 917 372 885 l 372 943 q 351 996 372 975 q 279 1017 331 1017 q 207 996 228 1017 q 186 943 186 975 l 186 917 q 207 864 186 885 q 279 843 228 843 m 557 843 q 629 864 608 843 q 650 917 650 885 l 650 943 q 629 996 650 975 q 557 1017 608 1017 q 485 996 506 1017 q 464 943 464 975 l 464 917 q 485 864 464 885 q 557 843 506 843 m 432 -17 q 617 26 543 -17 q 728 132 692 69 l 633 215 q 553 135 603 165 q 435 106 504 106 q 289 159 342 106 q 236 297 236 213 l 236 321 l 750 321 l 750 378 q 727 522 750 457 q 661 635 704 588 q 557 708 618 682 q 421 733 496 733 q 282 707 344 733 q 176 631 219 681 q 108 513 132 582 q 83 357 83 443 q 107 202 83 271 q 175 85 131 133 q 285 10 219 36 q 432 -17 350 -17 m 421 618 q 548 567 500 618 q 596 432 596 517 l 596 418 l 236 418 l 236 428 q 250 504 236 469 q 288 565 264 539 q 347 604 313 590 q 421 618 381 618 "},"ė":{"ha":833,"x_min":83,"x_max":750,"o":"m 432 -17 q 617 26 543 -17 q 728 132 692 69 l 633 215 q 553 135 603 165 q 435 106 504 106 q 289 159 342 106 q 236 297 236 213 l 236 321 l 750 321 l 750 378 q 727 522 750 457 q 661 635 704 588 q 557 708 618 682 q 421 733 496 733 q 282 707 344 733 q 176 631 219 681 q 108 513 132 582 q 83 357 83 443 q 107 202 83 271 q 175 85 131 133 q 285 10 219 36 q 432 -17 350 -17 m 421 618 q 548 567 500 618 q 596 432 596 517 l 596 418 l 236 418 l 236 428 q 250 504 236 469 q 288 565 264 539 q 347 604 313 590 q 421 618 381 618 m 418 832 q 498 856 475 832 q 521 914 521 879 l 521 944 q 498 1003 521 979 q 418 1026 475 1026 q 338 1003 361 1026 q 315 944 315 979 l 315 914 q 338 856 315 879 q 418 832 361 832 "},"ẹ":{"ha":833,"x_min":83,"x_max":750,"o":"m 432 -17 q 617 26 543 -17 q 728 132 692 69 l 633 215 q 553 135 603 165 q 435 106 504 106 q 289 159 342 106 q 236 297 236 213 l 236 321 l 750 321 l 750 378 q 727 522 750 457 q 661 635 704 588 q 557 708 618 682 q 421 733 496 733 q 282 707 344 733 q 176 631 219 681 q 108 513 132 582 q 83 357 83 443 q 107 202 83 271 q 175 85 131 133 q 285 10 219 36 q 432 -17 350 -17 m 421 618 q 548 567 500 618 q 596 432 596 517 l 596 418 l 236 418 l 236 428 q 250 504 236 469 q 288 565 264 539 q 347 604 313 590 q 421 618 381 618 m 426 -257 q 499 -236 478 -257 q 519 -183 519 -215 l 519 -157 q 499 -104 519 -125 q 426 -83 478 -83 q 354 -104 375 -83 q 333 -157 333 -125 l 333 -183 q 354 -236 333 -215 q 426 -257 375 -257 "},"è":{"ha":833,"x_min":83,"x_max":750,"o":"m 432 -17 q 617 26 543 -17 q 728 132 692 69 l 633 215 q 553 135 603 165 q 435 106 504 106 q 289 159 342 106 q 236 297 236 213 l 236 321 l 750 321 l 750 378 q 727 522 750 457 q 661 635 704 588 q 557 708 618 682 q 421 733 496 733 q 282 707 344 733 q 176 631 219 681 q 108 513 132 582 q 83 357 83 443 q 107 202 83 271 q 175 85 131 133 q 285 10 219 36 q 432 -17 350 -17 m 421 618 q 548 567 500 618 q 596 432 596 517 l 596 418 l 236 418 l 236 428 q 250 504 236 469 q 288 565 264 539 q 347 604 313 590 q 421 618 381 618 m 239 1035 l 403 804 l 496 849 l 369 1099 l 239 1035 "},"ẻ":{"ha":833,"x_min":83,"x_max":750,"o":"m 432 -17 q 617 26 543 -17 q 728 132 692 69 l 633 215 q 553 135 603 165 q 435 106 504 106 q 289 159 342 106 q 236 297 236 213 l 236 321 l 750 321 l 750 378 q 727 522 750 457 q 661 635 704 588 q 557 708 618 682 q 421 733 496 733 q 282 707 344 733 q 176 631 219 681 q 108 513 132 582 q 83 357 83 443 q 107 202 83 271 q 175 85 131 133 q 285 10 219 36 q 432 -17 350 -17 m 421 618 q 548 567 500 618 q 596 432 596 517 l 596 418 l 236 418 l 236 428 q 250 504 236 469 q 288 565 264 539 q 347 604 313 590 q 421 618 381 618 m 281 1079 l 281 968 l 447 968 l 376 831 l 457 792 l 493 836 q 545 917 525 876 q 565 992 565 957 q 540 1053 565 1028 q 451 1079 515 1079 l 281 1079 "},"ē":{"ha":833,"x_min":83,"x_max":750,"o":"m 432 -17 q 617 26 543 -17 q 728 132 692 69 l 633 215 q 553 135 603 165 q 435 106 504 106 q 289 159 342 106 q 236 297 236 213 l 236 321 l 750 321 l 750 378 q 727 522 750 457 q 661 635 704 588 q 557 708 618 682 q 421 733 496 733 q 282 707 344 733 q 176 631 219 681 q 108 513 132 582 q 83 357 83 443 q 107 202 83 271 q 175 85 131 133 q 285 10 219 36 q 432 -17 350 -17 m 421 618 q 548 567 500 618 q 596 432 596 517 l 596 418 l 236 418 l 236 428 q 250 504 236 469 q 288 565 264 539 q 347 604 313 590 q 421 618 381 618 m 217 986 l 217 872 l 619 872 l 619 986 l 217 986 "},"ę":{"ha":833,"x_min":83,"x_max":750,"o":"m 501 -290 q 597 -273 560 -290 q 649 -228 633 -256 l 585 -165 q 553 -192 571 -182 q 511 -203 535 -203 q 473 -192 490 -203 q 456 -153 456 -181 q 462 -125 456 -139 q 483 -96 468 -111 q 521 -61 497 -81 q 578 -14 544 -42 q 667 61 629 26 q 728 132 706 96 l 633 215 q 553 135 603 165 q 435 106 504 106 q 289 159 342 106 q 236 297 236 213 l 236 321 l 750 321 l 750 378 q 727 522 750 457 q 661 635 704 588 q 557 708 618 682 q 421 733 496 733 q 282 707 344 733 q 176 631 219 681 q 108 513 132 582 q 83 357 83 443 q 108 201 83 269 q 178 83 133 132 q 285 9 222 35 q 425 -17 349 -17 q 468 -14 449 -17 q 500 -7 488 -11 l 503 -12 q 383 -85 425 -47 q 342 -176 342 -124 q 354 -228 342 -207 q 389 -264 367 -250 q 440 -284 411 -278 q 501 -290 468 -290 m 596 418 l 236 418 l 236 428 q 250 504 236 469 q 288 565 264 539 q 347 604 313 590 q 421 618 381 618 q 548 567 500 618 q 596 432 596 517 l 596 418 "},"ẽ":{"ha":833,"x_min":83,"x_max":750,"o":"m 432 -17 q 617 26 543 -17 q 728 132 692 69 l 633 215 q 553 135 603 165 q 435 106 504 106 q 289 159 342 106 q 236 297 236 213 l 236 321 l 750 321 l 750 378 q 727 522 750 457 q 661 635 704 588 q 557 708 618 682 q 421 733 496 733 q 282 707 344 733 q 176 631 219 681 q 108 513 132 582 q 83 357 83 443 q 107 202 83 271 q 175 85 131 133 q 285 10 219 36 q 432 -17 350 -17 m 421 618 q 548 567 500 618 q 596 432 596 517 l 596 418 l 236 418 l 236 428 q 250 504 236 469 q 288 565 264 539 q 347 604 313 590 q 421 618 381 618 m 521 839 q 608 863 572 839 q 664 918 643 886 l 607 990 q 568 963 586 972 q 526 954 550 954 q 480 963 504 954 q 424 986 456 971 q 375 1008 400 997 q 315 1018 350 1018 q 228 994 264 1018 q 172 939 193 971 l 229 867 q 268 894 250 885 q 310 903 286 903 q 356 894 332 903 q 413 871 381 886 q 461 849 436 860 q 521 839 486 839 "},"ế":{"ha":833,"x_min":83,"x_max":807,"o":"m 643 996 l 807 1226 l 683 1288 l 557 1038 l 643 996 m 486 1058 l 350 1058 l 178 857 l 250 796 l 417 951 l 583 796 l 658 857 l 486 1058 m 432 -17 q 617 26 543 -17 q 728 132 692 69 l 633 215 q 553 135 603 165 q 435 106 504 106 q 289 159 342 106 q 236 297 236 213 l 236 321 l 750 321 l 750 378 q 727 522 750 457 q 661 635 704 588 q 557 708 618 682 q 421 733 496 733 q 282 707 344 733 q 176 631 219 681 q 108 513 132 582 q 83 357 83 443 q 107 202 83 271 q 175 85 131 133 q 285 10 219 36 q 432 -17 350 -17 m 421 618 q 548 567 500 618 q 596 432 596 517 l 596 418 l 236 418 l 236 428 q 250 504 236 469 q 288 565 264 539 q 347 604 313 590 q 421 618 381 618 "},"ệ":{"ha":833,"x_min":83,"x_max":750,"o":"m 494 1075 l 342 1075 l 175 867 l 251 808 l 417 969 l 581 808 l 661 867 l 494 1075 m 432 -17 q 617 26 543 -17 q 728 132 692 69 l 633 215 q 553 135 603 165 q 435 106 504 106 q 289 159 342 106 q 236 297 236 213 l 236 321 l 750 321 l 750 378 q 727 522 750 457 q 661 635 704 588 q 557 708 618 682 q 421 733 496 733 q 282 707 344 733 q 176 631 219 681 q 108 513 132 582 q 83 357 83 443 q 107 202 83 271 q 175 85 131 133 q 285 10 219 36 q 432 -17 350 -17 m 421 618 q 548 567 500 618 q 596 432 596 517 l 596 418 l 236 418 l 236 428 q 250 504 236 469 q 288 565 264 539 q 347 604 313 590 q 421 618 381 618 m 426 -257 q 499 -236 478 -257 q 519 -183 519 -215 l 519 -157 q 499 -104 519 -125 q 426 -83 478 -83 q 354 -104 375 -83 q 333 -157 333 -125 l 333 -183 q 354 -236 333 -215 q 426 -257 375 -257 "},"ề":{"ha":833,"x_min":29,"x_max":750,"o":"m 29 1226 l 193 996 l 279 1038 l 153 1288 l 29 1226 m 486 1058 l 350 1058 l 178 857 l 250 796 l 417 951 l 583 796 l 658 857 l 486 1058 m 432 -17 q 617 26 543 -17 q 728 132 692 69 l 633 215 q 553 135 603 165 q 435 106 504 106 q 289 159 342 106 q 236 297 236 213 l 236 321 l 750 321 l 750 378 q 727 522 750 457 q 661 635 704 588 q 557 708 618 682 q 421 733 496 733 q 282 707 344 733 q 176 631 219 681 q 108 513 132 582 q 83 357 83 443 q 107 202 83 271 q 175 85 131 133 q 285 10 219 36 q 432 -17 350 -17 m 421 618 q 548 567 500 618 q 596 432 596 517 l 596 418 l 236 418 l 236 428 q 250 504 236 469 q 288 565 264 539 q 347 604 313 590 q 421 618 381 618 "},"ể":{"ha":833,"x_min":83,"x_max":763,"o":"m 432 -17 q 617 26 543 -17 q 728 132 692 69 l 633 215 q 553 135 603 165 q 435 106 504 106 q 289 159 342 106 q 236 297 236 213 l 236 321 l 750 321 l 750 378 q 727 522 750 457 q 661 635 704 588 q 557 708 618 682 q 421 733 496 733 q 282 707 344 733 q 176 631 219 681 q 108 513 132 582 q 83 357 83 443 q 107 202 83 271 q 175 85 131 133 q 285 10 219 36 q 432 -17 350 -17 m 421 618 q 548 567 500 618 q 596 432 596 517 l 596 418 l 236 418 l 236 428 q 250 504 236 469 q 288 565 264 539 q 347 604 313 590 q 421 618 381 618 m 483 1271 l 483 1163 l 647 1163 l 575 1022 l 651 983 l 686 1026 q 741 1108 719 1068 q 763 1183 763 1149 q 738 1245 763 1219 q 649 1271 713 1271 l 483 1271 m 486 1058 l 350 1058 l 178 857 l 250 796 l 417 951 l 583 796 l 658 857 l 486 1058 "},"ễ":{"ha":833,"x_min":83,"x_max":750,"o":"m 432 -17 q 617 26 543 -17 q 728 132 692 69 l 633 215 q 553 135 603 165 q 435 106 504 106 q 289 159 342 106 q 236 297 236 213 l 236 321 l 750 321 l 750 378 q 727 522 750 457 q 661 635 704 588 q 557 708 618 682 q 421 733 496 733 q 282 707 344 733 q 176 631 219 681 q 108 513 132 582 q 83 357 83 443 q 107 202 83 271 q 175 85 131 133 q 285 10 219 36 q 432 -17 350 -17 m 421 618 q 548 567 500 618 q 596 432 596 517 l 596 418 l 236 418 l 236 428 q 250 504 236 469 q 288 565 264 539 q 347 604 313 590 q 421 618 381 618 m 317 1263 q 230 1238 265 1263 q 174 1182 194 1214 l 228 1117 q 267 1144 249 1135 q 308 1153 285 1153 q 355 1144 331 1153 q 411 1121 379 1136 q 460 1099 435 1110 q 519 1088 485 1088 q 606 1112 571 1088 q 663 1168 642 1136 l 608 1233 q 569 1206 588 1215 q 528 1197 551 1197 q 481 1206 506 1197 q 425 1229 457 1214 q 376 1251 401 1240 q 317 1263 351 1263 m 486 1043 l 350 1043 l 178 857 l 250 796 l 417 940 l 583 796 l 658 857 l 486 1043 "},"ə":{"ha":833,"x_min":83,"x_max":750,"o":"m 597 396 l 83 396 l 83 339 q 106 194 83 260 q 172 82 129 129 q 276 9 215 35 q 413 -17 338 -17 q 551 10 489 -17 q 658 85 614 36 q 726 203 701 133 q 750 360 750 274 q 726 514 750 444 q 658 632 703 583 q 548 707 613 681 q 401 733 483 733 q 216 690 290 733 q 106 585 142 647 l 200 501 q 280 581 231 551 q 399 611 329 611 q 544 558 492 611 q 597 419 597 504 l 597 396 m 238 285 l 238 299 l 597 299 l 597 289 q 583 213 597 247 q 545 152 569 178 q 487 113 521 126 q 413 99 453 99 q 285 149 333 99 q 238 285 238 200 "},"ğ":{"ha":833,"x_min":82,"x_max":792,"o":"m 415 -294 q 699 -242 606 -294 q 792 -78 792 -189 q 728 66 792 11 q 519 121 664 121 l 358 121 q 279 129 311 121 q 247 171 247 138 q 272 217 247 200 q 322 240 297 233 q 411 232 364 232 q 531 249 478 232 q 623 299 585 267 q 682 378 661 332 q 703 482 703 425 q 694 550 703 518 q 663 608 685 582 l 788 608 l 788 717 l 528 717 q 411 733 475 733 q 291 715 344 733 q 199 665 238 697 q 140 585 161 632 q 119 482 119 539 q 156 349 119 404 q 257 263 192 293 l 257 256 q 164 215 200 242 q 128 135 128 188 q 149 69 128 94 q 207 31 171 44 l 207 17 q 115 -31 147 1 q 82 -122 82 -64 q 99 -194 82 -162 q 156 -249 117 -226 q 259 -283 196 -271 q 415 -294 322 -294 m 411 336 q 303 371 338 336 q 268 464 268 406 l 268 501 q 303 594 268 560 q 411 629 338 629 q 519 594 485 629 q 554 501 554 560 l 554 464 q 519 371 554 406 q 411 336 485 336 m 650 -87 q 605 -162 650 -136 q 474 -187 560 -187 l 361 -187 q 248 -158 282 -187 q 214 -89 214 -129 q 267 -8 214 -33 l 515 -8 q 621 -30 592 -8 q 650 -87 650 -51 m 417 813 q 516 834 475 813 q 585 888 557 856 q 631 960 613 921 q 660 1032 649 999 l 569 1075 l 540 1029 q 484 951 508 978 q 417 924 460 924 q 378 931 394 924 q 349 951 363 938 q 323 984 336 964 q 293 1029 310 1004 l 264 1075 l 174 1032 q 202 960 185 999 q 248 888 219 921 q 317 834 276 856 q 417 813 358 813 "},"ĝ":{"ha":833,"x_min":82,"x_max":792,"o":"m 493 1075 l 340 1075 l 174 867 l 250 808 l 415 969 l 579 808 l 660 867 l 493 1075 m 415 -294 q 699 -242 606 -294 q 792 -78 792 -189 q 728 66 792 11 q 519 121 664 121 l 358 121 q 279 129 311 121 q 247 171 247 138 q 272 217 247 200 q 322 240 297 233 q 411 232 364 232 q 531 249 478 232 q 623 299 585 267 q 682 378 661 332 q 703 482 703 425 q 694 550 703 518 q 663 608 685 582 l 788 608 l 788 717 l 528 717 q 411 733 475 733 q 291 715 344 733 q 199 665 238 697 q 140 585 161 632 q 119 482 119 539 q 156 349 119 404 q 257 263 192 293 l 257 256 q 164 215 200 242 q 128 135 128 188 q 149 69 128 94 q 207 31 171 44 l 207 17 q 115 -31 147 1 q 82 -122 82 -64 q 99 -194 82 -162 q 156 -249 117 -226 q 259 -283 196 -271 q 415 -294 322 -294 m 411 336 q 303 371 338 336 q 268 464 268 406 l 268 501 q 303 594 268 560 q 411 629 338 629 q 519 594 485 629 q 554 501 554 560 l 554 464 q 519 371 554 406 q 411 336 485 336 m 650 -87 q 605 -162 650 -136 q 474 -187 560 -187 l 361 -187 q 248 -158 282 -187 q 214 -89 214 -129 q 267 -8 214 -33 l 515 -8 q 621 -30 592 -8 q 650 -87 650 -51 "},"ģ":{"ha":833,"x_min":82,"x_max":792,"o":"m 792 -78 q 728 66 792 11 q 519 121 664 121 l 358 121 q 279 129 311 121 q 247 171 247 138 q 272 217 247 200 q 322 240 297 233 q 411 232 364 232 q 531 249 478 232 q 623 299 585 267 q 682 378 661 332 q 703 482 703 425 q 678 597 703 547 q 606 678 653 646 l 606 711 l 772 711 l 772 831 l 642 831 q 569 803 593 831 q 546 733 546 775 l 546 710 q 411 733 486 733 q 291 715 344 733 q 199 665 238 697 q 140 585 161 632 q 119 482 119 539 q 156 349 119 404 q 257 263 192 293 l 257 256 q 164 215 200 242 q 128 135 128 188 q 149 69 128 94 q 207 31 171 44 l 207 17 q 115 -31 147 1 q 82 -122 82 -64 q 99 -194 82 -162 q 156 -249 117 -226 q 259 -283 196 -271 q 415 -294 322 -294 q 699 -242 606 -294 q 792 -78 792 -189 m 650 -87 q 605 -162 650 -136 q 474 -187 560 -187 l 361 -187 q 248 -158 282 -187 q 214 -89 214 -129 q 267 -8 214 -33 l 515 -8 q 621 -30 592 -8 q 650 -87 650 -51 m 411 336 q 303 371 338 336 q 268 464 268 406 l 268 501 q 303 594 268 560 q 411 629 338 629 q 519 594 485 629 q 554 501 554 560 l 554 464 q 519 371 554 406 q 411 336 485 336 m 431 1089 l 319 811 l 499 811 l 532 1089 l 431 1089 "},"ġ":{"ha":833,"x_min":82,"x_max":792,"o":"m 792 -78 q 728 66 792 11 q 519 121 664 121 l 358 121 q 279 129 311 121 q 247 171 247 138 q 272 217 247 200 q 322 240 297 233 q 411 232 364 232 q 531 249 478 232 q 623 299 585 267 q 682 378 661 332 q 703 482 703 425 q 678 597 703 547 q 606 678 653 646 l 606 711 l 772 711 l 772 831 l 642 831 q 569 803 593 831 q 546 733 546 775 l 546 710 q 411 733 486 733 q 291 715 344 733 q 199 665 238 697 q 140 585 161 632 q 119 482 119 539 q 156 349 119 404 q 257 263 192 293 l 257 256 q 164 215 200 242 q 128 135 128 188 q 149 69 128 94 q 207 31 171 44 l 207 17 q 115 -31 147 1 q 82 -122 82 -64 q 99 -194 82 -162 q 156 -249 117 -226 q 259 -283 196 -271 q 415 -294 322 -294 q 699 -242 606 -294 q 792 -78 792 -189 m 650 -87 q 605 -162 650 -136 q 474 -187 560 -187 l 361 -187 q 248 -158 282 -187 q 214 -89 214 -129 q 267 -8 214 -33 l 515 -8 q 621 -30 592 -8 q 650 -87 650 -51 m 411 336 q 303 371 338 336 q 268 464 268 406 l 268 501 q 303 594 268 560 q 411 629 338 629 q 519 594 485 629 q 554 501 554 560 l 554 464 q 519 371 554 406 q 411 336 485 336 m 413 832 q 492 856 469 832 q 515 914 515 879 l 515 944 q 492 1003 515 979 q 413 1026 469 1026 q 333 1003 356 1026 q 310 944 310 979 l 310 914 q 333 856 310 879 q 413 832 356 832 "},"ħ":{"ha":833,"x_min":32,"x_max":724,"o":"m 117 0 l 268 0 l 268 486 q 281 540 268 517 q 317 579 294 564 q 367 602 339 594 q 424 610 394 610 q 572 439 572 610 l 572 0 l 724 0 l 724 461 q 657 663 724 592 q 482 733 590 733 q 404 722 438 733 q 346 692 371 711 q 303 648 321 674 q 275 594 286 622 l 268 594 l 268 828 l 472 828 l 472 942 l 268 942 l 268 1028 l 117 1028 l 117 942 l 32 942 l 32 828 l 117 828 l 117 0 "},"ĥ":{"ha":833,"x_min":-50,"x_max":724,"o":"m 117 1028 l 117 0 l 268 0 l 268 486 q 281 540 268 517 q 317 579 294 564 q 367 602 339 594 q 424 610 394 610 q 572 439 572 610 l 572 0 l 724 0 l 724 461 q 657 663 724 592 q 482 733 590 733 q 404 722 438 733 q 346 692 371 711 q 303 648 321 674 q 275 594 286 622 l 268 594 l 268 1028 l 117 1028 m 269 1328 l 117 1328 l -50 1119 l 26 1061 l 192 1222 l 356 1061 l 436 1119 l 269 1328 "},"ı":{"ha":833,"x_min":140,"x_max":765,"o":"m 140 122 l 140 0 l 765 0 l 765 122 l 536 122 l 536 717 l 140 717 l 140 594 l 385 594 l 385 122 l 140 122 "},"í":{"ha":833,"x_min":140,"x_max":765,"o":"m 476 804 l 640 1035 l 510 1099 l 383 849 l 476 804 m 140 122 l 140 0 l 765 0 l 765 122 l 536 122 l 536 717 l 140 717 l 140 594 l 385 594 l 385 122 l 140 122 "},"ĭ":{"ha":833,"x_min":140,"x_max":765,"o":"m 140 122 l 140 0 l 765 0 l 765 122 l 536 122 l 536 717 l 140 717 l 140 594 l 385 594 l 385 122 l 140 122 m 461 813 q 560 834 519 813 q 629 888 601 856 q 675 960 657 921 q 704 1032 693 999 l 614 1075 l 585 1029 q 528 951 553 978 q 461 924 504 924 q 423 931 439 924 q 394 951 407 938 q 367 984 381 964 q 338 1029 354 1004 l 308 1075 l 218 1032 q 247 960 229 999 q 292 888 264 921 q 362 834 321 856 q 461 813 403 813 "},"î":{"ha":833,"x_min":140,"x_max":765,"o":"m 538 1075 l 385 1075 l 218 867 l 294 808 l 460 969 l 624 808 l 704 867 l 538 1075 m 140 122 l 140 0 l 765 0 l 765 122 l 536 122 l 536 717 l 140 717 l 140 594 l 385 594 l 385 122 l 140 122 "},"ï":{"ha":833,"x_min":140,"x_max":765,"o":"m 322 843 q 394 864 374 843 q 415 917 415 885 l 415 943 q 394 996 415 975 q 322 1017 374 1017 q 250 996 271 1017 q 229 943 229 975 l 229 917 q 250 864 229 885 q 322 843 271 843 m 600 843 q 672 864 651 843 q 693 917 693 885 l 693 943 q 672 996 693 975 q 600 1017 651 1017 q 528 996 549 1017 q 507 943 507 975 l 507 917 q 528 864 507 885 q 600 843 549 843 m 140 122 l 140 0 l 765 0 l 765 122 l 536 122 l 536 717 l 140 717 l 140 594 l 385 594 l 385 122 l 140 122 "},"ị":{"ha":833,"x_min":140,"x_max":765,"o":"m 461 847 q 541 871 518 847 q 564 929 564 894 l 564 958 q 541 1017 564 993 q 460 1040 518 1040 q 380 1017 403 1040 q 357 958 357 993 l 357 929 q 380 871 357 894 q 461 847 403 847 m 140 122 l 140 0 l 765 0 l 765 122 l 536 122 l 536 717 l 140 717 l 140 594 l 385 594 l 385 122 l 140 122 m 461 -257 q 533 -236 513 -257 q 554 -183 554 -215 l 554 -157 q 533 -104 554 -125 q 461 -83 513 -83 q 389 -104 410 -83 q 368 -157 368 -125 l 368 -183 q 389 -236 368 -215 q 461 -257 410 -257 "},"ì":{"ha":833,"x_min":140,"x_max":765,"o":"m 140 122 l 140 0 l 765 0 l 765 122 l 536 122 l 536 717 l 140 717 l 140 594 l 385 594 l 385 122 l 140 122 m 282 1035 l 446 804 l 539 849 l 413 1099 l 282 1035 "},"ỉ":{"ha":833,"x_min":140,"x_max":765,"o":"m 140 122 l 140 0 l 765 0 l 765 122 l 536 122 l 536 717 l 140 717 l 140 594 l 385 594 l 385 122 l 140 122 m 324 1079 l 324 968 l 490 968 l 419 831 l 500 792 l 536 836 q 588 917 568 876 q 608 992 608 957 q 583 1053 608 1028 q 494 1079 558 1079 l 324 1079 "},"ī":{"ha":833,"x_min":140,"x_max":765,"o":"m 140 122 l 140 0 l 765 0 l 765 122 l 536 122 l 536 717 l 140 717 l 140 594 l 385 594 l 385 122 l 140 122 m 260 986 l 260 872 l 663 872 l 663 986 l 260 986 "},"į":{"ha":833,"x_min":140,"x_max":801,"o":"m 654 -290 q 749 -273 713 -290 q 801 -228 786 -256 l 738 -165 q 706 -192 724 -182 q 664 -203 688 -203 q 625 -192 642 -203 q 608 -153 608 -181 q 613 -129 608 -142 q 634 -99 618 -117 q 681 -57 650 -81 q 765 0 713 -33 l 765 122 l 536 122 l 536 717 l 140 717 l 140 594 l 385 594 l 385 122 l 140 122 l 140 0 l 656 0 l 657 -4 q 536 -83 578 -42 q 494 -176 494 -124 q 507 -228 494 -207 q 542 -264 519 -250 q 592 -284 564 -278 q 654 -290 621 -290 m 461 847 q 541 871 518 847 q 564 929 564 894 l 564 958 q 541 1017 564 993 q 460 1040 518 1040 q 380 1017 403 1040 q 357 958 357 993 l 357 929 q 380 871 357 894 q 461 847 403 847 "},"ĩ":{"ha":833,"x_min":140,"x_max":765,"o":"m 140 122 l 140 0 l 765 0 l 765 122 l 536 122 l 536 717 l 140 717 l 140 594 l 385 594 l 385 122 l 140 122 m 564 839 q 651 863 615 839 q 707 918 686 886 l 650 990 q 611 963 629 972 q 569 954 593 954 q 523 963 547 954 q 467 986 499 971 q 418 1008 443 997 q 358 1018 393 1018 q 272 994 307 1018 q 215 939 236 971 l 272 867 q 311 894 293 885 q 353 903 329 903 q 399 894 375 903 q 456 871 424 886 q 504 849 479 860 q 564 839 529 839 "},"ĳ":{"ha":833,"x_min":100,"x_max":733,"o":"m 128 717 l 128 0 l 279 0 l 279 717 l 128 717 m 279 -156 l 279 -278 l 522 -278 q 661 -227 617 -278 q 706 -96 706 -176 l 706 717 l 554 717 l 554 -156 l 279 -156 m 204 847 q 284 871 261 847 q 307 929 307 894 l 307 958 q 284 1017 307 993 q 203 1040 261 1040 q 123 1017 146 1040 q 100 958 100 993 l 100 929 q 123 871 100 894 q 204 847 146 847 m 631 847 q 710 871 688 847 q 733 929 733 894 l 733 958 q 710 1017 733 993 q 629 1040 688 1040 q 549 1017 572 1040 q 526 958 526 993 l 526 929 q 549 871 526 894 q 631 847 572 847 "},"ȷ":{"ha":833,"x_min":128,"x_max":604,"o":"m 136 -156 l 136 -278 l 419 -278 q 559 -227 514 -278 q 604 -96 604 -176 l 604 717 l 128 717 l 128 594 l 453 594 l 453 -156 l 136 -156 "},"ĵ":{"ha":833,"x_min":128,"x_max":771,"o":"m 136 -156 l 136 -278 l 419 -278 q 559 -227 514 -278 q 604 -96 604 -176 l 604 717 l 128 717 l 128 594 l 453 594 l 453 -156 l 136 -156 m 604 1075 l 451 1075 l 285 867 l 361 808 l 526 969 l 690 808 l 771 867 l 604 1075 "},"ķ":{"ha":833,"x_min":122,"x_max":806,"o":"m 351 -82 l 318 -360 l 419 -360 l 531 -82 l 351 -82 m 122 1028 l 122 0 l 274 0 l 274 256 l 374 349 l 624 0 l 806 0 l 483 435 l 774 717 l 594 717 l 393 522 l 281 407 l 274 407 l 274 1028 l 122 1028 "},"ĸ":{"ha":833,"x_min":124,"x_max":808,"o":"m 381 338 l 626 0 l 808 0 l 488 429 l 776 717 l 599 717 l 399 514 l 282 385 l 274 385 l 274 717 l 124 717 l 124 0 l 274 0 l 274 238 l 381 338 "},"ĺ":{"ha":833,"x_min":104,"x_max":731,"o":"m 104 122 l 104 0 l 731 0 l 731 122 l 493 122 l 493 1028 l 104 1028 l 104 906 l 342 906 l 342 122 l 104 122 m 432 1057 l 596 1288 l 465 1351 l 339 1101 l 432 1057 "},"ľ":{"ha":833,"x_min":104,"x_max":781,"o":"m 703 750 l 781 1028 l 606 1028 l 597 750 l 703 750 m 104 122 l 104 0 l 731 0 l 731 122 l 493 122 l 493 1028 l 104 1028 l 104 906 l 342 906 l 342 122 l 104 122 "},"ļ":{"ha":833,"x_min":104,"x_max":731,"o":"m 329 -82 l 296 -360 l 397 -360 l 508 -82 l 329 -82 m 104 122 l 104 0 l 731 0 l 731 122 l 493 122 l 493 1028 l 104 1028 l 104 906 l 342 906 l 342 122 l 104 122 "},"ŀ":{"ha":833,"x_min":97,"x_max":814,"o":"m 97 122 l 97 0 l 724 0 l 724 122 l 486 122 l 486 1028 l 97 1028 l 97 906 l 335 906 l 335 122 l 97 122 m 711 329 q 791 353 768 329 q 814 411 814 376 l 814 442 q 791 500 814 476 q 711 524 768 524 q 631 500 654 524 q 608 442 608 476 l 608 411 q 631 353 608 376 q 711 329 654 329 "},"ł":{"ha":833,"x_min":104,"x_max":729,"o":"m 104 122 l 104 0 l 729 0 l 729 122 l 493 122 l 493 426 l 690 490 l 690 608 l 493 543 l 493 1028 l 104 1028 l 104 906 l 342 906 l 342 499 l 143 435 l 143 317 l 342 382 l 342 122 l 104 122 "},"ń":{"ha":833,"x_min":117,"x_max":724,"o":"m 435 804 l 599 1035 l 468 1099 l 342 849 l 435 804 m 117 0 l 268 0 l 268 486 q 281 540 268 517 q 317 579 294 564 q 367 602 339 594 q 424 610 394 610 q 572 439 572 610 l 572 0 l 724 0 l 724 461 q 657 663 724 592 q 482 733 590 733 q 404 722 438 733 q 346 692 371 711 q 303 648 321 674 q 275 594 286 622 l 268 594 l 268 717 l 117 717 l 117 0 "},"ň":{"ha":833,"x_min":117,"x_max":724,"o":"m 343 819 l 496 819 l 663 1028 l 588 1086 l 422 925 l 257 1086 l 176 1028 l 343 819 m 117 0 l 268 0 l 268 486 q 281 540 268 517 q 317 579 294 564 q 367 602 339 594 q 424 610 394 610 q 572 439 572 610 l 572 0 l 724 0 l 724 461 q 657 663 724 592 q 482 733 590 733 q 404 722 438 733 q 346 692 371 711 q 303 648 321 674 q 275 594 286 622 l 268 594 l 268 717 l 117 717 l 117 0 "},"ņ":{"ha":833,"x_min":117,"x_max":724,"o":"m 332 -82 l 299 -360 l 400 -360 l 511 -82 l 332 -82 m 117 0 l 268 0 l 268 486 q 281 540 268 517 q 317 579 294 564 q 367 602 339 594 q 424 610 394 610 q 572 439 572 610 l 572 0 l 724 0 l 724 461 q 657 663 724 592 q 482 733 590 733 q 404 722 438 733 q 346 692 371 711 q 303 648 321 674 q 275 594 286 622 l 268 594 l 268 717 l 117 717 l 117 0 "},"ñ":{"ha":833,"x_min":117,"x_max":724,"o":"m 117 0 l 268 0 l 268 486 q 281 540 268 517 q 317 579 294 564 q 367 602 339 594 q 424 610 394 610 q 572 439 572 610 l 572 0 l 724 0 l 724 461 q 657 663 724 592 q 482 733 590 733 q 404 722 438 733 q 346 692 371 711 q 303 648 321 674 q 275 594 286 622 l 268 594 l 268 717 l 117 717 l 117 0 m 522 839 q 609 863 574 839 q 665 918 644 886 l 608 990 q 569 963 588 972 q 528 954 551 954 q 481 963 506 954 q 425 986 457 971 q 376 1008 401 997 q 317 1018 351 1018 q 230 994 265 1018 q 174 939 194 971 l 231 867 q 269 894 251 885 q 311 903 288 903 q 358 894 333 903 q 414 871 382 886 q 463 849 438 860 q 522 839 488 839 "},"ŉ":{"ha":833,"x_min":0,"x_max":729,"o":"m 143 717 l 143 0 l 290 0 l 290 486 q 303 542 290 518 q 338 581 317 565 q 385 605 358 597 q 440 613 413 613 q 582 439 582 613 l 582 0 l 729 0 l 729 467 q 666 665 729 597 q 499 733 603 733 q 423 722 456 733 q 366 692 390 711 q 325 648 342 674 q 297 594 308 622 l 290 594 l 290 717 l 143 717 m 13 1028 l 0 756 l 83 756 l 164 1028 l 13 1028 "},"ŋ":{"ha":833,"x_min":117,"x_max":724,"o":"m 268 -156 l 268 -278 l 540 -278 q 679 -227 635 -278 q 724 -96 724 -176 l 724 461 q 657 663 724 592 q 482 733 590 733 q 404 722 438 733 q 346 692 371 711 q 303 648 321 674 q 275 594 286 622 l 268 594 l 268 717 l 117 717 l 117 0 l 268 0 l 268 486 q 281 540 268 517 q 317 579 294 564 q 367 602 339 594 q 424 610 394 610 q 572 439 572 610 l 572 -156 l 268 -156 "},"ó":{"ha":833,"x_min":76,"x_max":757,"o":"m 432 804 l 596 1035 l 465 1099 l 339 849 l 432 804 m 417 -17 q 559 10 496 -17 q 666 85 622 36 q 733 203 710 133 q 757 358 757 272 q 733 514 757 444 q 666 632 710 583 q 559 707 622 681 q 417 733 496 733 q 274 707 338 733 q 167 632 211 681 q 100 514 124 583 q 76 358 76 444 q 100 203 76 272 q 167 85 124 133 q 274 10 211 36 q 417 -17 338 -17 m 417 103 q 284 153 333 103 q 235 304 235 204 l 235 413 q 284 563 235 513 q 417 614 333 614 q 549 563 500 614 q 599 413 599 513 l 599 304 q 549 153 599 204 q 417 103 500 103 "},"ŏ":{"ha":833,"x_min":76,"x_max":757,"o":"m 417 -17 q 559 10 496 -17 q 666 85 622 36 q 733 203 710 133 q 757 358 757 272 q 733 514 757 444 q 666 632 710 583 q 559 707 622 681 q 417 733 496 733 q 274 707 338 733 q 167 632 211 681 q 100 514 124 583 q 76 358 76 444 q 100 203 76 272 q 167 85 124 133 q 274 10 211 36 q 417 -17 338 -17 m 417 103 q 284 153 333 103 q 235 304 235 204 l 235 413 q 284 563 235 513 q 417 614 333 614 q 549 563 500 614 q 599 413 599 513 l 599 304 q 549 153 599 204 q 417 103 500 103 m 417 813 q 516 834 475 813 q 585 888 557 856 q 631 960 613 921 q 660 1032 649 999 l 569 1075 l 540 1029 q 484 951 508 978 q 417 924 460 924 q 378 931 394 924 q 349 951 363 938 q 323 984 336 964 q 293 1029 310 1004 l 264 1075 l 174 1032 q 202 960 185 999 q 248 888 219 921 q 317 834 276 856 q 417 813 358 813 "},"ô":{"ha":833,"x_min":76,"x_max":757,"o":"m 493 1075 l 340 1075 l 174 867 l 250 808 l 415 969 l 579 808 l 660 867 l 493 1075 m 417 -17 q 559 10 496 -17 q 666 85 622 36 q 733 203 710 133 q 757 358 757 272 q 733 514 757 444 q 666 632 710 583 q 559 707 622 681 q 417 733 496 733 q 274 707 338 733 q 167 632 211 681 q 100 514 124 583 q 76 358 76 444 q 100 203 76 272 q 167 85 124 133 q 274 10 211 36 q 417 -17 338 -17 m 417 103 q 284 153 333 103 q 235 304 235 204 l 235 413 q 284 563 235 513 q 417 614 333 614 q 549 563 500 614 q 599 413 599 513 l 599 304 q 549 153 599 204 q 417 103 500 103 "},"ö":{"ha":833,"x_min":76,"x_max":757,"o":"m 278 843 q 350 864 329 843 q 371 917 371 885 l 371 943 q 350 996 371 975 q 278 1017 329 1017 q 206 996 226 1017 q 185 943 185 975 l 185 917 q 206 864 185 885 q 278 843 226 843 m 556 843 q 628 864 607 843 q 649 917 649 885 l 649 943 q 628 996 649 975 q 556 1017 607 1017 q 483 996 504 1017 q 463 943 463 975 l 463 917 q 483 864 463 885 q 556 843 504 843 m 417 -17 q 559 10 496 -17 q 666 85 622 36 q 733 203 710 133 q 757 358 757 272 q 733 514 757 444 q 666 632 710 583 q 559 707 622 681 q 417 733 496 733 q 274 707 338 733 q 167 632 211 681 q 100 514 124 583 q 76 358 76 444 q 100 203 76 272 q 167 85 124 133 q 274 10 211 36 q 417 -17 338 -17 m 417 103 q 284 153 333 103 q 235 304 235 204 l 235 413 q 284 563 235 513 q 417 614 333 614 q 549 563 500 614 q 599 413 599 513 l 599 304 q 549 153 599 204 q 417 103 500 103 "},"ọ":{"ha":833,"x_min":76,"x_max":757,"o":"m 417 -17 q 559 10 496 -17 q 666 85 622 36 q 733 203 710 133 q 757 358 757 272 q 733 514 757 444 q 666 632 710 583 q 559 707 622 681 q 417 733 496 733 q 274 707 338 733 q 167 632 211 681 q 100 514 124 583 q 76 358 76 444 q 100 203 76 272 q 167 85 124 133 q 274 10 211 36 q 417 -17 338 -17 m 417 103 q 284 153 333 103 q 235 304 235 204 l 235 413 q 284 563 235 513 q 417 614 333 614 q 549 563 500 614 q 599 413 599 513 l 599 304 q 549 153 599 204 q 417 103 500 103 m 417 -257 q 489 -236 468 -257 q 510 -183 510 -215 l 510 -157 q 489 -104 510 -125 q 417 -83 468 -83 q 344 -104 365 -83 q 324 -157 324 -125 l 324 -183 q 344 -236 324 -215 q 417 -257 365 -257 "},"ò":{"ha":833,"x_min":76,"x_max":757,"o":"m 417 -17 q 559 10 496 -17 q 666 85 622 36 q 733 203 710 133 q 757 358 757 272 q 733 514 757 444 q 666 632 710 583 q 559 707 622 681 q 417 733 496 733 q 274 707 338 733 q 167 632 211 681 q 100 514 124 583 q 76 358 76 444 q 100 203 76 272 q 167 85 124 133 q 274 10 211 36 q 417 -17 338 -17 m 417 103 q 284 153 333 103 q 235 304 235 204 l 235 413 q 284 563 235 513 q 417 614 333 614 q 549 563 500 614 q 599 413 599 513 l 599 304 q 549 153 599 204 q 417 103 500 103 m 238 1035 l 401 804 l 494 849 l 368 1099 l 238 1035 "},"ỏ":{"ha":833,"x_min":76,"x_max":757,"o":"m 417 -17 q 559 10 496 -17 q 666 85 622 36 q 733 203 710 133 q 757 358 757 272 q 733 514 757 444 q 666 632 710 583 q 559 707 622 681 q 417 733 496 733 q 274 707 338 733 q 167 632 211 681 q 100 514 124 583 q 76 358 76 444 q 100 203 76 272 q 167 85 124 133 q 274 10 211 36 q 417 -17 338 -17 m 417 103 q 284 153 333 103 q 235 304 235 204 l 235 413 q 284 563 235 513 q 417 614 333 614 q 549 563 500 614 q 599 413 599 513 l 599 304 q 549 153 599 204 q 417 103 500 103 m 279 1079 l 279 968 l 446 968 l 375 831 l 456 792 l 492 836 q 544 917 524 876 q 564 992 564 957 q 539 1053 564 1028 q 450 1079 514 1079 l 279 1079 "},"ő":{"ha":833,"x_min":76,"x_max":757,"o":"m 306 804 l 469 1035 l 346 1096 l 219 844 l 306 804 m 554 804 l 718 1035 l 594 1096 l 468 844 l 554 804 m 417 -17 q 559 10 496 -17 q 666 85 622 36 q 733 203 710 133 q 757 358 757 272 q 733 514 757 444 q 666 632 710 583 q 559 707 622 681 q 417 733 496 733 q 274 707 338 733 q 167 632 211 681 q 100 514 124 583 q 76 358 76 444 q 100 203 76 272 q 167 85 124 133 q 274 10 211 36 q 417 -17 338 -17 m 417 103 q 284 153 333 103 q 235 304 235 204 l 235 413 q 284 563 235 513 q 417 614 333 614 q 549 563 500 614 q 599 413 599 513 l 599 304 q 549 153 599 204 q 417 103 500 103 "},"ō":{"ha":833,"x_min":76,"x_max":757,"o":"m 215 986 l 215 872 l 618 872 l 618 986 l 215 986 m 417 -17 q 559 10 496 -17 q 666 85 622 36 q 733 203 710 133 q 757 358 757 272 q 733 514 757 444 q 666 632 710 583 q 559 707 622 681 q 417 733 496 733 q 274 707 338 733 q 167 632 211 681 q 100 514 124 583 q 76 358 76 444 q 100 203 76 272 q 167 85 124 133 q 274 10 211 36 q 417 -17 338 -17 m 417 103 q 284 153 333 103 q 235 304 235 204 l 235 413 q 284 563 235 513 q 417 614 333 614 q 549 563 500 614 q 599 413 599 513 l 599 304 q 549 153 599 204 q 417 103 500 103 "},"ø":{"ha":833,"x_min":51,"x_max":782,"o":"m 51 -4 l 135 -67 l 221 39 q 417 -17 300 -17 q 559 10 496 -17 q 666 85 622 36 q 733 203 710 133 q 757 358 757 272 q 688 604 757 510 l 782 721 l 699 783 l 613 678 q 417 733 533 733 q 274 707 338 733 q 167 632 211 681 q 100 514 124 583 q 76 358 76 444 q 146 113 76 207 l 51 -4 m 417 614 q 535 576 490 614 l 246 224 q 237 263 239 240 q 235 310 235 286 l 235 413 q 284 563 235 513 q 417 614 333 614 m 417 103 q 351 112 381 103 q 299 140 321 121 l 588 493 q 597 453 594 476 q 599 407 599 431 l 599 304 q 549 153 599 204 q 417 103 500 103 "},"ǿ":{"ha":833,"x_min":51,"x_max":782,"o":"m 51 -4 l 135 -67 l 221 39 q 417 -17 300 -17 q 559 10 496 -17 q 666 85 622 36 q 733 203 710 133 q 757 358 757 272 q 688 604 757 510 l 782 721 l 699 783 l 613 678 q 417 733 533 733 q 274 707 338 733 q 167 632 211 681 q 100 514 124 583 q 76 358 76 444 q 146 113 76 207 l 51 -4 m 417 614 q 535 576 490 614 l 246 224 q 237 263 239 240 q 235 310 235 286 l 235 413 q 284 563 235 513 q 417 614 333 614 m 417 103 q 351 112 381 103 q 299 140 321 121 l 588 493 q 597 453 594 476 q 599 407 599 431 l 599 304 q 549 153 599 204 q 417 103 500 103 m 432 804 l 596 1035 l 465 1099 l 339 849 l 432 804 "},"õ":{"ha":833,"x_min":76,"x_max":757,"o":"m 417 -17 q 559 10 496 -17 q 666 85 622 36 q 733 203 710 133 q 757 358 757 272 q 733 514 757 444 q 666 632 710 583 q 559 707 622 681 q 417 733 496 733 q 274 707 338 733 q 167 632 211 681 q 100 514 124 583 q 76 358 76 444 q 100 203 76 272 q 167 85 124 133 q 274 10 211 36 q 417 -17 338 -17 m 417 103 q 284 153 333 103 q 235 304 235 204 l 235 413 q 284 563 235 513 q 417 614 333 614 q 549 563 500 614 q 599 413 599 513 l 599 304 q 549 153 599 204 q 417 103 500 103 m 519 839 q 606 863 571 839 q 663 918 642 886 l 606 990 q 567 963 585 972 q 525 954 549 954 q 478 963 503 954 q 422 986 454 971 q 374 1008 399 997 q 314 1018 349 1018 q 227 994 263 1018 q 171 939 192 971 l 228 867 q 267 894 249 885 q 308 903 285 903 q 355 894 331 903 q 411 871 379 886 q 460 849 435 860 q 519 839 485 839 "},"ơ":{"ha":833,"x_min":76,"x_max":775,"o":"m 775 874 l 646 874 l 646 717 l 532 717 q 417 733 479 733 q 274 707 338 733 q 167 632 211 681 q 100 514 124 583 q 76 358 76 444 q 100 203 76 272 q 167 85 124 133 q 274 10 211 36 q 417 -17 338 -17 q 559 10 496 -17 q 666 85 622 36 q 733 203 710 133 q 757 358 757 272 q 665 625 757 529 q 753 655 731 625 q 775 733 775 685 l 775 874 m 417 103 q 284 153 333 103 q 235 304 235 204 l 235 413 q 284 563 235 513 q 417 614 333 614 q 549 563 500 614 q 599 413 599 513 l 599 304 q 549 153 599 204 q 417 103 500 103 "},"ớ":{"ha":833,"x_min":76,"x_max":775,"o":"m 432 804 l 596 1035 l 465 1099 l 339 849 l 432 804 m 775 874 l 646 874 l 646 717 l 532 717 q 417 733 479 733 q 274 707 338 733 q 167 632 211 681 q 100 514 124 583 q 76 358 76 444 q 100 203 76 272 q 167 85 124 133 q 274 10 211 36 q 417 -17 338 -17 q 559 10 496 -17 q 666 85 622 36 q 733 203 710 133 q 757 358 757 272 q 665 625 757 529 q 753 655 731 625 q 775 733 775 685 l 775 874 m 417 103 q 284 153 333 103 q 235 304 235 204 l 235 413 q 284 563 235 513 q 417 614 333 614 q 549 563 500 614 q 599 413 599 513 l 599 304 q 549 153 599 204 q 417 103 500 103 "},"ợ":{"ha":833,"x_min":76,"x_max":775,"o":"m 775 874 l 646 874 l 646 717 l 532 717 q 417 733 479 733 q 274 707 338 733 q 167 632 211 681 q 100 514 124 583 q 76 358 76 444 q 100 203 76 272 q 167 85 124 133 q 274 10 211 36 q 417 -17 338 -17 q 559 10 496 -17 q 666 85 622 36 q 733 203 710 133 q 757 358 757 272 q 665 625 757 529 q 753 655 731 625 q 775 733 775 685 l 775 874 m 417 103 q 284 153 333 103 q 235 304 235 204 l 235 413 q 284 563 235 513 q 417 614 333 614 q 549 563 500 614 q 599 413 599 513 l 599 304 q 549 153 599 204 q 417 103 500 103 m 417 -257 q 489 -236 468 -257 q 510 -183 510 -215 l 510 -157 q 489 -104 510 -125 q 417 -83 468 -83 q 344 -104 365 -83 q 324 -157 324 -125 l 324 -183 q 344 -236 324 -215 q 417 -257 365 -257 "},"ờ":{"ha":833,"x_min":76,"x_max":775,"o":"m 775 874 l 646 874 l 646 717 l 532 717 q 417 733 479 733 q 274 707 338 733 q 167 632 211 681 q 100 514 124 583 q 76 358 76 444 q 100 203 76 272 q 167 85 124 133 q 274 10 211 36 q 417 -17 338 -17 q 559 10 496 -17 q 666 85 622 36 q 733 203 710 133 q 757 358 757 272 q 665 625 757 529 q 753 655 731 625 q 775 733 775 685 l 775 874 m 417 103 q 284 153 333 103 q 235 304 235 204 l 235 413 q 284 563 235 513 q 417 614 333 614 q 549 563 500 614 q 599 413 599 513 l 599 304 q 549 153 599 204 q 417 103 500 103 m 238 1035 l 401 804 l 494 849 l 368 1099 l 238 1035 "},"ở":{"ha":833,"x_min":76,"x_max":775,"o":"m 775 874 l 646 874 l 646 717 l 532 717 q 417 733 479 733 q 274 707 338 733 q 167 632 211 681 q 100 514 124 583 q 76 358 76 444 q 100 203 76 272 q 167 85 124 133 q 274 10 211 36 q 417 -17 338 -17 q 559 10 496 -17 q 666 85 622 36 q 733 203 710 133 q 757 358 757 272 q 665 625 757 529 q 753 655 731 625 q 775 733 775 685 l 775 874 m 417 103 q 284 153 333 103 q 235 304 235 204 l 235 413 q 284 563 235 513 q 417 614 333 614 q 549 563 500 614 q 599 413 599 513 l 599 304 q 549 153 599 204 q 417 103 500 103 m 279 1079 l 279 968 l 446 968 l 375 831 l 456 792 l 492 836 q 544 917 524 876 q 564 992 564 957 q 539 1053 564 1028 q 450 1079 514 1079 l 279 1079 "},"ỡ":{"ha":833,"x_min":76,"x_max":775,"o":"m 493 842 q 573 866 540 842 q 626 922 606 890 l 569 992 q 496 957 533 957 q 455 964 475 957 q 410 986 435 971 q 368 1006 390 997 q 315 1015 346 1015 q 235 991 268 1015 q 182 935 203 967 l 239 865 q 313 900 275 900 q 353 893 333 900 q 399 871 374 886 q 440 851 418 860 q 493 842 463 842 m 775 874 l 646 874 l 646 717 l 532 717 q 417 733 479 733 q 274 707 338 733 q 167 632 211 681 q 100 514 124 583 q 76 358 76 444 q 100 203 76 272 q 167 85 124 133 q 274 10 211 36 q 417 -17 338 -17 q 559 10 496 -17 q 666 85 622 36 q 733 203 710 133 q 757 358 757 272 q 665 625 757 529 q 753 655 731 625 q 775 733 775 685 l 775 874 m 417 103 q 284 153 333 103 q 235 304 235 204 l 235 413 q 284 563 235 513 q 417 614 333 614 q 549 563 500 614 q 599 413 599 513 l 599 304 q 549 153 599 204 q 417 103 500 103 "},"ố":{"ha":833,"x_min":76,"x_max":806,"o":"m 642 996 l 806 1226 l 682 1288 l 556 1038 l 642 996 m 485 1058 l 349 1058 l 176 857 l 249 796 l 415 951 l 582 796 l 657 857 l 485 1058 m 417 -17 q 559 10 496 -17 q 666 85 622 36 q 733 203 710 133 q 757 358 757 272 q 733 514 757 444 q 666 632 710 583 q 559 707 622 681 q 417 733 496 733 q 274 707 338 733 q 167 632 211 681 q 100 514 124 583 q 76 358 76 444 q 100 203 76 272 q 167 85 124 133 q 274 10 211 36 q 417 -17 338 -17 m 417 103 q 284 153 333 103 q 235 304 235 204 l 235 413 q 284 563 235 513 q 417 614 333 614 q 549 563 500 614 q 599 413 599 513 l 599 304 q 549 153 599 204 q 417 103 500 103 "},"ộ":{"ha":833,"x_min":76,"x_max":757,"o":"m 493 1075 l 340 1075 l 174 867 l 250 808 l 415 969 l 579 808 l 660 867 l 493 1075 m 417 -17 q 559 10 496 -17 q 666 85 622 36 q 733 203 710 133 q 757 358 757 272 q 733 514 757 444 q 666 632 710 583 q 559 707 622 681 q 417 733 496 733 q 274 707 338 733 q 167 632 211 681 q 100 514 124 583 q 76 358 76 444 q 100 203 76 272 q 167 85 124 133 q 274 10 211 36 q 417 -17 338 -17 m 417 103 q 284 153 333 103 q 235 304 235 204 l 235 413 q 284 563 235 513 q 417 614 333 614 q 549 563 500 614 q 599 413 599 513 l 599 304 q 549 153 599 204 q 417 103 500 103 m 417 -257 q 489 -236 468 -257 q 510 -183 510 -215 l 510 -157 q 489 -104 510 -125 q 417 -83 468 -83 q 344 -104 365 -83 q 324 -157 324 -125 l 324 -183 q 344 -236 324 -215 q 417 -257 365 -257 "},"ồ":{"ha":833,"x_min":28,"x_max":757,"o":"m 28 1226 l 192 996 l 278 1038 l 151 1288 l 28 1226 m 485 1058 l 349 1058 l 176 857 l 249 796 l 415 951 l 582 796 l 657 857 l 485 1058 m 417 -17 q 559 10 496 -17 q 666 85 622 36 q 733 203 710 133 q 757 358 757 272 q 733 514 757 444 q 666 632 710 583 q 559 707 622 681 q 417 733 496 733 q 274 707 338 733 q 167 632 211 681 q 100 514 124 583 q 76 358 76 444 q 100 203 76 272 q 167 85 124 133 q 274 10 211 36 q 417 -17 338 -17 m 417 103 q 284 153 333 103 q 235 304 235 204 l 235 413 q 284 563 235 513 q 417 614 333 614 q 549 563 500 614 q 599 413 599 513 l 599 304 q 549 153 599 204 q 417 103 500 103 "},"ổ":{"ha":833,"x_min":76,"x_max":761,"o":"m 482 1271 l 482 1163 l 646 1163 l 574 1022 l 650 983 l 685 1026 q 740 1108 718 1068 q 761 1183 761 1149 q 736 1245 761 1219 q 647 1271 711 1271 l 482 1271 m 485 1058 l 349 1058 l 176 857 l 249 796 l 415 951 l 582 796 l 657 857 l 485 1058 m 417 -17 q 559 10 496 -17 q 666 85 622 36 q 733 203 710 133 q 757 358 757 272 q 733 514 757 444 q 666 632 710 583 q 559 707 622 681 q 417 733 496 733 q 274 707 338 733 q 167 632 211 681 q 100 514 124 583 q 76 358 76 444 q 100 203 76 272 q 167 85 124 133 q 274 10 211 36 q 417 -17 338 -17 m 417 103 q 284 153 333 103 q 235 304 235 204 l 235 413 q 284 563 235 513 q 417 614 333 614 q 549 563 500 614 q 599 413 599 513 l 599 304 q 549 153 599 204 q 417 103 500 103 "},"ỗ":{"ha":833,"x_min":76,"x_max":757,"o":"m 417 -17 q 559 10 496 -17 q 666 85 622 36 q 733 203 710 133 q 757 358 757 272 q 733 514 757 444 q 666 632 710 583 q 559 707 622 681 q 417 733 496 733 q 274 707 338 733 q 167 632 211 681 q 100 514 124 583 q 76 358 76 444 q 100 203 76 272 q 167 85 124 133 q 274 10 211 36 q 417 -17 338 -17 m 417 103 q 284 153 333 103 q 235 304 235 204 l 235 413 q 284 563 235 513 q 417 614 333 614 q 549 563 500 614 q 599 413 599 513 l 599 304 q 549 153 599 204 q 417 103 500 103 m 315 1263 q 228 1238 264 1263 q 172 1182 193 1214 l 226 1117 q 265 1144 247 1135 q 307 1153 283 1153 q 353 1144 329 1153 q 410 1121 378 1136 q 458 1099 433 1110 q 518 1088 483 1088 q 605 1112 569 1088 q 661 1168 640 1136 l 607 1233 q 568 1206 586 1215 q 526 1197 550 1197 q 480 1206 504 1197 q 424 1229 456 1214 q 375 1251 400 1240 q 315 1263 350 1263 m 485 1043 l 349 1043 l 176 857 l 249 796 l 415 940 l 582 796 l 657 857 l 485 1043 "},"œ":{"ha":833,"x_min":18,"x_max":810,"o":"m 249 88 q 173 130 200 88 q 146 267 146 172 l 146 450 q 173 587 146 544 q 249 629 200 629 q 324 587 297 629 q 351 450 351 544 l 351 267 q 324 130 351 172 q 249 88 297 88 m 692 415 l 475 415 l 475 469 q 503 591 475 549 q 583 633 531 633 q 664 591 636 633 q 692 469 692 549 l 692 415 m 590 -17 q 669 -1 635 -17 q 730 40 704 14 q 773 98 756 65 q 800 167 790 131 l 696 204 q 660 125 683 160 q 592 90 636 90 q 505 147 535 90 q 475 296 475 204 l 475 325 l 810 325 l 810 408 q 753 649 810 565 q 593 733 697 733 q 492 706 538 733 q 417 615 447 678 l 413 615 q 240 733 363 733 q 75 639 132 733 q 18 358 18 544 q 75 78 18 172 q 239 -17 132 -17 q 406 90 350 -17 l 411 90 q 488 10 443 38 q 590 -17 533 -17 "},"ŕ":{"ha":833,"x_min":106,"x_max":778,"o":"m 489 804 l 653 1035 l 522 1099 l 396 849 l 489 804 m 106 122 l 106 0 l 707 0 l 707 122 l 447 122 l 447 390 q 500 523 447 474 q 636 572 553 572 l 778 572 l 778 717 l 692 717 q 597 701 638 717 q 529 659 557 685 q 483 599 501 633 q 456 526 465 564 l 447 526 l 447 717 l 106 717 l 106 594 l 296 594 l 296 122 l 106 122 "},"ř":{"ha":833,"x_min":106,"x_max":778,"o":"m 397 819 l 550 819 l 717 1028 l 642 1086 l 476 925 l 311 1086 l 231 1028 l 397 819 m 106 122 l 106 0 l 707 0 l 707 122 l 447 122 l 447 390 q 500 523 447 474 q 636 572 553 572 l 778 572 l 778 717 l 692 717 q 597 701 638 717 q 529 659 557 685 q 483 599 501 633 q 456 526 465 564 l 447 526 l 447 717 l 106 717 l 106 594 l 296 594 l 296 122 l 106 122 "},"ŗ":{"ha":833,"x_min":106,"x_max":778,"o":"m 283 -82 l 250 -360 l 351 -360 l 463 -82 l 283 -82 m 106 122 l 106 0 l 707 0 l 707 122 l 447 122 l 447 390 q 500 523 447 474 q 636 572 553 572 l 778 572 l 778 717 l 692 717 q 597 701 638 717 q 529 659 557 685 q 483 599 501 633 q 456 526 465 564 l 447 526 l 447 717 l 106 717 l 106 594 l 296 594 l 296 122 l 106 122 "},"ś":{"ha":833,"x_min":82,"x_max":733,"o":"m 432 804 l 596 1035 l 465 1099 l 339 849 l 432 804 m 418 -17 q 649 45 565 -17 q 733 215 733 107 q 712 307 733 271 q 656 366 690 343 q 580 400 622 389 q 494 418 538 411 l 381 436 q 303 459 336 442 q 271 522 271 476 q 422 618 271 618 q 558 591 507 618 q 638 532 610 564 l 722 621 q 601 703 674 674 q 428 733 528 733 q 206 676 290 733 q 122 510 122 619 q 144 418 122 454 q 199 359 165 382 q 276 324 233 336 q 361 306 319 311 l 475 288 q 517 279 497 285 q 553 264 538 274 q 576 239 568 254 q 585 201 585 224 q 540 124 585 149 q 421 99 494 99 q 281 126 340 99 q 175 204 222 153 l 82 121 q 217 21 133 58 q 418 -17 301 -17 "},"š":{"ha":833,"x_min":82,"x_max":733,"o":"m 340 819 l 493 819 l 660 1028 l 585 1086 l 419 925 l 254 1086 l 174 1028 l 340 819 m 418 -17 q 649 45 565 -17 q 733 215 733 107 q 712 307 733 271 q 656 366 690 343 q 580 400 622 389 q 494 418 538 411 l 381 436 q 303 459 336 442 q 271 522 271 476 q 422 618 271 618 q 558 591 507 618 q 638 532 610 564 l 722 621 q 601 703 674 674 q 428 733 528 733 q 206 676 290 733 q 122 510 122 619 q 144 418 122 454 q 199 359 165 382 q 276 324 233 336 q 361 306 319 311 l 475 288 q 517 279 497 285 q 553 264 538 274 q 576 239 568 254 q 585 201 585 224 q 540 124 585 149 q 421 99 494 99 q 281 126 340 99 q 175 204 222 153 l 82 121 q 217 21 133 58 q 418 -17 301 -17 "},"ş":{"ha":833,"x_min":82,"x_max":733,"o":"m 429 -290 q 492 -283 463 -290 q 545 -262 522 -276 q 582 -225 568 -247 q 596 -171 596 -203 q 567 -99 596 -122 q 497 -76 539 -76 q 469 -79 483 -76 q 439 -86 454 -82 l 433 -81 l 446 -17 q 657 51 581 -10 q 733 215 733 111 q 712 307 733 271 q 656 366 690 343 q 580 400 622 389 q 494 418 538 411 l 381 436 q 303 459 336 442 q 271 522 271 476 q 422 618 271 618 q 558 591 507 618 q 638 532 610 564 l 722 621 q 601 703 674 674 q 428 733 528 733 q 206 676 290 733 q 122 510 122 619 q 144 418 122 454 q 199 359 165 382 q 276 324 233 336 q 361 306 319 311 l 475 288 q 517 279 497 285 q 553 264 538 274 q 576 239 568 254 q 585 201 585 224 q 540 124 585 149 q 421 99 494 99 q 281 126 340 99 q 175 204 222 153 l 82 121 q 199 29 128 65 q 368 -14 271 -7 l 350 -106 l 385 -110 q 464 -133 444 -117 q 483 -165 483 -149 q 466 -196 483 -186 q 422 -206 449 -206 q 369 -194 390 -206 q 335 -167 347 -182 l 276 -232 q 330 -271 293 -251 q 429 -290 367 -290 "},"ŝ":{"ha":833,"x_min":82,"x_max":733,"o":"m 493 1075 l 340 1075 l 174 867 l 250 808 l 415 969 l 579 808 l 660 867 l 493 1075 m 418 -17 q 649 45 565 -17 q 733 215 733 107 q 712 307 733 271 q 656 366 690 343 q 580 400 622 389 q 494 418 538 411 l 381 436 q 303 459 336 442 q 271 522 271 476 q 422 618 271 618 q 558 591 507 618 q 638 532 610 564 l 722 621 q 601 703 674 674 q 428 733 528 733 q 206 676 290 733 q 122 510 122 619 q 144 418 122 454 q 199 359 165 382 q 276 324 233 336 q 361 306 319 311 l 475 288 q 517 279 497 285 q 553 264 538 274 q 576 239 568 254 q 585 201 585 224 q 540 124 585 149 q 421 99 494 99 q 281 126 340 99 q 175 204 222 153 l 82 121 q 217 21 133 58 q 418 -17 301 -17 "},"ș":{"ha":833,"x_min":82,"x_max":733,"o":"m 328 -82 l 294 -360 l 396 -360 l 507 -82 l 328 -82 m 418 -17 q 649 45 565 -17 q 733 215 733 107 q 712 307 733 271 q 656 366 690 343 q 580 400 622 389 q 494 418 538 411 l 381 436 q 303 459 336 442 q 271 522 271 476 q 422 618 271 618 q 558 591 507 618 q 638 532 610 564 l 722 621 q 601 703 674 674 q 428 733 528 733 q 206 676 290 733 q 122 510 122 619 q 144 418 122 454 q 199 359 165 382 q 276 324 233 336 q 361 306 319 311 l 475 288 q 517 279 497 285 q 553 264 538 274 q 576 239 568 254 q 585 201 585 224 q 540 124 585 149 q 421 99 494 99 q 281 126 340 99 q 175 204 222 153 l 82 121 q 217 21 133 58 q 418 -17 301 -17 "},"ß":{"ha":833,"x_min":117,"x_max":796,"o":"m 117 0 l 265 0 l 265 597 l 593 597 l 382 311 l 382 192 l 408 192 q 585 156 529 192 q 640 38 640 121 l 640 4 q 588 -119 640 -81 q 426 -158 535 -158 l 340 -158 l 340 -278 l 432 -278 q 697 -201 599 -278 q 796 21 796 -125 q 722 214 796 147 q 518 294 649 281 l 738 592 l 738 717 l 265 717 l 265 908 l 504 908 l 504 1028 l 301 1028 q 161 977 206 1028 q 117 846 117 926 l 117 0 "},"ŧ":{"ha":833,"x_min":56,"x_max":733,"o":"m 733 0 l 733 122 l 428 122 l 428 322 l 654 322 l 654 433 l 428 433 l 428 594 l 733 594 l 733 717 l 428 717 l 428 969 l 286 969 l 286 790 q 269 733 286 749 q 213 717 253 717 l 56 717 l 56 594 l 276 594 l 276 433 l 138 433 l 138 322 l 276 322 l 276 182 q 321 51 276 101 q 460 0 365 0 l 733 0 "},"ť":{"ha":833,"x_min":56,"x_max":733,"o":"m 649 789 l 726 1067 l 551 1067 l 543 789 l 649 789 m 460 0 l 733 0 l 733 122 l 428 122 l 428 594 l 733 594 l 733 717 l 428 717 l 428 969 l 286 969 l 286 790 q 269 733 286 749 q 213 717 253 717 l 56 717 l 56 594 l 276 594 l 276 182 q 321 51 276 101 q 460 0 365 0 "},"ţ":{"ha":833,"x_min":56,"x_max":733,"o":"m 425 -82 l 392 -360 l 493 -360 l 604 -82 l 425 -82 m 460 0 l 733 0 l 733 122 l 428 122 l 428 594 l 733 594 l 733 717 l 428 717 l 428 969 l 286 969 l 286 790 q 269 733 286 749 q 213 717 253 717 l 56 717 l 56 594 l 276 594 l 276 182 q 321 51 276 101 q 460 0 365 0 "},"ț":{"ha":833,"x_min":56,"x_max":733,"o":"m 425 -82 l 392 -360 l 493 -360 l 604 -82 l 425 -82 m 460 0 l 733 0 l 733 122 l 428 122 l 428 594 l 733 594 l 733 717 l 428 717 l 428 969 l 286 969 l 286 790 q 269 733 286 749 q 213 717 253 717 l 56 717 l 56 594 l 276 594 l 276 182 q 321 51 276 101 q 460 0 365 0 "},"þ":{"ha":833,"x_min":110,"x_max":763,"o":"m 110 1028 l 110 -278 l 261 -278 l 261 122 l 269 122 q 354 20 301 57 q 486 -17 407 -17 q 688 78 613 -17 q 763 358 763 172 q 688 639 763 544 q 486 733 613 733 q 354 697 407 733 q 269 594 301 660 l 261 594 l 261 1028 l 110 1028 m 424 107 q 361 115 390 107 q 310 140 332 124 q 274 181 288 157 q 261 239 261 206 l 261 478 q 274 535 261 511 q 310 576 288 560 q 361 601 332 593 q 424 610 390 610 q 556 557 510 610 q 603 417 603 504 l 603 300 q 556 160 603 213 q 424 107 510 107 "},"ú":{"ha":833,"x_min":110,"x_max":717,"o":"m 431 804 l 594 1035 l 464 1099 l 338 849 l 431 804 m 565 122 l 565 0 l 717 0 l 717 717 l 565 717 l 565 231 q 552 176 565 199 q 517 138 539 153 q 467 115 494 122 q 410 107 439 107 q 261 278 261 107 l 261 717 l 110 717 l 110 256 q 176 54 110 125 q 351 -17 243 -17 q 429 -6 396 -17 q 488 24 463 6 q 530 69 513 43 q 558 122 547 94 l 565 122 "},"ŭ":{"ha":833,"x_min":110,"x_max":717,"o":"m 565 122 l 565 0 l 717 0 l 717 717 l 565 717 l 565 231 q 552 176 565 199 q 517 138 539 153 q 467 115 494 122 q 410 107 439 107 q 261 278 261 107 l 261 717 l 110 717 l 110 256 q 176 54 110 125 q 351 -17 243 -17 q 429 -6 396 -17 q 488 24 463 6 q 530 69 513 43 q 558 122 547 94 l 565 122 m 415 813 q 515 834 474 813 q 583 888 556 856 q 629 960 611 921 q 658 1032 647 999 l 568 1075 l 539 1029 q 483 951 507 978 q 415 924 458 924 q 377 931 393 924 q 348 951 361 938 q 322 984 335 964 q 292 1029 308 1004 l 263 1075 l 172 1032 q 201 960 183 999 q 247 888 218 921 q 316 834 275 856 q 415 813 357 813 "},"û":{"ha":833,"x_min":110,"x_max":717,"o":"m 492 1075 l 339 1075 l 172 867 l 249 808 l 414 969 l 578 808 l 658 867 l 492 1075 m 565 122 l 565 0 l 717 0 l 717 717 l 565 717 l 565 231 q 552 176 565 199 q 517 138 539 153 q 467 115 494 122 q 410 107 439 107 q 261 278 261 107 l 261 717 l 110 717 l 110 256 q 176 54 110 125 q 351 -17 243 -17 q 429 -6 396 -17 q 488 24 463 6 q 530 69 513 43 q 558 122 547 94 l 565 122 "},"ü":{"ha":833,"x_min":110,"x_max":717,"o":"m 276 843 q 349 864 328 843 q 369 917 369 885 l 369 943 q 349 996 369 975 q 276 1017 328 1017 q 204 996 225 1017 q 183 943 183 975 l 183 917 q 204 864 183 885 q 276 843 225 843 m 554 843 q 626 864 606 843 q 647 917 647 885 l 647 943 q 626 996 647 975 q 554 1017 606 1017 q 482 996 503 1017 q 461 943 461 975 l 461 917 q 482 864 461 885 q 554 843 503 843 m 565 122 l 565 0 l 717 0 l 717 717 l 565 717 l 565 231 q 552 176 565 199 q 517 138 539 153 q 467 115 494 122 q 410 107 439 107 q 261 278 261 107 l 261 717 l 110 717 l 110 256 q 176 54 110 125 q 351 -17 243 -17 q 429 -6 396 -17 q 488 24 463 6 q 530 69 513 43 q 558 122 547 94 l 565 122 "},"ụ":{"ha":833,"x_min":110,"x_max":717,"o":"m 565 122 l 565 0 l 717 0 l 717 717 l 565 717 l 565 231 q 552 176 565 199 q 517 138 539 153 q 467 115 494 122 q 410 107 439 107 q 261 278 261 107 l 261 717 l 110 717 l 110 256 q 176 54 110 125 q 351 -17 243 -17 q 429 -6 396 -17 q 488 24 463 6 q 530 69 513 43 q 558 122 547 94 l 565 122 m 413 -257 q 485 -236 464 -257 q 506 -183 506 -215 l 506 -157 q 485 -104 506 -125 q 413 -83 464 -83 q 340 -104 361 -83 q 319 -157 319 -125 l 319 -183 q 340 -236 319 -215 q 413 -257 361 -257 "},"ù":{"ha":833,"x_min":110,"x_max":717,"o":"m 565 122 l 565 0 l 717 0 l 717 717 l 565 717 l 565 231 q 552 176 565 199 q 517 138 539 153 q 467 115 494 122 q 410 107 439 107 q 261 278 261 107 l 261 717 l 110 717 l 110 256 q 176 54 110 125 q 351 -17 243 -17 q 429 -6 396 -17 q 488 24 463 6 q 530 69 513 43 q 558 122 547 94 l 565 122 m 236 1035 l 400 804 l 493 849 l 367 1099 l 236 1035 "},"ủ":{"ha":833,"x_min":110,"x_max":717,"o":"m 565 122 l 565 0 l 717 0 l 717 717 l 565 717 l 565 231 q 552 176 565 199 q 517 138 539 153 q 467 115 494 122 q 410 107 439 107 q 261 278 261 107 l 261 717 l 110 717 l 110 256 q 176 54 110 125 q 351 -17 243 -17 q 429 -6 396 -17 q 488 24 463 6 q 530 69 513 43 q 558 122 547 94 l 565 122 m 275 1079 l 275 968 l 442 968 l 371 831 l 451 792 l 488 836 q 540 917 519 876 q 560 992 560 957 q 535 1053 560 1028 q 446 1079 510 1079 l 275 1079 "},"ű":{"ha":833,"x_min":110,"x_max":717,"o":"m 565 122 l 565 0 l 717 0 l 717 717 l 565 717 l 565 231 q 552 176 565 199 q 517 138 539 153 q 467 115 494 122 q 410 107 439 107 q 261 278 261 107 l 261 717 l 110 717 l 110 256 q 176 54 110 125 q 351 -17 243 -17 q 429 -6 396 -17 q 488 24 463 6 q 530 69 513 43 q 558 122 547 94 l 565 122 m 304 804 l 468 1035 l 344 1096 l 218 844 l 304 804 m 553 804 l 717 1035 l 593 1096 l 467 844 l 553 804 "},"ū":{"ha":833,"x_min":110,"x_max":717,"o":"m 565 122 l 565 0 l 717 0 l 717 717 l 565 717 l 565 231 q 552 176 565 199 q 517 138 539 153 q 467 115 494 122 q 410 107 439 107 q 261 278 261 107 l 261 717 l 110 717 l 110 256 q 176 54 110 125 q 351 -17 243 -17 q 429 -6 396 -17 q 488 24 463 6 q 530 69 513 43 q 558 122 547 94 l 565 122 m 214 986 l 214 872 l 617 872 l 617 986 l 214 986 "},"ų":{"ha":833,"x_min":110,"x_max":751,"o":"m 717 0 l 717 717 l 565 717 l 565 231 q 552 176 565 199 q 517 138 539 153 q 467 115 494 122 q 410 107 439 107 q 261 278 261 107 l 261 717 l 110 717 l 110 256 q 176 54 110 125 q 351 -17 243 -17 q 429 -6 396 -17 q 488 24 463 6 q 530 69 513 43 q 558 122 547 94 l 565 122 l 565 0 l 607 0 l 608 -4 q 488 -83 529 -42 q 446 -176 446 -124 q 458 -228 446 -207 q 493 -264 471 -250 q 544 -284 515 -278 q 606 -290 572 -290 q 700 -273 664 -290 q 751 -228 736 -256 l 689 -165 q 657 -192 675 -182 q 615 -203 639 -203 q 576 -192 593 -203 q 558 -153 558 -181 q 563 -129 558 -142 q 585 -99 568 -117 q 633 -57 601 -81 q 717 0 664 -33 "},"ů":{"ha":833,"x_min":110,"x_max":717,"o":"m 415 785 q 486 798 453 785 q 543 834 519 811 q 581 890 567 857 q 594 960 594 922 q 581 1031 594 999 q 543 1086 567 1063 q 486 1123 519 1110 q 415 1136 453 1136 q 344 1123 378 1136 q 288 1086 311 1110 q 250 1031 264 1063 q 236 960 236 999 q 250 890 236 922 q 288 834 264 857 q 344 798 311 811 q 415 785 378 785 m 415 868 q 339 942 339 868 l 339 979 q 415 1053 339 1053 q 492 979 492 1053 l 492 942 q 415 868 492 868 m 565 122 l 565 0 l 717 0 l 717 717 l 565 717 l 565 231 q 552 176 565 199 q 517 138 539 153 q 467 115 494 122 q 410 107 439 107 q 261 278 261 107 l 261 717 l 110 717 l 110 256 q 176 54 110 125 q 351 -17 243 -17 q 429 -6 396 -17 q 488 24 463 6 q 530 69 513 43 q 558 122 547 94 l 565 122 "},"ũ":{"ha":833,"x_min":110,"x_max":717,"o":"m 565 122 l 565 0 l 717 0 l 717 717 l 565 717 l 565 231 q 552 176 565 199 q 517 138 539 153 q 467 115 494 122 q 410 107 439 107 q 261 278 261 107 l 261 717 l 110 717 l 110 256 q 176 54 110 125 q 351 -17 243 -17 q 429 -6 396 -17 q 488 24 463 6 q 530 69 513 43 q 558 122 547 94 l 565 122 m 518 839 q 605 863 569 839 q 661 918 640 886 l 604 990 q 565 963 583 972 q 524 954 547 954 q 477 963 501 954 q 421 986 453 971 q 372 1008 397 997 q 313 1018 347 1018 q 226 994 261 1018 q 169 939 190 971 l 226 867 q 265 894 247 885 q 307 903 283 903 q 353 894 329 903 q 410 871 378 886 q 458 849 433 860 q 518 839 483 839 "},"ư":{"ha":833,"x_min":110,"x_max":822,"o":"m 822 732 l 822 874 l 692 874 l 692 717 l 565 717 l 565 231 q 552 176 565 199 q 517 138 539 153 q 467 115 494 122 q 410 107 439 107 q 261 278 261 107 l 261 717 l 110 717 l 110 256 q 176 54 110 125 q 351 -17 243 -17 q 429 -6 396 -17 q 488 24 463 6 q 530 69 513 43 q 558 122 547 94 l 565 122 l 565 0 l 717 0 l 717 622 q 801 651 779 622 q 822 732 822 681 "},"ứ":{"ha":833,"x_min":110,"x_max":822,"o":"m 431 804 l 594 1035 l 464 1099 l 338 849 l 431 804 m 822 732 l 822 874 l 692 874 l 692 717 l 565 717 l 565 231 q 552 176 565 199 q 517 138 539 153 q 467 115 494 122 q 410 107 439 107 q 261 278 261 107 l 261 717 l 110 717 l 110 256 q 176 54 110 125 q 351 -17 243 -17 q 429 -6 396 -17 q 488 24 463 6 q 530 69 513 43 q 558 122 547 94 l 565 122 l 565 0 l 717 0 l 717 622 q 801 651 779 622 q 822 732 822 681 "},"ự":{"ha":833,"x_min":110,"x_max":822,"o":"m 822 732 l 822 874 l 692 874 l 692 717 l 565 717 l 565 231 q 552 176 565 199 q 517 138 539 153 q 467 115 494 122 q 410 107 439 107 q 261 278 261 107 l 261 717 l 110 717 l 110 256 q 176 54 110 125 q 351 -17 243 -17 q 429 -6 396 -17 q 488 24 463 6 q 530 69 513 43 q 558 122 547 94 l 565 122 l 565 0 l 717 0 l 717 622 q 801 651 779 622 q 822 732 822 681 m 413 -257 q 485 -236 464 -257 q 506 -183 506 -215 l 506 -157 q 485 -104 506 -125 q 413 -83 464 -83 q 340 -104 361 -83 q 319 -157 319 -125 l 319 -183 q 340 -236 319 -215 q 413 -257 361 -257 "},"ừ":{"ha":833,"x_min":110,"x_max":822,"o":"m 236 1035 l 400 804 l 493 849 l 367 1099 l 236 1035 m 822 732 l 822 874 l 692 874 l 692 717 l 565 717 l 565 231 q 552 176 565 199 q 517 138 539 153 q 467 115 494 122 q 410 107 439 107 q 261 278 261 107 l 261 717 l 110 717 l 110 256 q 176 54 110 125 q 351 -17 243 -17 q 429 -6 396 -17 q 488 24 463 6 q 530 69 513 43 q 558 122 547 94 l 565 122 l 565 0 l 717 0 l 717 622 q 801 651 779 622 q 822 732 822 681 "},"ử":{"ha":833,"x_min":110,"x_max":822,"o":"m 275 1079 l 275 968 l 442 968 l 371 831 l 451 792 l 488 836 q 540 917 519 876 q 560 992 560 957 q 535 1053 560 1028 q 446 1079 510 1079 l 275 1079 m 822 732 l 822 874 l 692 874 l 692 717 l 565 717 l 565 231 q 552 176 565 199 q 517 138 539 153 q 467 115 494 122 q 410 107 439 107 q 261 278 261 107 l 261 717 l 110 717 l 110 256 q 176 54 110 125 q 351 -17 243 -17 q 429 -6 396 -17 q 488 24 463 6 q 530 69 513 43 q 558 122 547 94 l 565 122 l 565 0 l 717 0 l 717 622 q 801 651 779 622 q 822 732 822 681 "},"ữ":{"ha":833,"x_min":110,"x_max":822,"o":"m 497 842 q 577 866 544 842 q 631 922 610 890 l 574 992 q 500 957 538 957 q 459 964 479 957 q 414 986 439 971 q 372 1006 394 997 q 319 1015 350 1015 q 240 991 272 1015 q 186 935 207 967 l 243 865 q 317 900 279 900 q 358 893 338 900 q 403 871 378 886 q 444 851 422 860 q 497 842 467 842 m 822 732 l 822 874 l 692 874 l 692 717 l 565 717 l 565 231 q 552 176 565 199 q 517 138 539 153 q 467 115 494 122 q 410 107 439 107 q 261 278 261 107 l 261 717 l 110 717 l 110 256 q 176 54 110 125 q 351 -17 243 -17 q 429 -6 396 -17 q 488 24 463 6 q 530 69 513 43 q 558 122 547 94 l 565 122 l 565 0 l 717 0 l 717 622 q 801 651 779 622 q 822 732 822 681 "},"ẃ":{"ha":833,"x_min":28,"x_max":806,"o":"m 432 804 l 596 1035 l 465 1099 l 339 849 l 432 804 m 28 717 l 128 0 l 314 0 l 411 556 l 424 556 l 519 0 l 706 0 l 806 717 l 682 717 l 611 114 l 599 114 l 493 717 l 346 717 l 239 114 l 226 114 l 157 717 l 28 717 "},"ŵ":{"ha":833,"x_min":28,"x_max":806,"o":"m 493 1075 l 340 1075 l 174 867 l 250 808 l 415 969 l 579 808 l 660 867 l 493 1075 m 28 717 l 128 0 l 314 0 l 411 556 l 424 556 l 519 0 l 706 0 l 806 717 l 682 717 l 611 114 l 599 114 l 493 717 l 346 717 l 239 114 l 226 114 l 157 717 l 28 717 "},"ẅ":{"ha":833,"x_min":28,"x_max":806,"o":"m 278 843 q 350 864 329 843 q 371 917 371 885 l 371 943 q 350 996 371 975 q 278 1017 329 1017 q 206 996 226 1017 q 185 943 185 975 l 185 917 q 206 864 185 885 q 278 843 226 843 m 556 843 q 628 864 607 843 q 649 917 649 885 l 649 943 q 628 996 649 975 q 556 1017 607 1017 q 483 996 504 1017 q 463 943 463 975 l 463 917 q 483 864 463 885 q 556 843 504 843 m 28 717 l 128 0 l 314 0 l 411 556 l 424 556 l 519 0 l 706 0 l 806 717 l 682 717 l 611 114 l 599 114 l 493 717 l 346 717 l 239 114 l 226 114 l 157 717 l 28 717 "},"ẁ":{"ha":833,"x_min":28,"x_max":806,"o":"m 28 717 l 128 0 l 314 0 l 411 556 l 424 556 l 519 0 l 706 0 l 806 717 l 682 717 l 611 114 l 599 114 l 493 717 l 346 717 l 239 114 l 226 114 l 157 717 l 28 717 m 238 1035 l 401 804 l 494 849 l 368 1099 l 238 1035 "},"ý":{"ha":833,"x_min":54,"x_max":779,"o":"m 626 717 l 513 417 l 424 171 l 415 171 l 326 417 l 213 717 l 54 717 l 343 10 l 278 -156 l 108 -156 l 108 -278 l 229 -278 q 359 -243 314 -278 q 432 -139 404 -208 l 779 717 l 626 717 m 433 804 l 597 1035 l 467 1099 l 340 849 l 433 804 "},"ŷ":{"ha":833,"x_min":54,"x_max":779,"o":"m 626 717 l 513 417 l 424 171 l 415 171 l 326 417 l 213 717 l 54 717 l 343 10 l 278 -156 l 108 -156 l 108 -278 l 229 -278 q 359 -243 314 -278 q 432 -139 404 -208 l 779 717 l 626 717 m 494 1075 l 342 1075 l 175 867 l 251 808 l 417 969 l 581 808 l 661 867 l 494 1075 "},"ÿ":{"ha":833,"x_min":54,"x_max":779,"o":"m 626 717 l 513 417 l 424 171 l 415 171 l 326 417 l 213 717 l 54 717 l 343 10 l 278 -156 l 108 -156 l 108 -278 l 229 -278 q 359 -243 314 -278 q 432 -139 404 -208 l 779 717 l 626 717 m 279 843 q 351 864 331 843 q 372 917 372 885 l 372 943 q 351 996 372 975 q 279 1017 331 1017 q 207 996 228 1017 q 186 943 186 975 l 186 917 q 207 864 186 885 q 279 843 228 843 m 557 843 q 629 864 608 843 q 650 917 650 885 l 650 943 q 629 996 650 975 q 557 1017 608 1017 q 485 996 506 1017 q 464 943 464 975 l 464 917 q 485 864 464 885 q 557 843 506 843 "},"ỵ":{"ha":833,"x_min":54,"x_max":779,"o":"m 626 717 l 513 417 l 424 171 l 415 171 l 326 417 l 213 717 l 54 717 l 343 10 l 278 -156 l 108 -156 l 108 -278 l 229 -278 q 359 -243 314 -278 q 432 -139 404 -208 l 779 717 l 626 717 m 651 -257 q 724 -236 703 -257 q 744 -183 744 -215 l 744 -157 q 724 -104 744 -125 q 651 -83 703 -83 q 579 -104 600 -83 q 558 -157 558 -125 l 558 -183 q 579 -236 558 -215 q 651 -257 600 -257 "},"ỳ":{"ha":833,"x_min":54,"x_max":779,"o":"m 626 717 l 513 417 l 424 171 l 415 171 l 326 417 l 213 717 l 54 717 l 343 10 l 278 -156 l 108 -156 l 108 -278 l 229 -278 q 359 -243 314 -278 q 432 -139 404 -208 l 779 717 l 626 717 m 239 1035 l 403 804 l 496 849 l 369 1099 l 239 1035 "},"ỷ":{"ha":833,"x_min":54,"x_max":779,"o":"m 626 717 l 513 417 l 424 171 l 415 171 l 326 417 l 213 717 l 54 717 l 343 10 l 278 -156 l 108 -156 l 108 -278 l 229 -278 q 359 -243 314 -278 q 432 -139 404 -208 l 779 717 l 626 717 m 281 1079 l 281 968 l 447 968 l 376 831 l 457 792 l 493 836 q 545 917 525 876 q 565 992 565 957 q 540 1053 565 1028 q 451 1079 515 1079 l 281 1079 "},"ỹ":{"ha":833,"x_min":54,"x_max":779,"o":"m 626 717 l 513 417 l 424 171 l 415 171 l 326 417 l 213 717 l 54 717 l 343 10 l 278 -156 l 108 -156 l 108 -278 l 229 -278 q 359 -243 314 -278 q 432 -139 404 -208 l 779 717 l 626 717 m 521 839 q 608 863 572 839 q 664 918 643 886 l 607 990 q 568 963 586 972 q 526 954 550 954 q 480 963 504 954 q 424 986 456 971 q 375 1008 400 997 q 315 1018 350 1018 q 228 994 264 1018 q 172 939 193 971 l 229 867 q 268 894 250 885 q 310 903 286 903 q 356 894 332 903 q 413 871 381 886 q 461 849 436 860 q 521 839 486 839 "},"ź":{"ha":833,"x_min":107,"x_max":726,"o":"m 432 804 l 596 1035 l 465 1099 l 339 849 l 432 804 m 107 0 l 726 0 l 726 122 l 276 122 l 713 583 l 713 717 l 122 717 l 122 594 l 543 594 l 107 133 l 107 0 "},"ž":{"ha":833,"x_min":107,"x_max":726,"o":"m 340 819 l 493 819 l 660 1028 l 585 1086 l 419 925 l 254 1086 l 174 1028 l 340 819 m 107 0 l 726 0 l 726 122 l 276 122 l 713 583 l 713 717 l 122 717 l 122 594 l 543 594 l 107 133 l 107 0 "},"ż":{"ha":833,"x_min":107,"x_max":726,"o":"m 107 0 l 726 0 l 726 122 l 276 122 l 713 583 l 713 717 l 122 717 l 122 594 l 543 594 l 107 133 l 107 0 m 417 832 q 497 856 474 832 q 519 914 519 879 l 519 944 q 497 1003 519 979 q 417 1026 474 1026 q 337 1003 360 1026 q 314 944 314 979 l 314 914 q 337 856 314 879 q 417 832 360 832 "},"Á":{"ha":833,"x_min":28,"x_max":807,"o":"m 642 0 l 807 0 l 524 969 l 311 969 l 28 0 l 186 0 l 260 258 l 568 258 l 642 0 m 419 813 l 539 388 l 289 388 l 408 813 l 419 813 m 432 1040 l 596 1271 l 465 1335 l 339 1085 l 432 1040 "},"Ă":{"ha":833,"x_min":28,"x_max":807,"o":"m 642 0 l 807 0 l 524 969 l 311 969 l 28 0 l 186 0 l 260 258 l 568 258 l 642 0 m 419 813 l 539 388 l 289 388 l 408 813 l 419 813 m 417 1049 q 516 1070 475 1049 q 585 1124 557 1092 q 631 1196 613 1157 q 660 1268 649 1235 l 569 1311 l 540 1265 q 484 1187 508 1214 q 417 1160 460 1160 q 378 1167 394 1160 q 349 1187 363 1174 q 323 1220 336 1200 q 293 1265 310 1240 l 264 1311 l 174 1268 q 202 1196 185 1235 q 248 1124 219 1157 q 317 1070 276 1092 q 417 1049 358 1049 "},"Â":{"ha":833,"x_min":28,"x_max":807,"o":"m 642 0 l 807 0 l 524 969 l 311 969 l 28 0 l 186 0 l 260 258 l 568 258 l 642 0 m 419 813 l 539 388 l 289 388 l 408 813 l 419 813 m 493 1311 l 340 1311 l 174 1103 l 250 1044 l 415 1206 l 579 1044 l 660 1103 l 493 1311 "},"Ä":{"ha":833,"x_min":28,"x_max":807,"o":"m 642 0 l 807 0 l 524 969 l 311 969 l 28 0 l 186 0 l 260 258 l 568 258 l 642 0 m 419 813 l 539 388 l 289 388 l 408 813 l 419 813 m 278 1079 q 350 1100 329 1079 q 371 1153 371 1121 l 371 1179 q 350 1232 371 1211 q 278 1253 329 1253 q 206 1232 226 1253 q 185 1179 185 1211 l 185 1153 q 206 1100 185 1121 q 278 1079 226 1079 m 556 1079 q 628 1100 607 1079 q 649 1153 649 1121 l 649 1179 q 628 1232 649 1211 q 556 1253 607 1253 q 483 1232 504 1253 q 463 1179 463 1211 l 463 1153 q 483 1100 463 1121 q 556 1079 504 1079 "},"Ạ":{"ha":833,"x_min":28,"x_max":807,"o":"m 642 0 l 807 0 l 524 969 l 311 969 l 28 0 l 186 0 l 260 258 l 568 258 l 642 0 m 419 813 l 539 388 l 289 388 l 408 813 l 419 813 m 417 -257 q 489 -236 468 -257 q 510 -183 510 -215 l 510 -157 q 489 -104 510 -125 q 417 -83 468 -83 q 344 -104 365 -83 q 324 -157 324 -125 l 324 -183 q 344 -236 324 -215 q 417 -257 365 -257 "},"À":{"ha":833,"x_min":28,"x_max":807,"o":"m 642 0 l 807 0 l 524 969 l 311 969 l 28 0 l 186 0 l 260 258 l 568 258 l 642 0 m 419 813 l 539 388 l 289 388 l 408 813 l 419 813 m 238 1271 l 401 1040 l 494 1085 l 368 1335 l 238 1271 "},"Ả":{"ha":833,"x_min":28,"x_max":807,"o":"m 642 0 l 807 0 l 524 969 l 311 969 l 28 0 l 186 0 l 260 258 l 568 258 l 642 0 m 419 813 l 539 388 l 289 388 l 408 813 l 419 813 m 279 1315 l 279 1204 l 446 1204 l 375 1067 l 456 1028 l 492 1072 q 544 1153 524 1113 q 564 1228 564 1193 q 539 1290 564 1264 q 450 1315 514 1315 l 279 1315 "},"Ā":{"ha":833,"x_min":28,"x_max":807,"o":"m 642 0 l 807 0 l 524 969 l 311 969 l 28 0 l 186 0 l 260 258 l 568 258 l 642 0 m 419 813 l 539 388 l 289 388 l 408 813 l 419 813 m 215 1222 l 215 1108 l 618 1108 l 618 1222 l 215 1222 "},"Ą":{"ha":833,"x_min":28,"x_max":843,"o":"m 311 969 l 28 0 l 186 0 l 260 258 l 568 258 l 642 0 l 696 0 l 697 -4 q 578 -83 619 -42 q 536 -176 536 -124 q 549 -228 536 -207 q 583 -264 561 -250 q 634 -284 606 -278 q 696 -290 663 -290 q 791 -273 754 -290 q 843 -228 828 -256 l 779 -165 q 747 -192 765 -182 q 706 -203 729 -203 q 667 -192 683 -203 q 650 -153 650 -181 q 655 -129 650 -142 q 676 -99 660 -117 q 723 -57 692 -81 q 807 0 754 -33 l 524 969 l 311 969 m 419 813 l 539 388 l 289 388 l 408 813 l 419 813 "},"Å":{"ha":833,"x_min":28,"x_max":807,"o":"m 642 0 l 807 0 l 524 969 l 311 969 l 28 0 l 186 0 l 260 258 l 568 258 l 642 0 m 419 813 l 539 388 l 289 388 l 408 813 l 419 813 m 417 1021 q 488 1034 454 1021 q 544 1070 521 1047 q 582 1126 568 1093 q 596 1196 596 1158 q 582 1267 596 1235 q 544 1322 568 1299 q 488 1359 521 1346 q 417 1372 454 1372 q 346 1359 379 1372 q 289 1322 313 1346 q 251 1267 265 1299 q 238 1196 238 1235 q 251 1126 238 1158 q 289 1070 265 1093 q 346 1034 313 1047 q 417 1021 379 1021 m 417 1104 q 340 1178 340 1104 l 340 1215 q 417 1289 340 1289 q 493 1215 493 1289 l 493 1178 q 417 1104 493 1104 "},"Ǻ":{"ha":833,"x_min":28,"x_max":807,"o":"m 642 0 l 807 0 l 524 969 l 311 969 l 28 0 l 186 0 l 260 258 l 568 258 l 642 0 m 419 813 l 539 388 l 289 388 l 408 813 l 419 813 m 424 1364 l 589 1506 l 489 1572 l 356 1413 l 424 1364 m 417 1015 q 488 1027 454 1015 q 546 1060 521 1039 q 585 1112 571 1082 q 599 1178 599 1142 q 585 1245 599 1215 q 546 1297 571 1275 q 488 1330 521 1318 q 417 1342 454 1342 q 346 1330 379 1342 q 288 1297 313 1318 q 249 1245 263 1275 q 235 1178 235 1215 q 249 1112 235 1142 q 288 1060 263 1082 q 346 1027 313 1039 q 417 1015 379 1015 m 417 1096 q 358 1113 379 1096 q 338 1167 338 1131 l 338 1190 q 358 1244 338 1226 q 417 1261 379 1261 q 475 1244 454 1261 q 496 1190 496 1226 l 496 1167 q 475 1113 496 1131 q 417 1096 454 1096 "},"Ã":{"ha":833,"x_min":28,"x_max":807,"o":"m 642 0 l 807 0 l 524 969 l 311 969 l 28 0 l 186 0 l 260 258 l 568 258 l 642 0 m 419 813 l 539 388 l 289 388 l 408 813 l 419 813 m 519 1075 q 606 1099 571 1075 q 663 1154 642 1122 l 606 1226 q 567 1199 585 1208 q 525 1190 549 1190 q 478 1199 503 1190 q 422 1222 454 1207 q 374 1244 399 1233 q 314 1254 349 1254 q 227 1231 263 1254 q 171 1175 192 1207 l 228 1103 q 267 1130 249 1121 q 308 1139 285 1139 q 355 1131 331 1139 q 411 1107 379 1122 q 460 1085 435 1096 q 519 1075 485 1075 "},"Ắ":{"ha":833,"x_min":28,"x_max":807,"o":"m 642 0 l 807 0 l 524 969 l 311 969 l 28 0 l 186 0 l 260 258 l 568 258 l 642 0 m 419 813 l 539 388 l 289 388 l 408 813 l 419 813 m 417 1036 q 517 1054 475 1036 q 588 1101 558 1072 q 637 1165 618 1129 q 668 1235 656 1200 l 586 1281 l 557 1239 q 491 1166 521 1186 q 417 1146 461 1146 q 342 1166 372 1146 q 276 1239 313 1186 l 247 1281 l 165 1235 q 197 1165 178 1200 q 245 1101 215 1129 q 317 1054 275 1072 q 417 1036 358 1036 m 433 1229 l 597 1460 l 474 1521 l 347 1269 l 433 1229 "},"Ặ":{"ha":833,"x_min":28,"x_max":807,"o":"m 642 0 l 807 0 l 524 969 l 311 969 l 28 0 l 186 0 l 260 258 l 568 258 l 642 0 m 419 813 l 539 388 l 289 388 l 408 813 l 419 813 m 417 1049 q 516 1070 475 1049 q 585 1124 557 1092 q 631 1196 613 1157 q 660 1268 649 1235 l 569 1311 l 540 1265 q 484 1187 508 1214 q 417 1160 460 1160 q 378 1167 394 1160 q 349 1187 363 1174 q 323 1220 336 1200 q 293 1265 310 1240 l 264 1311 l 174 1268 q 202 1196 185 1235 q 248 1124 219 1157 q 317 1070 276 1092 q 417 1049 358 1049 m 417 -257 q 489 -236 468 -257 q 510 -183 510 -215 l 510 -157 q 489 -104 510 -125 q 417 -83 468 -83 q 344 -104 365 -83 q 324 -157 324 -125 l 324 -183 q 344 -236 324 -215 q 417 -257 365 -257 "},"Ằ":{"ha":833,"x_min":28,"x_max":807,"o":"m 642 0 l 807 0 l 524 969 l 311 969 l 28 0 l 186 0 l 260 258 l 568 258 l 642 0 m 419 813 l 539 388 l 289 388 l 408 813 l 419 813 m 417 1036 q 517 1054 475 1036 q 588 1101 558 1072 q 637 1165 618 1129 q 668 1235 656 1200 l 586 1281 l 557 1239 q 491 1166 521 1186 q 417 1146 461 1146 q 342 1166 372 1146 q 276 1239 313 1186 l 247 1281 l 165 1235 q 197 1165 178 1200 q 245 1101 215 1129 q 317 1054 275 1072 q 417 1036 358 1036 m 236 1460 l 400 1229 l 486 1269 l 360 1521 l 236 1460 "},"Ẳ":{"ha":833,"x_min":28,"x_max":807,"o":"m 642 0 l 807 0 l 524 969 l 311 969 l 28 0 l 186 0 l 260 258 l 568 258 l 642 0 m 419 813 l 539 388 l 289 388 l 408 813 l 419 813 m 272 1503 l 272 1394 l 426 1394 l 354 1254 l 431 1217 l 465 1260 q 520 1342 499 1301 q 542 1417 542 1382 q 517 1477 542 1451 q 428 1503 492 1503 l 272 1503 m 417 1036 q 517 1054 475 1036 q 588 1101 558 1072 q 637 1165 618 1129 q 668 1235 656 1200 l 586 1281 l 557 1239 q 491 1166 521 1186 q 417 1146 461 1146 q 342 1166 372 1146 q 276 1239 313 1186 l 247 1281 l 165 1235 q 197 1165 178 1200 q 245 1101 215 1129 q 317 1054 275 1072 q 417 1036 358 1036 "},"Ẵ":{"ha":833,"x_min":28,"x_max":807,"o":"m 642 0 l 807 0 l 524 969 l 311 969 l 28 0 l 186 0 l 260 258 l 568 258 l 642 0 m 419 813 l 539 388 l 289 388 l 408 813 l 419 813 m 518 1310 q 605 1334 569 1310 q 661 1390 640 1358 l 607 1456 q 568 1428 586 1438 q 526 1419 550 1419 q 480 1428 504 1419 q 424 1451 456 1436 q 375 1474 400 1463 q 315 1485 350 1485 q 228 1460 264 1485 q 172 1404 193 1436 l 226 1339 q 265 1366 247 1357 q 307 1375 283 1375 q 353 1367 329 1375 q 410 1343 378 1358 q 458 1321 433 1332 q 518 1310 483 1310 m 417 1036 q 517 1054 475 1036 q 588 1101 558 1072 q 637 1165 618 1129 q 668 1235 656 1200 l 586 1281 l 557 1239 q 491 1166 521 1186 q 417 1146 461 1146 q 342 1166 372 1146 q 276 1239 313 1186 l 247 1281 l 165 1235 q 197 1165 178 1200 q 245 1101 215 1129 q 317 1054 275 1072 q 417 1036 358 1036 "},"Ấ":{"ha":833,"x_min":28,"x_max":807,"o":"m 642 0 l 807 0 l 524 969 l 311 969 l 28 0 l 186 0 l 260 258 l 568 258 l 642 0 m 419 813 l 539 388 l 289 388 l 408 813 l 419 813 m 642 1232 l 806 1463 l 682 1524 l 556 1274 l 642 1232 m 485 1294 l 349 1294 l 176 1093 l 249 1032 l 415 1188 l 582 1032 l 657 1093 l 485 1294 "},"Ậ":{"ha":833,"x_min":28,"x_max":807,"o":"m 642 0 l 807 0 l 524 969 l 311 969 l 28 0 l 186 0 l 260 258 l 568 258 l 642 0 m 419 813 l 539 388 l 289 388 l 408 813 l 419 813 m 493 1311 l 340 1311 l 174 1103 l 250 1044 l 415 1206 l 579 1044 l 660 1103 l 493 1311 m 417 -257 q 489 -236 468 -257 q 510 -183 510 -215 l 510 -157 q 489 -104 510 -125 q 417 -83 468 -83 q 344 -104 365 -83 q 324 -157 324 -125 l 324 -183 q 344 -236 324 -215 q 417 -257 365 -257 "},"Ầ":{"ha":833,"x_min":28,"x_max":807,"o":"m 642 0 l 807 0 l 524 969 l 311 969 l 28 0 l 186 0 l 260 258 l 568 258 l 642 0 m 419 813 l 539 388 l 289 388 l 408 813 l 419 813 m 28 1463 l 192 1232 l 278 1274 l 151 1524 l 28 1463 m 485 1294 l 349 1294 l 176 1093 l 249 1032 l 415 1188 l 582 1032 l 657 1093 l 485 1294 "},"Ẩ":{"ha":833,"x_min":28,"x_max":807,"o":"m 642 0 l 807 0 l 524 969 l 311 969 l 28 0 l 186 0 l 260 258 l 568 258 l 642 0 m 419 813 l 539 388 l 289 388 l 408 813 l 419 813 m 482 1507 l 482 1399 l 646 1399 l 574 1258 l 650 1219 l 685 1263 q 740 1344 718 1304 q 761 1419 761 1385 q 736 1481 761 1456 q 647 1507 711 1507 l 482 1507 m 485 1294 l 349 1294 l 176 1093 l 249 1032 l 415 1188 l 582 1032 l 657 1093 l 485 1294 "},"Ẫ":{"ha":833,"x_min":28,"x_max":807,"o":"m 642 0 l 807 0 l 524 969 l 311 969 l 28 0 l 186 0 l 260 258 l 568 258 l 642 0 m 419 813 l 539 388 l 289 388 l 408 813 l 419 813 m 315 1499 q 228 1474 264 1499 q 172 1418 193 1450 l 226 1353 q 265 1380 247 1371 q 307 1389 283 1389 q 353 1381 329 1389 q 410 1357 378 1372 q 458 1335 433 1346 q 518 1324 483 1324 q 605 1348 569 1324 q 661 1404 640 1372 l 607 1469 q 568 1442 586 1451 q 526 1433 550 1433 q 480 1442 504 1433 q 424 1465 456 1450 q 375 1488 400 1476 q 315 1499 350 1499 m 485 1279 l 349 1279 l 176 1093 l 249 1032 l 415 1176 l 582 1032 l 657 1093 l 485 1279 "},"Æ":{"ha":833,"x_min":14,"x_max":785,"o":"m 414 260 l 414 0 l 785 0 l 785 121 l 560 121 l 560 431 l 769 431 l 769 551 l 560 551 l 560 849 l 785 849 l 785 969 l 272 969 l 14 0 l 167 0 l 231 260 l 414 260 m 376 861 l 414 861 l 414 381 l 258 381 l 376 861 "},"Ǽ":{"ha":833,"x_min":14,"x_max":785,"o":"m 414 260 l 414 0 l 785 0 l 785 121 l 560 121 l 560 431 l 769 431 l 769 551 l 560 551 l 560 849 l 785 849 l 785 969 l 272 969 l 14 0 l 167 0 l 231 260 l 414 260 m 376 861 l 414 861 l 414 381 l 258 381 l 376 861 m 543 1040 l 707 1271 l 576 1335 l 450 1085 l 543 1040 "},"Ć":{"ha":833,"x_min":81,"x_max":763,"o":"m 444 -17 q 567 2 515 -17 q 657 53 619 21 q 720 130 694 86 q 763 224 746 174 l 622 271 q 597 208 611 238 q 563 158 583 179 q 513 125 542 138 q 443 113 485 113 q 293 191 340 113 q 246 403 246 269 l 246 567 q 293 778 246 700 q 443 857 340 857 q 513 844 485 857 q 563 811 542 832 q 597 761 583 790 q 622 699 611 732 l 763 746 q 720 840 746 796 q 657 916 694 883 q 567 967 619 949 q 444 986 515 986 q 170 856 260 986 q 81 485 81 725 q 170 114 81 244 q 444 -17 260 -17 m 461 1040 l 625 1271 l 494 1335 l 368 1085 l 461 1040 "},"Č":{"ha":833,"x_min":81,"x_max":763,"o":"m 444 -17 q 567 2 515 -17 q 657 53 619 21 q 720 130 694 86 q 763 224 746 174 l 622 271 q 597 208 611 238 q 563 158 583 179 q 513 125 542 138 q 443 113 485 113 q 293 191 340 113 q 246 403 246 269 l 246 567 q 293 778 246 700 q 443 857 340 857 q 513 844 485 857 q 563 811 542 832 q 597 761 583 790 q 622 699 611 732 l 763 746 q 720 840 746 796 q 657 916 694 883 q 567 967 619 949 q 444 986 515 986 q 170 856 260 986 q 81 485 81 725 q 170 114 81 244 q 444 -17 260 -17 m 369 1056 l 522 1056 l 689 1264 l 613 1322 l 447 1161 l 283 1322 l 203 1264 l 369 1056 "},"Ç":{"ha":833,"x_min":81,"x_max":763,"o":"m 443 857 q 513 844 485 857 q 563 811 542 832 q 597 761 583 790 q 622 699 611 732 l 763 746 q 720 840 746 796 q 657 916 694 883 q 567 967 619 949 q 444 986 515 986 q 170 856 260 986 q 81 485 81 725 q 154 137 81 264 q 382 -12 228 10 l 364 -106 l 399 -110 q 478 -133 458 -117 q 497 -165 497 -149 q 480 -196 497 -186 q 436 -206 463 -206 q 383 -194 404 -206 q 349 -167 361 -182 l 290 -232 q 343 -271 307 -251 q 443 -290 379 -290 q 506 -283 476 -290 q 559 -262 536 -276 q 596 -225 582 -247 q 610 -171 610 -203 q 581 -99 610 -122 q 511 -76 553 -76 q 483 -79 497 -76 q 453 -86 468 -82 l 447 -81 l 460 -17 q 576 6 526 -14 q 661 57 625 25 q 722 132 697 89 q 763 224 746 175 l 622 271 q 597 208 611 238 q 563 158 583 179 q 513 125 542 138 q 443 113 485 113 q 354 133 392 113 q 293 192 317 154 q 258 283 269 229 q 246 403 246 336 l 246 567 q 293 778 246 700 q 443 857 340 857 "},"Ĉ":{"ha":833,"x_min":81,"x_max":763,"o":"m 444 -17 q 567 2 515 -17 q 657 53 619 21 q 720 130 694 86 q 763 224 746 174 l 622 271 q 597 208 611 238 q 563 158 583 179 q 513 125 542 138 q 443 113 485 113 q 293 191 340 113 q 246 403 246 269 l 246 567 q 293 778 246 700 q 443 857 340 857 q 513 844 485 857 q 563 811 542 832 q 597 761 583 790 q 622 699 611 732 l 763 746 q 720 840 746 796 q 657 916 694 883 q 567 967 619 949 q 444 986 515 986 q 170 856 260 986 q 81 485 81 725 q 170 114 81 244 q 444 -17 260 -17 m 522 1311 l 369 1311 l 203 1103 l 279 1044 l 444 1206 l 608 1044 l 689 1103 l 522 1311 "},"Ċ":{"ha":833,"x_min":81,"x_max":763,"o":"m 446 1068 q 526 1092 503 1068 q 549 1150 549 1115 l 549 1181 q 526 1239 549 1215 q 446 1263 503 1263 q 366 1239 389 1263 q 343 1181 343 1215 l 343 1150 q 366 1092 343 1115 q 446 1068 389 1068 m 444 -17 q 567 2 515 -17 q 657 53 619 21 q 720 130 694 86 q 763 224 746 174 l 622 271 q 597 208 611 238 q 563 158 583 179 q 513 125 542 138 q 443 113 485 113 q 293 191 340 113 q 246 403 246 269 l 246 567 q 293 778 246 700 q 443 857 340 857 q 513 844 485 857 q 563 811 542 832 q 597 761 583 790 q 622 699 611 732 l 763 746 q 720 840 746 796 q 657 916 694 883 q 567 967 619 949 q 444 986 515 986 q 170 856 260 986 q 81 485 81 725 q 170 114 81 244 q 444 -17 260 -17 "},"Ď":{"ha":833,"x_min":114,"x_max":768,"o":"m 114 969 l 114 0 l 403 0 q 678 124 589 0 q 768 485 768 247 q 678 846 768 722 q 403 969 589 969 l 114 969 m 393 128 l 268 128 l 268 842 l 393 842 q 552 770 500 842 q 604 565 604 699 l 604 404 q 552 199 604 271 q 393 128 500 128 m 311 1056 l 464 1056 l 631 1264 l 554 1322 l 389 1161 l 225 1322 l 144 1264 l 311 1056 "},"Đ":{"ha":833,"x_min":24,"x_max":768,"o":"m 122 453 l 122 0 l 403 0 q 678 124 589 0 q 768 485 768 247 q 678 846 768 722 q 403 969 589 969 l 122 969 l 122 571 l 24 571 l 24 453 l 122 453 m 393 128 l 276 128 l 276 456 l 454 456 l 454 567 l 276 567 l 276 842 l 393 842 q 552 770 500 842 q 604 565 604 699 l 604 404 q 552 199 604 271 q 393 128 500 128 "},"Ð":{"ha":833,"x_min":24,"x_max":768,"o":"m 122 453 l 122 0 l 403 0 q 678 124 589 0 q 768 485 768 247 q 678 846 768 722 q 403 969 589 969 l 122 969 l 122 571 l 24 571 l 24 453 l 122 453 m 393 128 l 276 128 l 276 456 l 454 456 l 454 567 l 276 567 l 276 842 l 393 842 q 552 770 500 842 q 604 565 604 699 l 604 404 q 552 199 604 271 q 393 128 500 128 "},"É":{"ha":833,"x_min":119,"x_max":726,"o":"m 119 0 l 726 0 l 726 131 l 275 131 l 275 426 l 710 426 l 710 557 l 275 557 l 275 839 l 726 839 l 726 969 l 119 969 l 119 0 m 438 1040 l 601 1271 l 471 1335 l 344 1085 l 438 1040 "},"Ĕ":{"ha":833,"x_min":119,"x_max":726,"o":"m 119 0 l 726 0 l 726 131 l 275 131 l 275 426 l 710 426 l 710 557 l 275 557 l 275 839 l 726 839 l 726 969 l 119 969 l 119 0 m 422 1049 q 522 1070 481 1049 q 590 1124 563 1092 q 636 1196 618 1157 q 665 1268 654 1235 l 575 1311 l 546 1265 q 490 1187 514 1214 q 422 1160 465 1160 q 384 1167 400 1160 q 355 1187 368 1174 q 328 1220 342 1200 q 299 1265 315 1240 l 269 1311 l 179 1268 q 208 1196 190 1235 q 253 1124 225 1157 q 323 1070 282 1092 q 422 1049 364 1049 "},"Ě":{"ha":833,"x_min":119,"x_max":726,"o":"m 119 0 l 726 0 l 726 131 l 275 131 l 275 426 l 710 426 l 710 557 l 275 557 l 275 839 l 726 839 l 726 969 l 119 969 l 119 0 m 346 1056 l 499 1056 l 665 1264 l 589 1322 l 424 1161 l 260 1322 l 179 1264 l 346 1056 "},"Ê":{"ha":833,"x_min":119,"x_max":726,"o":"m 499 1311 l 346 1311 l 179 1103 l 256 1044 l 421 1206 l 585 1044 l 665 1103 l 499 1311 m 119 0 l 726 0 l 726 131 l 275 131 l 275 426 l 710 426 l 710 557 l 275 557 l 275 839 l 726 839 l 726 969 l 119 969 l 119 0 "},"Ë":{"ha":833,"x_min":119,"x_max":726,"o":"m 119 0 l 726 0 l 726 131 l 275 131 l 275 426 l 710 426 l 710 557 l 275 557 l 275 839 l 726 839 l 726 969 l 119 969 l 119 0 m 283 1079 q 356 1100 335 1079 q 376 1153 376 1121 l 376 1179 q 356 1232 376 1211 q 283 1253 335 1253 q 211 1232 232 1253 q 190 1179 190 1211 l 190 1153 q 211 1100 190 1121 q 283 1079 232 1079 m 561 1079 q 633 1100 613 1079 q 654 1153 654 1121 l 654 1179 q 633 1232 654 1211 q 561 1253 613 1253 q 489 1232 510 1253 q 468 1179 468 1211 l 468 1153 q 489 1100 468 1121 q 561 1079 510 1079 "},"Ė":{"ha":833,"x_min":119,"x_max":726,"o":"m 422 1068 q 502 1092 479 1068 q 525 1150 525 1115 l 525 1181 q 502 1239 525 1215 q 422 1263 479 1263 q 342 1239 365 1263 q 319 1181 319 1215 l 319 1150 q 342 1092 319 1115 q 422 1068 365 1068 m 119 0 l 726 0 l 726 131 l 275 131 l 275 426 l 710 426 l 710 557 l 275 557 l 275 839 l 726 839 l 726 969 l 119 969 l 119 0 "},"Ẹ":{"ha":833,"x_min":119,"x_max":726,"o":"m 119 0 l 726 0 l 726 131 l 275 131 l 275 426 l 710 426 l 710 557 l 275 557 l 275 839 l 726 839 l 726 969 l 119 969 l 119 0 m 422 -257 q 494 -236 474 -257 q 515 -183 515 -215 l 515 -157 q 494 -104 515 -125 q 422 -83 474 -83 q 350 -104 371 -83 q 329 -157 329 -125 l 329 -183 q 350 -236 329 -215 q 422 -257 371 -257 "},"È":{"ha":833,"x_min":119,"x_max":726,"o":"m 243 1271 l 407 1040 l 500 1085 l 374 1335 l 243 1271 m 119 0 l 726 0 l 726 131 l 275 131 l 275 426 l 710 426 l 710 557 l 275 557 l 275 839 l 726 839 l 726 969 l 119 969 l 119 0 "},"Ẻ":{"ha":833,"x_min":119,"x_max":726,"o":"m 119 0 l 726 0 l 726 131 l 275 131 l 275 426 l 710 426 l 710 557 l 275 557 l 275 839 l 726 839 l 726 969 l 119 969 l 119 0 m 285 1315 l 285 1204 l 451 1204 l 381 1067 l 461 1028 l 497 1072 q 549 1153 529 1113 q 569 1228 569 1193 q 544 1290 569 1264 q 456 1315 519 1315 l 285 1315 "},"Ē":{"ha":833,"x_min":119,"x_max":726,"o":"m 119 0 l 726 0 l 726 131 l 275 131 l 275 426 l 710 426 l 710 557 l 275 557 l 275 839 l 726 839 l 726 969 l 119 969 l 119 0 m 221 1222 l 221 1108 l 624 1108 l 624 1222 l 221 1222 "},"Ę":{"ha":833,"x_min":119,"x_max":763,"o":"m 119 969 l 119 0 l 615 0 l 617 -4 q 497 -83 539 -42 q 456 -176 456 -124 q 468 -228 456 -207 q 503 -264 481 -250 q 553 -284 525 -278 q 615 -290 582 -290 q 710 -273 674 -290 q 763 -228 747 -256 l 699 -165 q 667 -192 685 -182 q 625 -203 649 -203 q 586 -192 603 -203 q 569 -153 569 -181 q 574 -129 569 -142 q 595 -99 579 -117 q 642 -57 611 -81 q 726 0 674 -33 l 726 131 l 275 131 l 275 426 l 710 426 l 710 557 l 275 557 l 275 839 l 726 839 l 726 969 l 119 969 "},"Ẽ":{"ha":833,"x_min":119,"x_max":726,"o":"m 119 0 l 726 0 l 726 131 l 275 131 l 275 426 l 710 426 l 710 557 l 275 557 l 275 839 l 726 839 l 726 969 l 119 969 l 119 0 m 525 1075 q 612 1099 576 1075 q 668 1154 647 1122 l 611 1226 q 572 1199 590 1208 q 531 1190 554 1190 q 484 1199 508 1190 q 428 1222 460 1207 q 379 1244 404 1233 q 319 1254 354 1254 q 233 1231 268 1254 q 176 1175 197 1207 l 233 1103 q 272 1130 254 1121 q 314 1139 290 1139 q 360 1131 336 1139 q 417 1107 385 1122 q 465 1085 440 1096 q 525 1075 490 1075 "},"Ế":{"ha":833,"x_min":119,"x_max":811,"o":"m 119 0 l 726 0 l 726 131 l 275 131 l 275 426 l 710 426 l 710 557 l 275 557 l 275 839 l 726 839 l 726 969 l 119 969 l 119 0 m 647 1232 l 811 1463 l 688 1524 l 561 1274 l 647 1232 m 490 1294 l 354 1294 l 182 1093 l 254 1032 l 421 1188 l 588 1032 l 663 1093 l 490 1294 "},"Ệ":{"ha":833,"x_min":119,"x_max":726,"o":"m 499 1311 l 346 1311 l 179 1103 l 256 1044 l 421 1206 l 585 1044 l 665 1103 l 499 1311 m 119 0 l 726 0 l 726 131 l 275 131 l 275 426 l 710 426 l 710 557 l 275 557 l 275 839 l 726 839 l 726 969 l 119 969 l 119 0 m 422 -257 q 494 -236 474 -257 q 515 -183 515 -215 l 515 -157 q 494 -104 515 -125 q 422 -83 474 -83 q 350 -104 371 -83 q 329 -157 329 -125 l 329 -183 q 350 -236 329 -215 q 422 -257 371 -257 "},"Ề":{"ha":833,"x_min":33,"x_max":726,"o":"m 33 1463 l 197 1232 l 283 1274 l 157 1524 l 33 1463 m 490 1294 l 354 1294 l 182 1093 l 254 1032 l 421 1188 l 588 1032 l 663 1093 l 490 1294 m 119 0 l 726 0 l 726 131 l 275 131 l 275 426 l 710 426 l 710 557 l 275 557 l 275 839 l 726 839 l 726 969 l 119 969 l 119 0 "},"Ể":{"ha":833,"x_min":119,"x_max":767,"o":"m 488 1507 l 488 1399 l 651 1399 l 579 1258 l 656 1219 l 690 1263 q 745 1344 724 1304 q 767 1419 767 1385 q 742 1481 767 1456 q 653 1507 717 1507 l 488 1507 m 490 1294 l 354 1294 l 182 1093 l 254 1032 l 421 1188 l 588 1032 l 663 1093 l 490 1294 m 119 0 l 726 0 l 726 131 l 275 131 l 275 426 l 710 426 l 710 557 l 275 557 l 275 839 l 726 839 l 726 969 l 119 969 l 119 0 "},"Ễ":{"ha":833,"x_min":119,"x_max":726,"o":"m 119 0 l 726 0 l 726 131 l 275 131 l 275 426 l 710 426 l 710 557 l 275 557 l 275 839 l 726 839 l 726 969 l 119 969 l 119 0 m 321 1499 q 234 1474 269 1499 q 178 1418 199 1450 l 232 1353 q 271 1380 253 1371 q 313 1389 289 1389 q 359 1381 335 1389 q 415 1357 383 1372 q 464 1335 439 1346 q 524 1324 489 1324 q 610 1348 575 1324 q 667 1404 646 1372 l 613 1469 q 574 1442 592 1451 q 532 1433 556 1433 q 485 1442 510 1433 q 429 1465 461 1450 q 381 1488 406 1476 q 321 1499 356 1499 m 490 1279 l 354 1279 l 182 1093 l 254 1032 l 421 1176 l 588 1032 l 663 1093 l 490 1279 "},"Ə":{"ha":833,"x_min":61,"x_max":772,"o":"m 417 -17 q 576 17 508 -17 q 687 116 643 51 q 751 274 731 181 q 772 486 772 367 q 751 696 772 603 q 687 853 731 789 q 575 952 643 918 q 411 986 507 986 q 192 920 276 986 q 76 728 108 854 l 208 674 q 288 817 238 776 q 407 857 339 857 q 503 836 464 857 q 566 777 542 815 q 601 685 590 739 q 611 565 611 631 l 611 532 l 61 532 l 61 485 q 82 272 61 365 q 147 115 103 179 q 258 17 190 51 q 417 -17 325 -17 m 415 111 q 325 132 363 111 q 265 190 288 153 q 231 282 242 228 q 221 403 221 336 l 221 413 l 611 413 l 611 403 q 601 282 611 336 q 567 190 590 228 q 506 132 543 153 q 415 111 469 111 "},"Ğ":{"ha":833,"x_min":65,"x_max":739,"o":"m 597 133 l 597 0 l 739 0 l 739 496 l 410 496 l 410 379 l 597 379 l 597 292 q 552 162 597 213 q 422 111 507 111 q 333 133 369 111 q 273 195 296 156 q 240 290 250 235 q 231 413 231 346 l 231 567 q 276 778 231 700 q 422 857 321 857 q 491 844 463 857 q 540 810 519 832 q 574 759 560 788 q 599 699 588 731 l 739 746 q 699 838 724 794 q 636 915 674 882 q 545 967 599 947 q 421 986 492 986 q 153 856 240 986 q 65 478 65 725 q 142 113 65 242 q 369 -17 218 -17 q 453 -4 417 -17 q 515 29 489 8 q 558 77 540 50 q 588 133 575 104 l 597 133 m 421 1049 q 520 1070 479 1049 q 589 1124 561 1092 q 635 1196 617 1157 q 664 1268 653 1235 l 574 1311 l 544 1265 q 488 1187 513 1214 q 421 1160 464 1160 q 383 1167 399 1160 q 353 1187 367 1174 q 327 1220 340 1200 q 297 1265 314 1240 l 268 1311 l 178 1268 q 206 1196 189 1235 q 252 1124 224 1157 q 322 1070 281 1092 q 421 1049 363 1049 "},"Ĝ":{"ha":833,"x_min":65,"x_max":739,"o":"m 497 1311 l 344 1311 l 178 1103 l 254 1044 l 419 1206 l 583 1044 l 664 1103 l 497 1311 m 597 133 l 597 0 l 739 0 l 739 496 l 410 496 l 410 379 l 597 379 l 597 292 q 552 162 597 213 q 422 111 507 111 q 333 133 369 111 q 273 195 296 156 q 240 290 250 235 q 231 413 231 346 l 231 567 q 276 778 231 700 q 422 857 321 857 q 491 844 463 857 q 540 810 519 832 q 574 759 560 788 q 599 699 588 731 l 739 746 q 699 838 724 794 q 636 915 674 882 q 545 967 599 947 q 421 986 492 986 q 153 856 240 986 q 65 478 65 725 q 142 113 65 242 q 369 -17 218 -17 q 453 -4 417 -17 q 515 29 489 8 q 558 77 540 50 q 588 133 575 104 l 597 133 "},"Ģ":{"ha":833,"x_min":65,"x_max":739,"o":"m 328 -82 l 294 -360 l 396 -360 l 507 -82 l 328 -82 m 597 133 l 597 0 l 739 0 l 739 496 l 410 496 l 410 379 l 597 379 l 597 292 q 552 162 597 213 q 422 111 507 111 q 333 133 369 111 q 273 195 296 156 q 240 290 250 235 q 231 413 231 346 l 231 567 q 276 778 231 700 q 422 857 321 857 q 491 844 463 857 q 540 810 519 832 q 574 759 560 788 q 599 699 588 731 l 739 746 q 699 838 724 794 q 636 915 674 882 q 545 967 599 947 q 421 986 492 986 q 153 856 240 986 q 65 478 65 725 q 142 113 65 242 q 369 -17 218 -17 q 453 -4 417 -17 q 515 29 489 8 q 558 77 540 50 q 588 133 575 104 l 597 133 "},"Ġ":{"ha":833,"x_min":65,"x_max":739,"o":"m 421 1068 q 501 1092 478 1068 q 524 1150 524 1115 l 524 1181 q 501 1239 524 1215 q 421 1263 478 1263 q 341 1239 364 1263 q 318 1181 318 1215 l 318 1150 q 341 1092 318 1115 q 421 1068 364 1068 m 597 133 l 597 0 l 739 0 l 739 496 l 410 496 l 410 379 l 597 379 l 597 292 q 552 162 597 213 q 422 111 507 111 q 333 133 369 111 q 273 195 296 156 q 240 290 250 235 q 231 413 231 346 l 231 567 q 276 778 231 700 q 422 857 321 857 q 491 844 463 857 q 540 810 519 832 q 574 759 560 788 q 599 699 588 731 l 739 746 q 699 838 724 794 q 636 915 674 882 q 545 967 599 947 q 421 986 492 986 q 153 856 240 986 q 65 478 65 725 q 142 113 65 242 q 369 -17 218 -17 q 453 -4 417 -17 q 515 29 489 8 q 558 77 540 50 q 588 133 575 104 l 597 133 "},"Ħ":{"ha":833,"x_min":11,"x_max":822,"o":"m 578 426 l 578 0 l 733 0 l 733 713 l 822 713 l 822 831 l 733 831 l 733 969 l 578 969 l 578 826 l 256 826 l 256 969 l 100 969 l 100 831 l 11 831 l 11 713 l 100 713 l 100 0 l 256 0 l 256 426 l 578 426 m 578 557 l 256 557 l 256 717 l 578 717 l 578 557 "},"Ĥ":{"ha":833,"x_min":100,"x_max":733,"o":"m 578 426 l 578 0 l 733 0 l 733 969 l 578 969 l 578 557 l 256 557 l 256 969 l 100 969 l 100 0 l 256 0 l 256 426 l 578 426 m 493 1311 l 340 1311 l 174 1103 l 250 1044 l 415 1206 l 579 1044 l 660 1103 l 493 1311 "},"Í":{"ha":833,"x_min":111,"x_max":722,"o":"m 111 0 l 722 0 l 722 118 l 494 118 l 494 851 l 722 851 l 722 969 l 111 969 l 111 851 l 339 851 l 339 118 l 111 118 l 111 0 m 432 1040 l 596 1271 l 465 1335 l 339 1085 l 432 1040 "},"Ĭ":{"ha":833,"x_min":111,"x_max":722,"o":"m 111 0 l 722 0 l 722 118 l 494 118 l 494 851 l 722 851 l 722 969 l 111 969 l 111 851 l 339 851 l 339 118 l 111 118 l 111 0 m 417 1049 q 516 1070 475 1049 q 585 1124 557 1092 q 631 1196 613 1157 q 660 1268 649 1235 l 569 1311 l 540 1265 q 484 1187 508 1214 q 417 1160 460 1160 q 378 1167 394 1160 q 349 1187 363 1174 q 323 1220 336 1200 q 293 1265 310 1240 l 264 1311 l 174 1268 q 202 1196 185 1235 q 248 1124 219 1157 q 317 1070 276 1092 q 417 1049 358 1049 "},"Î":{"ha":833,"x_min":111,"x_max":722,"o":"m 111 0 l 722 0 l 722 118 l 494 118 l 494 851 l 722 851 l 722 969 l 111 969 l 111 851 l 339 851 l 339 118 l 111 118 l 111 0 m 493 1311 l 340 1311 l 174 1103 l 250 1044 l 415 1206 l 579 1044 l 660 1103 l 493 1311 "},"Ï":{"ha":833,"x_min":111,"x_max":722,"o":"m 111 0 l 722 0 l 722 118 l 494 118 l 494 851 l 722 851 l 722 969 l 111 969 l 111 851 l 339 851 l 339 118 l 111 118 l 111 0 m 278 1079 q 350 1100 329 1079 q 371 1153 371 1121 l 371 1179 q 350 1232 371 1211 q 278 1253 329 1253 q 206 1232 226 1253 q 185 1179 185 1211 l 185 1153 q 206 1100 185 1121 q 278 1079 226 1079 m 556 1079 q 628 1100 607 1079 q 649 1153 649 1121 l 649 1179 q 628 1232 649 1211 q 556 1253 607 1253 q 483 1232 504 1253 q 463 1179 463 1211 l 463 1153 q 483 1100 463 1121 q 556 1079 504 1079 "},"İ":{"ha":833,"x_min":111,"x_max":722,"o":"m 111 0 l 722 0 l 722 118 l 494 118 l 494 851 l 722 851 l 722 969 l 111 969 l 111 851 l 339 851 l 339 118 l 111 118 l 111 0 m 417 1068 q 497 1092 474 1068 q 519 1150 519 1115 l 519 1181 q 497 1239 519 1215 q 417 1263 474 1263 q 337 1239 360 1263 q 314 1181 314 1215 l 314 1150 q 337 1092 314 1115 q 417 1068 360 1068 "},"Ị":{"ha":833,"x_min":111,"x_max":722,"o":"m 111 0 l 722 0 l 722 118 l 494 118 l 494 851 l 722 851 l 722 969 l 111 969 l 111 851 l 339 851 l 339 118 l 111 118 l 111 0 m 417 -257 q 489 -236 468 -257 q 510 -183 510 -215 l 510 -157 q 489 -104 510 -125 q 417 -83 468 -83 q 344 -104 365 -83 q 324 -157 324 -125 l 324 -183 q 344 -236 324 -215 q 417 -257 365 -257 "},"Ì":{"ha":833,"x_min":111,"x_max":722,"o":"m 111 0 l 722 0 l 722 118 l 494 118 l 494 851 l 722 851 l 722 969 l 111 969 l 111 851 l 339 851 l 339 118 l 111 118 l 111 0 m 238 1271 l 401 1040 l 494 1085 l 368 1335 l 238 1271 "},"Ỉ":{"ha":833,"x_min":111,"x_max":722,"o":"m 111 0 l 722 0 l 722 118 l 494 118 l 494 851 l 722 851 l 722 969 l 111 969 l 111 851 l 339 851 l 339 118 l 111 118 l 111 0 m 279 1315 l 279 1204 l 446 1204 l 375 1067 l 456 1028 l 492 1072 q 544 1153 524 1113 q 564 1228 564 1193 q 539 1290 564 1264 q 450 1315 514 1315 l 279 1315 "},"Ī":{"ha":833,"x_min":111,"x_max":722,"o":"m 111 0 l 722 0 l 722 118 l 494 118 l 494 851 l 722 851 l 722 969 l 111 969 l 111 851 l 339 851 l 339 118 l 111 118 l 111 0 m 215 1222 l 215 1108 l 618 1108 l 618 1222 l 215 1222 "},"Į":{"ha":833,"x_min":111,"x_max":758,"o":"m 111 118 l 111 0 l 611 0 l 614 -4 q 493 -83 535 -42 q 451 -176 451 -124 q 464 -228 451 -207 q 499 -264 476 -250 q 549 -284 521 -278 q 611 -290 578 -290 q 706 -273 669 -290 q 758 -228 743 -256 l 694 -165 q 663 -192 681 -182 q 621 -203 644 -203 q 582 -192 599 -203 q 565 -153 565 -181 q 570 -129 565 -142 q 591 -99 575 -117 q 638 -57 607 -81 q 722 0 669 -33 l 722 118 l 494 118 l 494 851 l 722 851 l 722 969 l 111 969 l 111 851 l 339 851 l 339 118 l 111 118 "},"Ĩ":{"ha":833,"x_min":111,"x_max":722,"o":"m 111 0 l 722 0 l 722 118 l 494 118 l 494 851 l 722 851 l 722 969 l 111 969 l 111 851 l 339 851 l 339 118 l 111 118 l 111 0 m 519 1075 q 606 1099 571 1075 q 663 1154 642 1122 l 606 1226 q 567 1199 585 1208 q 525 1190 549 1190 q 478 1199 503 1190 q 422 1222 454 1207 q 374 1244 399 1233 q 314 1254 349 1254 q 227 1231 263 1254 q 171 1175 192 1207 l 228 1103 q 267 1130 249 1121 q 308 1139 285 1139 q 355 1131 331 1139 q 411 1107 379 1122 q 460 1085 435 1096 q 519 1075 485 1075 "},"Ĳ":{"ha":833,"x_min":99,"x_max":718,"o":"m 718 969 l 563 969 l 563 289 q 522 156 563 199 q 410 114 482 114 q 344 126 371 114 q 298 158 317 138 q 268 203 279 178 q 251 258 257 229 l 99 222 q 199 48 121 113 q 407 -17 276 -17 q 535 3 478 -17 q 633 60 593 24 q 696 150 674 97 q 718 268 718 203 l 718 969 m 108 969 l 108 414 l 264 414 l 264 969 l 108 969 "},"Ĵ":{"ha":833,"x_min":82,"x_max":685,"o":"m 685 969 l 192 969 l 192 839 l 529 839 l 529 281 q 491 155 529 196 q 385 114 453 114 q 276 154 311 114 q 229 254 242 194 l 82 224 q 180 47 104 111 q 383 -17 256 -17 q 507 3 451 -17 q 602 58 563 22 q 663 146 642 94 q 685 260 685 197 l 685 969 m 515 1311 l 363 1311 l 196 1103 l 272 1044 l 438 1206 l 601 1044 l 682 1103 l 515 1311 "},"Ķ":{"ha":833,"x_min":108,"x_max":818,"o":"m 361 -82 l 328 -360 l 429 -360 l 540 -82 l 361 -82 m 381 446 l 640 0 l 818 0 l 486 561 l 806 969 l 626 969 l 389 667 l 271 506 l 264 506 l 264 969 l 108 969 l 108 0 l 264 0 l 264 300 l 381 446 "},"Ĺ":{"ha":833,"x_min":150,"x_max":747,"o":"m 246 1040 l 410 1271 l 279 1335 l 153 1085 l 246 1040 m 150 0 l 747 0 l 747 131 l 306 131 l 306 969 l 150 969 l 150 0 "},"Ľ":{"ha":833,"x_min":150,"x_max":747,"o":"m 525 750 l 603 1028 l 428 1028 l 419 750 l 525 750 m 150 0 l 747 0 l 747 131 l 306 131 l 306 969 l 150 969 l 150 0 "},"Ļ":{"ha":833,"x_min":150,"x_max":747,"o":"m 360 -82 l 326 -360 l 428 -360 l 539 -82 l 360 -82 m 150 0 l 747 0 l 747 131 l 306 131 l 306 969 l 150 969 l 150 0 "},"Ŀ":{"ha":833,"x_min":150,"x_max":747,"o":"m 150 0 l 747 0 l 747 131 l 306 131 l 306 969 l 150 969 l 150 0 m 610 357 q 690 381 667 357 q 713 439 713 404 l 713 469 q 690 528 713 504 q 610 551 667 551 q 530 528 553 551 q 507 469 507 504 l 507 439 q 530 381 507 404 q 610 357 553 357 "},"Ł":{"ha":833,"x_min":51,"x_max":747,"o":"m 747 0 l 747 131 l 313 131 l 313 406 l 590 497 l 590 619 l 313 528 l 313 969 l 157 969 l 157 482 l 51 447 l 51 326 l 157 361 l 157 0 l 747 0 "},"Ń":{"ha":833,"x_min":100,"x_max":733,"o":"m 432 1040 l 596 1271 l 465 1335 l 339 1085 l 432 1040 m 249 746 l 533 0 l 733 0 l 733 969 l 597 969 l 597 224 l 585 224 l 300 969 l 100 969 l 100 0 l 236 0 l 236 746 l 249 746 "},"Ň":{"ha":833,"x_min":100,"x_max":733,"o":"m 249 746 l 533 0 l 733 0 l 733 969 l 597 969 l 597 224 l 585 224 l 300 969 l 100 969 l 100 0 l 236 0 l 236 746 l 249 746 m 340 1056 l 493 1056 l 660 1264 l 583 1322 l 418 1161 l 254 1322 l 174 1264 l 340 1056 "},"Ņ":{"ha":833,"x_min":100,"x_max":733,"o":"m 329 -82 l 296 -360 l 397 -360 l 508 -82 l 329 -82 m 249 746 l 533 0 l 733 0 l 733 969 l 597 969 l 597 224 l 585 224 l 300 969 l 100 969 l 100 0 l 236 0 l 236 746 l 249 746 "},"Ñ":{"ha":833,"x_min":100,"x_max":733,"o":"m 519 1075 q 606 1099 571 1075 q 663 1154 642 1122 l 606 1226 q 567 1199 585 1208 q 525 1190 549 1190 q 478 1199 503 1190 q 422 1222 454 1207 q 374 1244 399 1233 q 314 1254 349 1254 q 227 1231 263 1254 q 171 1175 192 1207 l 228 1103 q 267 1130 249 1121 q 308 1139 285 1139 q 355 1131 331 1139 q 411 1107 379 1122 q 460 1085 435 1096 q 519 1075 485 1075 m 249 746 l 533 0 l 733 0 l 733 969 l 597 969 l 597 224 l 585 224 l 300 969 l 100 969 l 100 0 l 236 0 l 236 746 l 249 746 "},"Ŋ":{"ha":833,"x_min":100,"x_max":733,"o":"m 100 0 l 236 0 l 236 746 l 249 746 l 533 0 l 592 0 l 592 -158 l 238 -158 l 238 -278 l 550 -278 q 689 -227 644 -278 q 733 -96 733 -176 l 733 969 l 597 969 l 597 224 l 585 224 l 300 969 l 100 969 l 100 0 "},"Ó":{"ha":833,"x_min":61,"x_max":772,"o":"m 432 1040 l 596 1271 l 465 1335 l 339 1085 l 432 1040 m 417 -17 q 576 17 508 -17 q 687 115 643 51 q 751 272 731 179 q 772 485 772 365 q 751 697 772 603 q 687 854 731 790 q 576 952 643 918 q 417 986 508 986 q 258 952 325 986 q 147 854 190 918 q 82 697 103 790 q 61 485 61 603 q 82 272 61 365 q 147 115 103 179 q 258 17 190 51 q 417 -17 325 -17 m 417 113 q 269 191 313 113 q 226 403 226 269 l 226 567 q 269 778 226 700 q 417 857 313 857 q 564 778 521 857 q 607 567 607 700 l 607 404 q 564 191 607 269 q 417 113 521 113 "},"Ŏ":{"ha":833,"x_min":61,"x_max":772,"o":"m 417 -17 q 576 17 508 -17 q 687 115 643 51 q 751 272 731 179 q 772 485 772 365 q 751 697 772 603 q 687 854 731 790 q 576 952 643 918 q 417 986 508 986 q 258 952 325 986 q 147 854 190 918 q 82 697 103 790 q 61 485 61 603 q 82 272 61 365 q 147 115 103 179 q 258 17 190 51 q 417 -17 325 -17 m 417 113 q 269 191 313 113 q 226 403 226 269 l 226 567 q 269 778 226 700 q 417 857 313 857 q 564 778 521 857 q 607 567 607 700 l 607 404 q 564 191 607 269 q 417 113 521 113 m 417 1049 q 516 1070 475 1049 q 585 1124 557 1092 q 631 1196 613 1157 q 660 1268 649 1235 l 569 1311 l 540 1265 q 484 1187 508 1214 q 417 1160 460 1160 q 378 1167 394 1160 q 349 1187 363 1174 q 323 1220 336 1200 q 293 1265 310 1240 l 264 1311 l 174 1268 q 202 1196 185 1235 q 248 1124 219 1157 q 317 1070 276 1092 q 417 1049 358 1049 "},"Ô":{"ha":833,"x_min":61,"x_max":772,"o":"m 493 1311 l 340 1311 l 174 1103 l 250 1044 l 415 1206 l 579 1044 l 660 1103 l 493 1311 m 417 -17 q 576 17 508 -17 q 687 115 643 51 q 751 272 731 179 q 772 485 772 365 q 751 697 772 603 q 687 854 731 790 q 576 952 643 918 q 417 986 508 986 q 258 952 325 986 q 147 854 190 918 q 82 697 103 790 q 61 485 61 603 q 82 272 61 365 q 147 115 103 179 q 258 17 190 51 q 417 -17 325 -17 m 417 113 q 269 191 313 113 q 226 403 226 269 l 226 567 q 269 778 226 700 q 417 857 313 857 q 564 778 521 857 q 607 567 607 700 l 607 404 q 564 191 607 269 q 417 113 521 113 "},"Ö":{"ha":833,"x_min":61,"x_max":772,"o":"m 417 -17 q 576 17 508 -17 q 687 115 643 51 q 751 272 731 179 q 772 485 772 365 q 751 697 772 603 q 687 854 731 790 q 576 952 643 918 q 417 986 508 986 q 258 952 325 986 q 147 854 190 918 q 82 697 103 790 q 61 485 61 603 q 82 272 61 365 q 147 115 103 179 q 258 17 190 51 q 417 -17 325 -17 m 417 113 q 269 191 313 113 q 226 403 226 269 l 226 567 q 269 778 226 700 q 417 857 313 857 q 564 778 521 857 q 607 567 607 700 l 607 404 q 564 191 607 269 q 417 113 521 113 m 278 1079 q 350 1100 329 1079 q 371 1153 371 1121 l 371 1179 q 350 1232 371 1211 q 278 1253 329 1253 q 206 1232 226 1253 q 185 1179 185 1211 l 185 1153 q 206 1100 185 1121 q 278 1079 226 1079 m 556 1079 q 628 1100 607 1079 q 649 1153 649 1121 l 649 1179 q 628 1232 649 1211 q 556 1253 607 1253 q 483 1232 504 1253 q 463 1179 463 1211 l 463 1153 q 483 1100 463 1121 q 556 1079 504 1079 "},"Ọ":{"ha":833,"x_min":61,"x_max":772,"o":"m 417 -17 q 576 17 508 -17 q 687 115 643 51 q 751 272 731 179 q 772 485 772 365 q 751 697 772 603 q 687 854 731 790 q 576 952 643 918 q 417 986 508 986 q 258 952 325 986 q 147 854 190 918 q 82 697 103 790 q 61 485 61 603 q 82 272 61 365 q 147 115 103 179 q 258 17 190 51 q 417 -17 325 -17 m 417 113 q 269 191 313 113 q 226 403 226 269 l 226 567 q 269 778 226 700 q 417 857 313 857 q 564 778 521 857 q 607 567 607 700 l 607 404 q 564 191 607 269 q 417 113 521 113 m 417 -257 q 489 -236 468 -257 q 510 -183 510 -215 l 510 -157 q 489 -104 510 -125 q 417 -83 468 -83 q 344 -104 365 -83 q 324 -157 324 -125 l 324 -183 q 344 -236 324 -215 q 417 -257 365 -257 "},"Ò":{"ha":833,"x_min":61,"x_max":772,"o":"m 238 1271 l 401 1040 l 494 1085 l 368 1335 l 238 1271 m 417 -17 q 576 17 508 -17 q 687 115 643 51 q 751 272 731 179 q 772 485 772 365 q 751 697 772 603 q 687 854 731 790 q 576 952 643 918 q 417 986 508 986 q 258 952 325 986 q 147 854 190 918 q 82 697 103 790 q 61 485 61 603 q 82 272 61 365 q 147 115 103 179 q 258 17 190 51 q 417 -17 325 -17 m 417 113 q 269 191 313 113 q 226 403 226 269 l 226 567 q 269 778 226 700 q 417 857 313 857 q 564 778 521 857 q 607 567 607 700 l 607 404 q 564 191 607 269 q 417 113 521 113 "},"Ỏ":{"ha":833,"x_min":61,"x_max":772,"o":"m 279 1315 l 279 1204 l 446 1204 l 375 1067 l 456 1028 l 492 1072 q 544 1153 524 1113 q 564 1228 564 1193 q 539 1290 564 1264 q 450 1315 514 1315 l 279 1315 m 417 -17 q 576 17 508 -17 q 687 115 643 51 q 751 272 731 179 q 772 485 772 365 q 751 697 772 603 q 687 854 731 790 q 576 952 643 918 q 417 986 508 986 q 258 952 325 986 q 147 854 190 918 q 82 697 103 790 q 61 485 61 603 q 82 272 61 365 q 147 115 103 179 q 258 17 190 51 q 417 -17 325 -17 m 417 113 q 269 191 313 113 q 226 403 226 269 l 226 567 q 269 778 226 700 q 417 857 313 857 q 564 778 521 857 q 607 567 607 700 l 607 404 q 564 191 607 269 q 417 113 521 113 "},"Ő":{"ha":833,"x_min":61,"x_max":772,"o":"m 306 1040 l 469 1271 l 346 1332 l 219 1081 l 306 1040 m 554 1040 l 718 1271 l 594 1332 l 468 1081 l 554 1040 m 417 -17 q 576 17 508 -17 q 687 115 643 51 q 751 272 731 179 q 772 485 772 365 q 751 697 772 603 q 687 854 731 790 q 576 952 643 918 q 417 986 508 986 q 258 952 325 986 q 147 854 190 918 q 82 697 103 790 q 61 485 61 603 q 82 272 61 365 q 147 115 103 179 q 258 17 190 51 q 417 -17 325 -17 m 417 113 q 269 191 313 113 q 226 403 226 269 l 226 567 q 269 778 226 700 q 417 857 313 857 q 564 778 521 857 q 607 567 607 700 l 607 404 q 564 191 607 269 q 417 113 521 113 "},"Ō":{"ha":833,"x_min":61,"x_max":772,"o":"m 417 -17 q 576 17 508 -17 q 687 115 643 51 q 751 272 731 179 q 772 485 772 365 q 751 697 772 603 q 687 854 731 790 q 576 952 643 918 q 417 986 508 986 q 258 952 325 986 q 147 854 190 918 q 82 697 103 790 q 61 485 61 603 q 82 272 61 365 q 147 115 103 179 q 258 17 190 51 q 417 -17 325 -17 m 417 113 q 269 191 313 113 q 226 403 226 269 l 226 567 q 269 778 226 700 q 417 857 313 857 q 564 778 521 857 q 607 567 607 700 l 607 404 q 564 191 607 269 q 417 113 521 113 m 215 1222 l 215 1108 l 618 1108 l 618 1222 l 215 1222 "},"Ø":{"ha":833,"x_min":49,"x_max":785,"o":"m 417 -17 q 576 17 508 -17 q 687 115 643 51 q 751 272 731 179 q 772 485 772 365 q 754 685 772 597 q 697 838 736 774 l 785 983 l 681 1043 l 613 929 q 417 986 538 986 q 258 952 325 986 q 147 854 190 918 q 82 697 103 790 q 61 485 61 603 q 79 283 61 372 q 136 131 97 194 l 49 -14 l 153 -74 l 221 40 q 417 -17 296 -17 m 226 403 l 226 567 q 269 778 226 700 q 417 857 313 857 q 544 806 497 857 l 238 282 q 228 340 231 310 q 226 403 226 369 m 417 113 q 289 164 336 113 l 596 688 q 605 630 603 660 q 607 567 607 600 l 607 403 q 564 191 607 269 q 417 113 521 113 "},"Ǿ":{"ha":833,"x_min":49,"x_max":785,"o":"m 417 -17 q 576 17 508 -17 q 687 115 643 51 q 751 272 731 179 q 772 485 772 365 q 754 685 772 597 q 697 838 736 774 l 785 983 l 681 1043 l 613 929 q 417 986 538 986 q 258 952 325 986 q 147 854 190 918 q 82 697 103 790 q 61 485 61 603 q 79 283 61 372 q 136 131 97 194 l 49 -14 l 153 -74 l 221 40 q 417 -17 296 -17 m 226 403 l 226 567 q 269 778 226 700 q 417 857 313 857 q 544 806 497 857 l 238 282 q 228 340 231 310 q 226 403 226 369 m 417 113 q 289 164 336 113 l 596 688 q 605 630 603 660 q 607 567 607 600 l 607 403 q 564 191 607 269 q 417 113 521 113 m 432 1040 l 596 1271 l 465 1335 l 339 1085 l 432 1040 "},"Õ":{"ha":833,"x_min":61,"x_max":772,"o":"m 417 -17 q 576 17 508 -17 q 687 115 643 51 q 751 272 731 179 q 772 485 772 365 q 751 697 772 603 q 687 854 731 790 q 576 952 643 918 q 417 986 508 986 q 258 952 325 986 q 147 854 190 918 q 82 697 103 790 q 61 485 61 603 q 82 272 61 365 q 147 115 103 179 q 258 17 190 51 q 417 -17 325 -17 m 417 113 q 269 191 313 113 q 226 403 226 269 l 226 567 q 269 778 226 700 q 417 857 313 857 q 564 778 521 857 q 607 567 607 700 l 607 404 q 564 191 607 269 q 417 113 521 113 m 519 1075 q 606 1099 571 1075 q 663 1154 642 1122 l 606 1226 q 567 1199 585 1208 q 525 1190 549 1190 q 478 1199 503 1190 q 422 1222 454 1207 q 374 1244 399 1233 q 314 1254 349 1254 q 227 1231 263 1254 q 171 1175 192 1207 l 228 1103 q 267 1130 249 1121 q 308 1139 285 1139 q 355 1131 331 1139 q 411 1107 379 1122 q 460 1085 435 1096 q 519 1075 485 1075 "},"Ơ":{"ha":833,"x_min":61,"x_max":788,"o":"m 788 986 l 788 1126 l 658 1126 l 658 969 l 533 969 q 417 986 481 986 q 258 952 325 986 q 147 854 190 918 q 82 697 103 790 q 61 485 61 603 q 82 272 61 365 q 147 115 103 179 q 258 17 190 51 q 417 -17 325 -17 q 576 17 508 -17 q 687 115 643 51 q 751 272 731 179 q 772 485 772 365 q 748 719 772 619 q 664 876 724 818 l 683 876 q 766 907 744 876 q 788 986 788 938 m 417 113 q 269 191 313 113 q 226 403 226 269 l 226 567 q 269 778 226 700 q 417 857 313 857 q 564 778 521 857 q 607 567 607 700 l 607 404 q 564 191 607 269 q 417 113 521 113 "},"Ớ":{"ha":833,"x_min":61,"x_max":788,"o":"m 432 1040 l 596 1271 l 465 1335 l 339 1085 l 432 1040 m 788 986 l 788 1126 l 658 1126 l 658 969 l 533 969 q 417 986 481 986 q 258 952 325 986 q 147 854 190 918 q 82 697 103 790 q 61 485 61 603 q 82 272 61 365 q 147 115 103 179 q 258 17 190 51 q 417 -17 325 -17 q 576 17 508 -17 q 687 115 643 51 q 751 272 731 179 q 772 485 772 365 q 748 719 772 619 q 664 876 724 818 l 683 876 q 766 907 744 876 q 788 986 788 938 m 417 113 q 269 191 313 113 q 226 403 226 269 l 226 567 q 269 778 226 700 q 417 857 313 857 q 564 778 521 857 q 607 567 607 700 l 607 404 q 564 191 607 269 q 417 113 521 113 "},"Ợ":{"ha":833,"x_min":61,"x_max":788,"o":"m 788 986 l 788 1126 l 658 1126 l 658 969 l 533 969 q 417 986 481 986 q 258 952 325 986 q 147 854 190 918 q 82 697 103 790 q 61 485 61 603 q 82 272 61 365 q 147 115 103 179 q 258 17 190 51 q 417 -17 325 -17 q 576 17 508 -17 q 687 115 643 51 q 751 272 731 179 q 772 485 772 365 q 748 719 772 619 q 664 876 724 818 l 683 876 q 766 907 744 876 q 788 986 788 938 m 417 113 q 269 191 313 113 q 226 403 226 269 l 226 567 q 269 778 226 700 q 417 857 313 857 q 564 778 521 857 q 607 567 607 700 l 607 404 q 564 191 607 269 q 417 113 521 113 m 417 -257 q 489 -236 468 -257 q 510 -183 510 -215 l 510 -157 q 489 -104 510 -125 q 417 -83 468 -83 q 344 -104 365 -83 q 324 -157 324 -125 l 324 -183 q 344 -236 324 -215 q 417 -257 365 -257 "},"Ờ":{"ha":833,"x_min":61,"x_max":788,"o":"m 238 1271 l 401 1040 l 494 1085 l 368 1335 l 238 1271 m 788 986 l 788 1126 l 658 1126 l 658 969 l 533 969 q 417 986 481 986 q 258 952 325 986 q 147 854 190 918 q 82 697 103 790 q 61 485 61 603 q 82 272 61 365 q 147 115 103 179 q 258 17 190 51 q 417 -17 325 -17 q 576 17 508 -17 q 687 115 643 51 q 751 272 731 179 q 772 485 772 365 q 748 719 772 619 q 664 876 724 818 l 683 876 q 766 907 744 876 q 788 986 788 938 m 417 113 q 269 191 313 113 q 226 403 226 269 l 226 567 q 269 778 226 700 q 417 857 313 857 q 564 778 521 857 q 607 567 607 700 l 607 404 q 564 191 607 269 q 417 113 521 113 "},"Ở":{"ha":833,"x_min":61,"x_max":788,"o":"m 788 986 l 788 1126 l 658 1126 l 658 969 l 533 969 q 417 986 481 986 q 258 952 325 986 q 147 854 190 918 q 82 697 103 790 q 61 485 61 603 q 82 272 61 365 q 147 115 103 179 q 258 17 190 51 q 417 -17 325 -17 q 576 17 508 -17 q 687 115 643 51 q 751 272 731 179 q 772 485 772 365 q 748 719 772 619 q 664 876 724 818 l 683 876 q 766 907 744 876 q 788 986 788 938 m 417 113 q 269 191 313 113 q 226 403 226 269 l 226 567 q 269 778 226 700 q 417 857 313 857 q 564 778 521 857 q 607 567 607 700 l 607 404 q 564 191 607 269 q 417 113 521 113 m 279 1315 l 279 1204 l 446 1204 l 375 1067 l 456 1028 l 492 1072 q 544 1153 524 1113 q 564 1228 564 1193 q 539 1290 564 1264 q 450 1315 514 1315 l 279 1315 "},"Ỡ":{"ha":833,"x_min":61,"x_max":788,"o":"m 497 1078 q 577 1102 544 1078 q 631 1158 610 1126 l 574 1228 q 500 1193 538 1193 q 460 1201 479 1193 q 414 1222 440 1208 q 372 1242 393 1233 q 319 1251 350 1251 q 240 1227 272 1251 q 186 1171 207 1203 l 243 1101 q 317 1136 279 1136 q 357 1128 338 1136 q 403 1107 376 1121 q 445 1087 424 1096 q 497 1078 467 1078 m 788 986 l 788 1126 l 658 1126 l 658 969 l 533 969 q 417 986 481 986 q 258 952 325 986 q 147 854 190 918 q 82 697 103 790 q 61 485 61 603 q 82 272 61 365 q 147 115 103 179 q 258 17 190 51 q 417 -17 325 -17 q 576 17 508 -17 q 687 115 643 51 q 751 272 731 179 q 772 485 772 365 q 748 719 772 619 q 664 876 724 818 l 683 876 q 766 907 744 876 q 788 986 788 938 m 417 113 q 269 191 313 113 q 226 403 226 269 l 226 567 q 269 778 226 700 q 417 857 313 857 q 564 778 521 857 q 607 567 607 700 l 607 404 q 564 191 607 269 q 417 113 521 113 "},"Ố":{"ha":833,"x_min":61,"x_max":806,"o":"m 642 1232 l 806 1463 l 682 1524 l 556 1274 l 642 1232 m 485 1294 l 349 1294 l 176 1093 l 249 1032 l 415 1188 l 582 1032 l 657 1093 l 485 1294 m 417 -17 q 576 17 508 -17 q 687 115 643 51 q 751 272 731 179 q 772 485 772 365 q 751 697 772 603 q 687 854 731 790 q 576 952 643 918 q 417 986 508 986 q 258 952 325 986 q 147 854 190 918 q 82 697 103 790 q 61 485 61 603 q 82 272 61 365 q 147 115 103 179 q 258 17 190 51 q 417 -17 325 -17 m 417 113 q 269 191 313 113 q 226 403 226 269 l 226 567 q 269 778 226 700 q 417 857 313 857 q 564 778 521 857 q 607 567 607 700 l 607 404 q 564 191 607 269 q 417 113 521 113 "},"Ộ":{"ha":833,"x_min":61,"x_max":772,"o":"m 493 1311 l 340 1311 l 174 1103 l 250 1044 l 415 1206 l 579 1044 l 660 1103 l 493 1311 m 417 -17 q 576 17 508 -17 q 687 115 643 51 q 751 272 731 179 q 772 485 772 365 q 751 697 772 603 q 687 854 731 790 q 576 952 643 918 q 417 986 508 986 q 258 952 325 986 q 147 854 190 918 q 82 697 103 790 q 61 485 61 603 q 82 272 61 365 q 147 115 103 179 q 258 17 190 51 q 417 -17 325 -17 m 417 113 q 269 191 313 113 q 226 403 226 269 l 226 567 q 269 778 226 700 q 417 857 313 857 q 564 778 521 857 q 607 567 607 700 l 607 404 q 564 191 607 269 q 417 113 521 113 m 417 -257 q 489 -236 468 -257 q 510 -183 510 -215 l 510 -157 q 489 -104 510 -125 q 417 -83 468 -83 q 344 -104 365 -83 q 324 -157 324 -125 l 324 -183 q 344 -236 324 -215 q 417 -257 365 -257 "},"Ồ":{"ha":833,"x_min":28,"x_max":772,"o":"m 28 1463 l 192 1232 l 278 1274 l 151 1524 l 28 1463 m 485 1294 l 349 1294 l 176 1093 l 249 1032 l 415 1188 l 582 1032 l 657 1093 l 485 1294 m 417 -17 q 576 17 508 -17 q 687 115 643 51 q 751 272 731 179 q 772 485 772 365 q 751 697 772 603 q 687 854 731 790 q 576 952 643 918 q 417 986 508 986 q 258 952 325 986 q 147 854 190 918 q 82 697 103 790 q 61 485 61 603 q 82 272 61 365 q 147 115 103 179 q 258 17 190 51 q 417 -17 325 -17 m 417 113 q 269 191 313 113 q 226 403 226 269 l 226 567 q 269 778 226 700 q 417 857 313 857 q 564 778 521 857 q 607 567 607 700 l 607 404 q 564 191 607 269 q 417 113 521 113 "}}}
